<?xml version="1.0" encoding="utf-8"?>
<!-- Generator: Adobe Illustrator 16.0.0, SVG Export Plug-In . SVG Version: 6.00 Build 0)  -->
<!DOCTYPE svg PUBLIC "-//W3C//DTD SVG 1.1//EN" "http://www.w3.org/Graphics/SVG/1.1/DTD/svg11.dtd">
<svg version="1.1" id="Capa_1" xmlns="http://www.w3.org/2000/svg" xmlns:xlink="http://www.w3.org/1999/xlink" x="0px" y="0px"
	 width="43px" height="43px" viewBox="0 0 43 43" enable-background="new 0 0 43 43" xml:space="preserve">
<circle id="Elipse_11_1_" fill="#FF930E" cx="23" cy="23" r="20"/>
<g id="Capa_2_1_" transform="translate(0 0)">
	<rect id="Rectángulo_1088_1_" x="9.113" y="9.113" fill="none" width="21.398" height="21.398"/>
</g>
<path fill="none" stroke="#000000" stroke-width="0.9915" stroke-miterlimit="10" d="M20,0.583C9.275,0.583,0.582,9.276,0.582,20
	S9.275,39.418,20,39.418S39.418,30.725,39.418,20S30.725,0.583,20,0.583z"/>
<g>
	<path fill="none" stroke="#000000" stroke-linejoin="round" stroke-miterlimit="10" d="M11.133,11.134h17.733l0,0l0,0
		c0,1.688-1.368,3.058-3.057,3.058H14.19C12.502,14.191,11.133,12.822,11.133,11.134L11.133,11.134L11.133,11.134z"/>
	<path fill="none" stroke="#000000" stroke-linejoin="round" stroke-miterlimit="10" d="M25.054,28.867H14.946
		c-0.676,0-1.223-0.548-1.223-1.223c0-0.045,0.002-0.091,0.008-0.136l0.951-8.561c0.068-0.62,0.592-1.088,1.215-1.088h8.207
		c0.623,0,1.146,0.468,1.217,1.088l0.951,8.561c0.074,0.672-0.41,1.276-1.08,1.351C25.146,28.865,25.1,28.867,25.054,28.867z"/>
	
		<rect x="17.554" y="16.026" fill="none" stroke="#000000" stroke-linejoin="round" stroke-miterlimit="10" width="4.891" height="1.834"/>
	
		<rect x="18.471" y="14.191" fill="none" stroke="#000000" stroke-linejoin="round" stroke-miterlimit="10" width="3.056" height="1.834"/>
	<circle fill="none" stroke="#000000" stroke-linejoin="round" stroke-miterlimit="10" cx="20" cy="23.364" r="3.363"/>
	<path fill="none" stroke="#000000" stroke-linejoin="round" stroke-miterlimit="10" d="M20,23.67c-0.169,0-0.306-0.137-0.306-0.307
		c0-0.168,0.137-0.305,0.306-0.305s0.306,0.137,0.306,0.305C20.306,23.533,20.169,23.67,20,23.67z"/>
	<line fill="none" stroke="#000000" stroke-linejoin="round" stroke-miterlimit="10" x1="20.001" y1="23.363" x2="20.001" y2="20"/>
</g>
</svg>
