<?xml version="1.0" encoding="utf-8"?>
<!-- Generator: Adobe Illustrator 16.0.0, SVG Export Plug-In . SVG Version: 6.00 Build 0)  -->
<!DOCTYPE svg PUBLIC "-//W3C//DTD SVG 1.1//EN" "http://www.w3.org/Graphics/SVG/1.1/DTD/svg11.dtd">
<svg version="1.1" id="Capa_1" xmlns="http://www.w3.org/2000/svg" xmlns:xlink="http://www.w3.org/1999/xlink" x="0px" y="0px"
	 width="43px" height="43px" viewBox="0 0 43 43" enable-background="new 0 0 43 43" xml:space="preserve">
<g>
	<circle id="Elipse_11_1_" fill="#FFFFFF" cx="23.045" cy="23.244" r="20"/>
	<g id="Capa_2_1_" transform="translate(0 0)">
		<rect id="Rectángulo_1088_1_" x="9.159" y="9.357" fill="none" width="21.398" height="21.398"/>
	</g>
	<path fill="none" stroke="#000000" stroke-width="0.9915" stroke-miterlimit="10" d="M20.045,0.827
		c-10.725,0-19.418,8.694-19.418,19.418s8.693,19.417,19.418,19.417c10.724,0,19.417-8.693,19.417-19.417S30.77,0.827,20.045,0.827z
		"/>
	<g>
		<path fill="none" stroke="#000000" stroke-miterlimit="10" d="M22.211,23.82c-0.883-0.885-2.059-1.373-3.308-1.373
			c-0.515,0-1.016,0.084-1.489,0.242c0.157-0.473,0.241-0.974,0.24-1.49c0-1.25-0.486-2.424-1.37-3.308
			c-0.19-0.19-0.497-0.191-0.688,0c-1.824,1.824-1.825,4.794,0,6.616l0,0c0.883,0.885,2.059,1.369,3.308,1.369h0.001
			c1.249,0,2.424-0.486,3.307-1.369c0.092-0.092,0.143-0.217,0.143-0.346C22.354,24.035,22.301,23.91,22.211,23.82z"/>
		<path fill="none" stroke="#000000" stroke-miterlimit="10" d="M25.145,20.885c-0.883-0.884-2.059-1.371-3.308-1.371
			c-0.515,0.001-1.019,0.083-1.493,0.243c0.545-1.63,0.17-3.504-1.126-4.8c-0.09-0.091-0.215-0.143-0.344-0.142
			c-0.13,0-0.253,0.051-0.346,0.143c-1.822,1.823-1.822,4.791,0,6.616l0,0c0.884,0.884,2.061,1.369,3.309,1.369
			c1.251,0,2.425-0.486,3.308-1.369c0.092-0.092,0.143-0.217,0.143-0.346S25.236,20.976,25.145,20.885z"/>
		<path fill="none" stroke="#000000" stroke-miterlimit="10" d="M21.836,19.514c-0.514,0.001-1.017,0.083-1.49,0.242l-1.818,1.819
			c0.884,0.884,2.061,1.369,3.309,1.369c1.251,0,2.425-0.486,3.308-1.369c0.092-0.092,0.143-0.217,0.143-0.346
			s-0.051-0.253-0.143-0.344C24.262,20.001,23.086,19.514,21.836,19.514z"/>
		<path fill="none" stroke="#000000" stroke-miterlimit="10" d="M28.082,17.949c-0.885-0.883-2.059-1.371-3.311-1.371
			c-0.512,0-1.016,0.084-1.488,0.242c0.158-0.474,0.242-0.975,0.24-1.49c0-1.25-0.486-2.425-1.369-3.308
			c-0.092-0.091-0.215-0.143-0.344-0.143c-0.129,0-0.254,0.052-0.345,0.143c-0.883,0.883-1.371,2.058-1.369,3.308
			c0,1.25,0.487,2.424,1.37,3.307l0,0c0.883,0.884,2.057,1.372,3.307,1.372c1.248,0,2.418-0.485,3.301-1.364
			c0.047-0.045,0.086-0.1,0.113-0.164C28.262,18.298,28.221,18.088,28.082,17.949z"/>
		<path fill="none" stroke="#000000" stroke-miterlimit="10" d="M28.082,17.949c-0.885-0.883-2.059-1.371-3.311-1.371
			c-0.512,0-1.016,0.084-1.488,0.242l-1.817,1.816c0.883,0.884,2.057,1.372,3.307,1.372c1.248,0,2.418-0.485,3.301-1.363
			c0.047-0.046,0.086-0.101,0.113-0.165C28.262,18.298,28.221,18.088,28.082,17.949z"/>
		<path fill="none" stroke="#000000" stroke-miterlimit="10" d="M28.184,11.433c-2.58,0-4.678,2.098-4.678,4.678
			c0,0.27,0.217,0.487,0.486,0.488l0,0c1.248-0.001,2.424-0.488,3.309-1.372c0.883-0.883,1.369-2.057,1.369-3.307
			C28.67,11.651,28.451,11.434,28.184,11.433z"/>
		<path fill="none" stroke="#000000" stroke-miterlimit="10" d="M18.903,22.447c-0.515,0-1.016,0.084-1.489,0.242l-1.818,1.818
			c0.883,0.885,2.059,1.369,3.308,1.369h0.001c1.249,0,2.424-0.486,3.307-1.369c0.092-0.092,0.143-0.217,0.143-0.346
			c0-0.127-0.053-0.252-0.143-0.342C21.328,22.936,20.152,22.447,18.903,22.447z"/>
		<line fill="none" stroke="#000000" stroke-miterlimit="10" x1="23.646" y1="16.456" x2="11.045" y2="29.057"/>
	</g>
</g>
</svg>
