<?xml version="1.0" encoding="utf-8"?>
<!-- Generator: Adobe Illustrator 16.0.0, SVG Export Plug-In . SVG Version: 6.00 Build 0)  -->
<!DOCTYPE svg PUBLIC "-//W3C//DTD SVG 1.1//EN" "http://www.w3.org/Graphics/SVG/1.1/DTD/svg11.dtd">
<svg version="1.1" id="Capa_1" xmlns="http://www.w3.org/2000/svg" xmlns:xlink="http://www.w3.org/1999/xlink" x="0px" y="0px"
	 width="43px" height="43px" viewBox="0 0 43 43" enable-background="new 0 0 43 43" xml:space="preserve">
<g>
	<circle id="Elipse_11_3_" fill="#FFFFFF" cx="22.848" cy="23" r="20"/>
	<g id="Capa_2_3_" transform="translate(0 0)">
		<rect id="Rectángulo_1088_3_" x="8.961" y="9.113" fill="none" width="21.398" height="21.398"/>
	</g>
	<path fill="none" stroke="#000000" stroke-width="0.9915" stroke-miterlimit="10" d="M19.848,0.583C9.124,0.583,0.43,9.276,0.43,20
		s8.693,19.417,19.418,19.417c10.724,0,19.417-8.693,19.417-19.417S30.572,0.583,19.848,0.583z"/>
	<g>
		<circle fill="none" stroke="#000000" stroke-miterlimit="10" cx="19.846" cy="19.763" r="4.099"/>
		<circle fill="none" stroke="#000000" stroke-miterlimit="10" cx="19.846" cy="19.763" r="4.099"/>
		<path fill="none" stroke="#000000" stroke-miterlimit="10" d="M25.758,17.359c-0.877-0.282-1.773-0.24-2.582,0.038
			c0.723,1.018,0.984,2.343,0.572,3.622c-0.41,1.278-1.396,2.203-2.576,2.609c0.494,0.696,1.197,1.253,2.074,1.534
			c2.156,0.694,4.465-0.49,5.158-2.646C29.098,20.362,27.912,18.053,25.758,17.359z"/>
		<path fill="none" stroke="#000000" stroke-miterlimit="10" d="M15.945,18.508c0.411-1.279,1.397-2.203,2.576-2.609
			c-0.494-0.697-1.197-1.253-2.073-1.535c-2.155-0.693-4.464,0.491-5.157,2.646c-0.692,2.155,0.491,4.464,2.646,5.157
			c0.877,0.282,1.773,0.24,2.581-0.037C15.795,21.113,15.533,19.787,15.945,18.508z"/>
		<path fill="none" stroke="#000000" stroke-miterlimit="10" d="M21.102,15.862c1.279,0.412,2.203,1.397,2.609,2.577
			c0.697-0.494,1.254-1.198,1.535-2.074c0.693-2.155-0.492-4.463-2.646-5.157c-2.156-0.693-4.463,0.491-5.157,2.647
			c-0.282,0.876-0.24,1.772,0.038,2.58C18.498,15.712,19.823,15.45,21.102,15.862z"/>
		<path fill="none" stroke="#000000" stroke-miterlimit="10" d="M18.591,23.665c-1.279-0.411-2.203-1.397-2.608-2.577
			c-0.696,0.495-1.254,1.199-1.535,2.074c-0.693,2.155,0.491,4.465,2.646,5.158c2.156,0.693,4.465-0.492,5.157-2.646
			c0.283-0.877,0.24-1.772-0.037-2.58C21.196,23.814,19.871,24.077,18.591,23.665z"/>
		<path fill="none" stroke="#000000" stroke-miterlimit="10" d="M25.182,25.285c-0.629,0.107-1.287,0.086-1.936-0.123
			c-0.299-0.096-0.572-0.234-0.828-0.389c-0.025,0.3-0.07,0.601-0.168,0.9c-0.207,0.648-0.576,1.195-1.03,1.645
			c0.14,0.073,0.284,0.141,0.439,0.191c1.43,0.46,2.961-0.326,3.422-1.756C25.133,25.598,25.16,25.441,25.182,25.285z"/>
		<path fill="none" stroke="#000000" stroke-miterlimit="10" d="M14.836,22.334c-0.299-0.023-0.601-0.07-0.9-0.166
			c-0.649-0.209-1.195-0.577-1.645-1.031c-0.073,0.14-0.142,0.284-0.191,0.44c-0.46,1.43,0.326,2.962,1.756,3.421
			c0.155,0.051,0.313,0.08,0.47,0.102c-0.107-0.629-0.087-1.288,0.122-1.938C14.543,22.863,14.682,22.592,14.836,22.334z"/>
		<path fill="none" stroke="#000000" stroke-miterlimit="10" d="M17.443,13.854c0.208-0.649,0.576-1.196,1.029-1.645
			c-0.14-0.074-0.283-0.142-0.439-0.192c-1.43-0.46-2.962,0.326-3.422,1.756c-0.051,0.156-0.079,0.313-0.101,0.469
			c0.629-0.107,1.288-0.087,1.938,0.122c0.3,0.097,0.571,0.235,0.828,0.39C17.3,14.454,17.346,14.153,17.443,13.854z"/>
		<g>
			<path fill="none" stroke="#000000" stroke-miterlimit="10" d="M25.836,14.528c-0.154-0.05-0.313-0.079-0.469-0.101
				c0.107,0.629,0.088,1.288-0.121,1.937c-0.096,0.3-0.234,0.571-0.389,0.829c0.299,0.024,0.6,0.07,0.9,0.167
				c0.648,0.209,1.195,0.576,1.643,1.03c0.074-0.14,0.143-0.284,0.193-0.439C28.053,16.52,27.266,14.988,25.836,14.528z"/>
		</g>
	</g>
</g>
</svg>
