<?xml version="1.0" encoding="utf-8"?>
<!-- Generator: Adobe Illustrator 16.0.0, SVG Export Plug-In . SVG Version: 6.00 Build 0)  -->
<!DOCTYPE svg PUBLIC "-//W3C//DTD SVG 1.1//EN" "http://www.w3.org/Graphics/SVG/1.1/DTD/svg11.dtd">
<svg version="1.1" id="Capa_1" xmlns="http://www.w3.org/2000/svg" xmlns:xlink="http://www.w3.org/1999/xlink" x="0px" y="0px"
	 width="43px" height="43px" viewBox="0 0 43 43" enable-background="new 0 0 43 43" xml:space="preserve">
<g>
	<circle id="Elipse_11_2_" fill="#FFFFFF" cx="23" cy="23" r="20"/>
	<g id="Capa_2_2_" transform="translate(0 0)">
		<rect id="Rectángulo_1088_2_" x="9.113" y="9.113" fill="none" width="21.398" height="21.399"/>
	</g>
	<path fill="none" stroke="#000000" stroke-width="0.9915" stroke-miterlimit="10" d="M20,0.582C9.275,0.582,0.582,9.276,0.582,20
		c0,10.725,8.693,19.418,19.418,19.418S39.418,30.725,39.418,20C39.418,9.276,30.725,0.582,20,0.582z"/>
	<g>
		<path fill="none" stroke="#000000" stroke-miterlimit="10" d="M23.266,14.487c-1.003-1.224-1.925-2.512-2.759-3.856
			c-0.188-0.28-0.569-0.354-0.85-0.165c-0.064,0.044-0.121,0.1-0.165,0.165c-0.834,1.345-1.756,2.633-2.759,3.856
			c-1.95,2.488-3.793,4.839-3.793,7.62c0,3.896,3.161,7.059,7.06,7.059s7.059-3.162,7.059-7.059
			C27.059,19.326,25.217,16.975,23.266,14.487z"/>
		<path fill="none" stroke="#000000" stroke-linecap="round" stroke-miterlimit="10" d="M20,26.613c2.472,0,4.477-2.006,4.477-4.479
			"/>
	</g>
</g>
</svg>
