<svg xmlns="http://www.w3.org/2000/svg" width="53.473" height="53.473" viewBox="0 0 53.473 53.473">
  <g id="humedad" transform="translate(0.496 0.496)">
    <ellipse id="Elipse_11_2_" cx="24.978" cy="24.978" rx="24.978" ry="24.978" transform="translate(3.02 3.02)" fill="#10685b"/>
    <g id="Capa_2_2_" transform="translate(10.655 10.655)">
      <rect id="Rectángulo_1088_2_" width="26.724" height="26.726" fill="none"/>
    </g>
    <path id="Trazado_46" data-name="Trazado 46" d="M24.834.582A24.252,24.252,0,1,0,49.085,24.834,24.251,24.251,0,0,0,24.834.582Z" transform="translate(-0.582 -0.582)" fill="none" stroke="#fff" stroke-miterlimit="10" stroke-width="0.992"/>
    <g id="Grupo_15" data-name="Grupo 15" transform="translate(15.434 12.214)">
      <path id="Trazado_47" data-name="Trazado 47" d="M25.836,15.514A45.2,45.2,0,0,1,22.391,10.7a.765.765,0,0,0-1.062-.206.789.789,0,0,0-.206.206,44.95,44.95,0,0,1-3.446,4.816c-2.435,3.107-4.737,6.044-4.737,9.517a8.817,8.817,0,0,0,17.634,0C30.574,21.558,28.273,18.621,25.836,15.514Z" transform="translate(-12.94 -10.361)" fill="none" stroke="#fff" stroke-miterlimit="10" stroke-width="1"/>
      <path id="Trazado_48" data-name="Trazado 48" d="M20,27.728a5.594,5.594,0,0,0,5.591-5.594" transform="translate(-11.183 -7.431)" fill="none" stroke="#fff" stroke-linecap="round" stroke-miterlimit="10" stroke-width="1"/>
    </g>
  </g>
</svg>
