<svg xmlns="http://www.w3.org/2000/svg" width="53.473" height="53.471" viewBox="0 0 53.473 53.471">
  <g id="grasa" transform="translate(0.496 0.496)">
    <ellipse id="Elipse_11_3_" cx="24.978" cy="24.978" rx="24.978" ry="24.978" transform="translate(3.02 3.019)" fill="#10685b"/>
    <g id="Capa_2_3_" transform="translate(10.655 10.653)">
      <rect id="Rectángulo_1088_3_" width="26.724" height="26.724" fill="none"/>
    </g>
    <path id="Trazado_37" data-name="Trazado 37" d="M24.682.583a24.25,24.25,0,1,0,24.25,24.25A24.251,24.251,0,0,0,24.682.583Z" transform="translate(-0.43 -0.583)" fill="none" stroke="#fff" stroke-miterlimit="10" stroke-width="0.992"/>
    <g id="Grupo_14" data-name="Grupo 14" transform="translate(13.318 13.023)">
      <ellipse id="Elipse_2" data-name="Elipse 2" cx="5.119" cy="5.119" rx="5.119" ry="5.119" transform="translate(5.812 5.812)" fill="none" stroke="#fff" stroke-miterlimit="10" stroke-width="1"/>
      <ellipse id="Elipse_3" data-name="Elipse 3" cx="5.119" cy="5.119" rx="5.119" ry="5.119" transform="translate(5.812 5.812)" fill="none" stroke="#fff" stroke-miterlimit="10" stroke-width="1"/>
      <path id="Trazado_38" data-name="Trazado 38" d="M26.9,17.407a5.079,5.079,0,0,0-3.225.047,5.077,5.077,0,0,1-2.5,7.782,5.065,5.065,0,0,0,2.59,1.916A5.119,5.119,0,1,0,26.9,17.407Z" transform="translate(-8.585 -9.477)" fill="none" stroke="#fff" stroke-miterlimit="10" stroke-width="1"/>
      <path id="Trazado_39" data-name="Trazado 39" d="M17.153,19.589A5.1,5.1,0,0,1,20.37,16.33a5.118,5.118,0,1,0-2.5,7.782A5.089,5.089,0,0,1,17.153,19.589Z" transform="translate(-11.093 -10.224)" fill="none" stroke="#fff" stroke-miterlimit="10" stroke-width="1"/>
      <path id="Trazado_40" data-name="Trazado 40" d="M22.061,17.07a5.1,5.1,0,0,1,3.258,3.218,5.065,5.065,0,0,0,1.917-2.59,5.119,5.119,0,1,0-9.7.087A5.086,5.086,0,0,1,22.061,17.07Z" transform="translate(-9.561 -11.01)" fill="none" stroke="#fff" stroke-miterlimit="10" stroke-width="1"/>
      <path id="Trazado_41" data-name="Trazado 41" d="M19.672,24.306a5.09,5.09,0,0,1-3.257-3.218A5.119,5.119,0,1,0,24.2,23.593,5.1,5.1,0,0,1,19.672,24.306Z" transform="translate(-10.308 -8.501)" fill="none" stroke="#fff" stroke-miterlimit="10" stroke-width="1"/>
      <path id="Trazado_42" data-name="Trazado 42" d="M26.168,25.412a5.06,5.06,0,0,1-2.418-.154,4.877,4.877,0,0,1-1.034-.486,4.867,4.867,0,0,1-.21,1.124,5.06,5.06,0,0,1-1.286,2.054,3.531,3.531,0,0,0,.548.239A3.4,3.4,0,0,0,26.042,26,3.237,3.237,0,0,0,26.168,25.412Z" transform="translate(-8.573 -7.584)" fill="none" stroke="#fff" stroke-miterlimit="10" stroke-width="1"/>
      <path id="Trazado_43" data-name="Trazado 43" d="M15.55,22.632a4.873,4.873,0,0,1-1.124-.207,5.081,5.081,0,0,1-2.054-1.288,3.368,3.368,0,0,0,2.542,4.949,5.071,5.071,0,0,1,.152-2.42A4.931,4.931,0,0,1,15.55,22.632Z" transform="translate(-10.876 -8.489)" fill="none" stroke="#fff" stroke-miterlimit="10" stroke-width="1"/>
      <path id="Trazado_44" data-name="Trazado 44" d="M18.173,14.344a5.067,5.067,0,0,1,1.285-2.054,3.362,3.362,0,0,0-4.948,2.539,5.071,5.071,0,0,1,2.42.152,4.942,4.942,0,0,1,1.034.487A4.864,4.864,0,0,1,18.173,14.344Z" transform="translate(-10.243 -10.792)" fill="none" stroke="#fff" stroke-miterlimit="10" stroke-width="1"/>
      <g id="Grupo_13" data-name="Grupo 13" transform="translate(17.19 4.268)">
        <path id="Trazado_45" data-name="Trazado 45" d="M26.08,14.553a3.454,3.454,0,0,0-.586-.126,5.064,5.064,0,0,1-.151,2.419,4.916,4.916,0,0,1-.486,1.035,4.888,4.888,0,0,1,1.124.209,5.061,5.061,0,0,1,2.052,1.286,3.353,3.353,0,0,0-1.953-4.823Z" transform="translate(-24.857 -14.427)" fill="none" stroke="#fff" stroke-miterlimit="10" stroke-width="1"/>
      </g>
    </g>
  </g>
</svg>
