<?xml version="1.0" encoding="utf-8"?>
<!-- Generator: Adobe Illustrator 16.0.0, SVG Export Plug-In . SVG Version: 6.00 Build 0)  -->
<!DOCTYPE svg PUBLIC "-//W3C//DTD SVG 1.1//EN" "http://www.w3.org/Graphics/SVG/1.1/DTD/svg11.dtd">
<svg version="1.1" id="Capa_1" xmlns="http://www.w3.org/2000/svg" xmlns:xlink="http://www.w3.org/1999/xlink" x="0px" y="0px"
	 width="43px" height="43px" viewBox="0 0 43 43" enable-background="new 0 0 43 43" xml:space="preserve">
<circle id="Elipse_35" fill="#FF930E" cx="23" cy="23" r="20"/>
<g id="Capa_1_1_" transform="translate(2.826 1.618)">
	<path id="Trazado_1543" fill="none" stroke="#000000" stroke-linejoin="round" stroke-miterlimit="10" d="M9.113,23.204
		c0.377-0.304,0.68-0.689,0.886-1.127c0.585-1.053,1.14-2.119,1.665-3.2l0,0c-0.009-0.227-0.005-0.453,0.013-0.679
		c0-0.031,0.007-0.064,0.01-0.1c0.144-1.022,0.424-2.021,0.833-2.97c0.081-0.233,0.179-0.461,0.294-0.68
		c0.157-0.289,0.362-0.548,0.606-0.768l0,0c0.242-1.066,0.364-2.167,0.673-3.215c0.065-0.234,0.143-0.465,0.233-0.691
		c0.056-0.194,0.182-0.361,0.354-0.466c0.308,0.584,0.601,1.175,0.88,1.773l0,0c0.104-0.511,0.25-1.013,0.437-1.5
		c0.055-0.194,0.181-0.361,0.353-0.467c0.571,1.086,1.085,2.2,1.554,3.335h0.007c0.228,0.01,0.454,0.037,0.677,0.081
		c0.485,0.097,0.95,0.274,1.377,0.524c0.01,0.007,0.018,0.01,0.027,0.017c1,0.6,1.709,1.6,2.699,2.2c0.494,0.3,1.047,0.5,1.53,0.813
		c0.175,0.113,0.335,0.247,0.478,0.4l0,0c0.055,0.057,0.105,0.118,0.151,0.183c0.184,0.229,0.294,0.507,0.318,0.8
		c0.005,0.166-0.008,0.331-0.037,0.494c-0.011,0.082-0.024,0.163-0.037,0.244c0,0.027-0.01,0.057-0.013,0.084
		c-0.061,0.417-0.166,0.827-0.315,1.221l0,0c-0.146,0.393-0.392,0.741-0.714,1.008c-0.354,0.252-0.746,0.439-1.164,0.555
		c-1.174,0.4-2.367,0.738-3.572,1.025c-0.14,1.922-0.285,4.074-0.424,5.993"/>
</g>
<circle fill="none" stroke="#000000" stroke-miterlimit="10" cx="20" cy="20" r="19.5"/>
</svg>
