<?xml version="1.0" encoding="utf-8"?>
<!-- Generator: Adobe Illustrator 16.0.0, SVG Export Plug-In . SVG Version: 6.00 Build 0)  -->
<!DOCTYPE svg PUBLIC "-//W3C//DTD SVG 1.1//EN" "http://www.w3.org/Graphics/SVG/1.1/DTD/svg11.dtd">
<svg version="1.1" id="Capa_1" xmlns="http://www.w3.org/2000/svg" xmlns:xlink="http://www.w3.org/1999/xlink" x="0px" y="0px"
	 width="273.586px" height="373.477px" viewBox="0 0 273.586 373.477" enable-background="new 0 0 273.586 373.477"
	 xml:space="preserve">
<g>
	<path fill="#FFFFFF" d="M68.203,193.892c2.803,3.809,4.202,9.101,4.202,15.878v59.164c0,0.418-0.147,0.772-0.443,1.067
		c-0.295,0.293-0.646,0.44-1.063,0.44H59.477c-0.417,0-0.771-0.147-1.063-0.44c-0.295-0.295-0.442-0.649-0.442-1.067V210.77
		c0-3.175-0.625-5.643-1.88-7.403c-1.254-1.752-2.97-2.636-5.145-2.636c-2.342,0-4.182,0.884-5.521,2.636
		c-1.342,1.761-2.011,4.189-2.011,7.279v24.03c0,0.419-0.144,0.773-0.437,1.066c-0.295,0.295-0.649,0.443-1.066,0.443H30.493
		c-0.421,0-0.777-0.148-1.067-0.443c-0.295-0.293-0.439-0.647-0.439-1.066V210.77c0-3.175-0.649-5.643-1.946-7.403
		c-1.298-1.752-2.991-2.636-5.082-2.636c-2.342,0-4.186,0.884-5.524,2.636c-1.338,1.761-2.007,4.189-2.007,7.279v24.03
		c0,0.419-0.146,0.773-0.437,1.066c-0.292,0.295-0.646,0.443-1.069,0.443H1.505c-0.419,0-0.773-0.148-1.066-0.443
		C0.144,235.45,0,235.095,0,234.676v-43.982c0-0.417,0.144-0.775,0.439-1.063c0.293-0.295,0.647-0.44,1.066-0.44h11.417
		c0.423,0,0.777,0.146,1.069,0.44c0.291,0.288,0.437,0.646,0.437,1.063v2.008c0,0.252,0.088,0.419,0.255,0.502
		c0.167,0.084,0.334,0,0.502-0.25c1.673-1.673,3.552-2.887,5.646-3.638c2.086-0.755,4.141-1.129,6.148-1.129
		c6.19,0,10.746,2.631,13.676,7.9c0.254,0.339,0.63,0.217,1.131-0.374c1.673-2.677,3.783-4.6,6.335-5.774
		c2.549-1.167,5.125-1.752,7.719-1.752C61.278,188.187,65.398,190.086,68.203,193.892z"/>
	<path d="M80.554,249.446c-0.295-0.295-0.442-0.648-0.442-1.066v-40.556c0-0.419,0.147-0.776,0.442-1.064
		c0.295-0.294,0.649-0.44,1.066-0.44h11.545c0.419,0,0.77,0.146,1.065,0.44c0.293,0.288,0.44,0.646,0.44,1.064v40.556
		c0,0.418-0.147,0.771-0.44,1.066c-0.295,0.296-0.646,0.443-1.065,0.443H81.62C81.203,249.889,80.849,249.742,80.554,249.446z"/>
	<path fill="#FFFFFF" d="M132.307,270.449c-0.295-0.295-0.439-0.649-0.439-1.07v-12.011c0-0.413,0.144-0.771,0.439-1.063
		c0.295-0.295,0.649-0.442,1.07-0.442h11.541c0.423,0,0.773,0.147,1.068,0.442c0.292,0.291,0.438,0.649,0.438,1.063v12.011
		c0,0.421-0.146,0.775-0.438,1.07c-0.295,0.295-0.646,0.439-1.068,0.439h-11.541C132.956,270.888,132.602,270.744,132.307,270.449z"
		/>
	<path fill="#FFFFFF" d="M142.222,210.774c2.805,3.634,4.202,8.802,4.202,15.497v22.108c0,0.418-0.146,0.771-0.438,1.066
		c-0.295,0.296-0.646,0.443-1.068,0.443h-11.541c-0.421,0-0.775-0.147-1.066-0.443c-0.295-0.295-0.439-0.648-0.439-1.066v-20.982
		c0-3.008-0.628-5.352-1.883-7.028c-1.254-1.673-3.055-2.509-5.396-2.509c-2.429,0-4.308,0.883-5.646,2.637
		c-1.338,1.759-2.007,4.188-2.007,7.277v41.16c0,0.418-0.148,0.772-0.441,1.067c-0.295,0.293-0.649,0.44-1.065,0.44h-11.544
		c-0.417,0-0.775-0.147-1.067-0.44c-0.295-0.295-0.442-0.649-0.442-1.067v-61.11c0-0.419,0.147-0.776,0.442-1.064
		c0.292-0.294,0.649-0.44,1.067-0.44h11.544c0.416,0,0.77,0.146,1.065,0.44c0.293,0.288,0.441,0.646,0.441,1.064v2.51
		c0,0.246,0.104,0.394,0.314,0.44c0.207,0.04,0.439-0.106,0.689-0.44c2.844-3.346,6.817-5.019,11.922-5.019
		C135.298,205.315,139.419,207.135,142.222,210.774z"/>
	<path fill="#FFFFFF" d="M154.135,373.477v-191.41c0-0.417,0.145-0.775,0.439-1.063c0.295-0.295,0.649-0.442,1.066-0.442h11.545
		c0.419,0,0.777,0.147,1.064,0.442c0.293,0.288,0.441,0.646,0.441,1.063v191.41H154.135z"/>
	<path fill="#FFFFFF" d="M216.242,210.774c2.805,3.634,4.202,8.802,4.202,15.497v42.663c0,0.418-0.147,0.772-0.436,1.067
		c-0.293,0.293-0.651,0.44-1.07,0.44h-11.541c-0.421,0-0.777-0.147-1.066-0.44c-0.295-0.295-0.439-0.649-0.439-1.067v-41.537
		c0-3.008-0.63-5.352-1.883-7.028c-1.256-1.673-3.055-2.509-5.396-2.509c-2.425,0-4.309,0.883-5.646,2.637
		c-1.339,1.759-2.008,4.188-2.008,7.277v41.16c0,0.418-0.147,0.772-0.438,1.067c-0.293,0.293-0.651,0.44-1.066,0.44h-11.549
		c-0.417,0-0.773-0.147-1.063-0.44c-0.296-0.295-0.439-0.649-0.439-1.067v-61.11c0-0.419,0.144-0.776,0.439-1.064
		c0.289-0.294,0.646-0.44,1.063-0.44h11.549c0.415,0,0.773,0.146,1.066,0.44c0.291,0.288,0.438,0.646,0.438,1.064v2.51
		c0,0.246,0.101,0.394,0.315,0.44c0.206,0.04,0.437-0.106,0.688-0.44c2.844-3.346,6.817-5.019,11.923-5.019
		C209.318,205.315,213.439,207.135,216.242,210.774z"/>
	<path fill="#FFFFFF" d="M234.117,242.75c-3.974-3.641-5.962-8.599-5.962-14.871v-1.237c0-6.102,2.012-11.02,6.026-14.746
		c4.013-3.721,9.449-5.58,16.312-5.58c6.945,0,12.424,1.859,16.438,5.58c4.016,3.727,6.021,8.645,6.021,14.746v1.237
		c0,6.272-1.986,11.23-5.962,14.871c-3.974,3.636-9.474,5.456-16.498,5.456C243.548,248.206,238.089,246.385,234.117,242.75z
		 M256.2,233.147c1.465-1.673,2.196-3.806,2.196-6.397v1.023c0-2.595-0.731-4.728-2.196-6.404c-1.466-1.673-3.365-2.509-5.707-2.509
		s-4.229,0.816-5.648,2.449c-1.425,1.632-2.134,3.787-2.134,6.464v-1.023c0,2.678,0.709,4.829,2.134,6.459
		c1.419,1.632,3.307,2.448,5.648,2.448S254.734,234.821,256.2,233.147z"/>
	<path fill="#FFFFFF" d="M49.407,168.468c-3.826-3.754-5.74-8.792-5.74-15.112v-44.389c0-6.245,1.914-11.228,5.74-14.951
		c3.821-3.72,8.894-5.58,15.213-5.58c6.386,0,11.49,1.86,15.318,5.58c3.826,3.724,5.74,8.706,5.74,14.951v1.157
		c0,0.354-0.127,0.649-0.367,0.898c-0.249,0.246-0.549,0.367-0.897,0.367l-12.318,0.529c-0.842,0-1.265-0.389-1.265-1.16v-2.738
		c0-2.036-0.561-3.682-1.686-4.947c-1.124-1.265-2.63-1.897-4.525-1.897c-1.828,0-3.303,0.633-4.423,1.897s-1.682,2.911-1.682,4.947
		v46.602c0,2.038,0.562,3.669,1.682,4.895c1.121,1.232,2.595,1.844,4.423,1.844c1.896,0,3.401-0.612,4.525-1.844
		c1.125-1.225,1.686-2.856,1.686-4.895v-2.842c0-0.353,0.121-0.647,0.369-0.894c0.249-0.248,0.542-0.369,0.896-0.369l12.318,0.525
		c0.843,0,1.264,0.385,1.264,1.158v1.157c0,6.319-1.934,11.357-5.794,15.112c-3.86,3.754-8.945,5.634-15.264,5.634
		C58.301,174.102,53.228,172.222,49.407,168.468z"/>
	<path d="M94.557,192.183c-0.247-0.244-0.369-0.545-0.369-0.892V55.025c0-0.351,0.122-0.647,0.369-0.896
		c0.241-0.245,0.542-0.369,0.894-0.369h12.316c0.353,0,0.649,0.124,0.897,0.369c0.245,0.249,0.367,0.545,0.367,0.896v124.262
		c0,0.348,0.174,0.525,0.525,0.525h35.815c0.35,0,0.649,0.123,0.895,0.367c0.244,0.245,0.366,0.545,0.366,0.894v10.217
		c0,0.347-0.122,0.647-0.366,0.892c-0.245,0.245-0.545,0.369-0.895,0.369H95.451C95.099,192.552,94.798,192.428,94.557,192.183z"/>
	<path fill="#FFFFFF" d="M122.478,165.464c-3.824-3.965-5.734-9.246-5.734-15.844v-17.229c0-0.354,0.121-0.649,0.369-0.896
		c0.245-0.248,0.542-0.369,0.892-0.369h12.322c0.347,0,0.646,0.121,0.894,0.369c0.243,0.247,0.367,0.542,0.367,0.896v18.7
		c0,2.249,0.56,4.072,1.684,5.474c1.124,1.405,2.596,2.106,4.421,2.106c1.827,0,3.282-0.702,4.369-2.106
		c1.09-1.401,1.634-3.225,1.634-5.474v-18.7c0-0.354,0.12-0.649,0.366-0.896c0.249-0.248,0.547-0.369,0.897-0.369h12.316
		c0.354,0,0.649,0.121,0.898,0.369c0.244,0.247,0.368,0.542,0.368,0.896v17.229c0,6.598-1.914,11.879-5.741,15.844
		c-3.824,3.968-8.859,5.948-15.108,5.948C131.377,171.413,126.304,169.432,122.478,165.464z"/>
	<path d="M167.515,169.214c-0.349,0-0.649-0.124-0.897-0.369c-0.245-0.245-0.369-0.545-0.369-0.892v-10.217
		c0-0.349,0.124-0.649,0.369-0.894c0.248-0.243,0.549-0.367,0.897-0.367h37.588c0.349,0,0.649,0.124,0.894,0.367
		c0.243,0.245,0.367,0.545,0.367,0.894v10.217c0,0.347-0.124,0.647-0.367,0.892c-0.244,0.245-0.545,0.369-0.894,0.369H167.515z"/>
	<path d="M1.261,257.379c-0.347,0-0.649-0.125-0.894-0.369C0.124,256.766,0,256.465,0,256.118v-10.217
		c0-0.349,0.124-0.649,0.367-0.895c0.245-0.244,0.547-0.366,0.894-0.366h40.815c0.351,0,0.647,0.122,0.896,0.366
		c0.249,0.245,0.369,0.546,0.369,0.895v10.217c0,0.348-0.12,0.648-0.369,0.893c-0.248,0.244-0.545,0.369-0.896,0.369H1.261z"/>
	<path d="M229.416,268.602c-0.347,0-0.648-0.123-0.894-0.367c-0.243-0.245-0.367-0.545-0.367-0.895v-10.217
		c0-0.348,0.124-0.647,0.367-0.893c0.245-0.244,0.547-0.368,0.894-0.368h42.905c0.351,0,0.649,0.124,0.896,0.368
		c0.249,0.245,0.369,0.545,0.369,0.893v10.217c0,0.35-0.12,0.649-0.369,0.895c-0.246,0.244-0.545,0.367-0.896,0.367H229.416z"/>
	<path fill="#FFFFFF" d="M202.681,109.637c-3.936-3.513-9.019-5.267-15.268-5.267l-2.002-0.05h-3.787
		c-0.354,0-0.528-0.176-0.528-0.525V84.693c0-0.347-0.124-0.649-0.367-0.894c-0.248-0.243-0.547-0.371-0.897-0.371h-12.316
		c-0.356,0-0.649,0.128-0.897,0.371c-0.248,0.245-0.369,0.547-0.369,0.894v65.168c0,0.351,0.121,0.649,0.369,0.896
		c0.248,0.245,0.541,0.369,0.897,0.369h19.898c6.249,0,11.332-1.754,15.268-5.265c3.927-3.509,5.896-8.532,5.896-15.056v-6.114
		C208.576,118.163,206.607,113.143,202.681,109.637z M191.729,135.75c-1.333,1.685-3.159,2.529-5.475,2.529h-4.63
		c-0.354,0-0.528-0.174-0.528-0.529v-18.74c0-0.349,0.174-0.525,0.528-0.525h4.738c2.245,0,4.033,0.912,5.366,2.74
		c1.334,1.824,2,4.281,2,7.366C193.729,131.683,193.063,134.068,191.729,135.75z"/>
	<path d="M156.842,101.541l-12.041,12.043h-14.322l-12.043-12.043c-0.93-0.93-1.692-0.615-1.692,0.703v12.601v3.022v7.191
		c0,0.353,0.121,0.649,0.369,0.898c0.245,0.245,0.542,0.367,0.892,0.367h39.271c0.354,0,0.649-0.122,0.898-0.367
		c0.246-0.249,0.368-0.545,0.368-0.898v-7.191v-3.022v-12.601C158.542,100.925,157.779,100.61,156.842,101.541z M120.535,114.812
		v-6.209l4.854,5.29L120.535,114.812z M154.752,114.812l-4.854-0.919l4.854-5.29V114.812z"/>
</g>
</svg>
