<?xml version="1.0" encoding="utf-8"?>
<!-- Generator: Adobe Illustrator 16.0.0, SVG Export Plug-In . SVG Version: 6.00 Build 0)  -->
<!DOCTYPE svg PUBLIC "-//W3C//DTD SVG 1.1//EN" "http://www.w3.org/Graphics/SVG/1.1/DTD/svg11.dtd">
<svg version="1.1" id="Capa_1" xmlns="http://www.w3.org/2000/svg" xmlns:xlink="http://www.w3.org/1999/xlink" x="0px" y="0px"
	 width="19.25px" height="24.583px" viewBox="0 0 19.25 24.583" enable-background="new 0 0 19.25 24.583" xml:space="preserve">
<g>
	<g>
		<path fill="#8DD333" d="M9.478,24.213l-1.54-0.67c-4.647-2.031-7.652-6.619-7.656-11.689V4.303l9.221-3.933l9.465,3.925v7.44
			c-0.001,5.148-3.068,9.762-7.814,11.753L9.478,24.213z M2.282,5.625v6.229c0.003,4.275,2.538,8.144,6.456,9.856l0.743,0.324
			l0.889-0.385c4.011-1.683,6.597-5.572,6.598-9.913V5.632L9.513,2.541L2.282,5.625z"/>
	</g>
	<g>
		<polygon fill="#8DD333" points="8.407,16.518 5.446,13.557 6.86,12.143 8.407,13.689 13.017,9.08 14.431,10.494 		"/>
	</g>
</g>
</svg>
