<?xml version="1.0" encoding="utf-8"?>
<!-- Generator: Adobe Illustrator 24.0.1, SVG Export Plug-In . SVG Version: 6.00 Build 0)  -->
<svg version="1.1" id="Capa_1" xmlns="http://www.w3.org/2000/svg" xmlns:xlink="http://www.w3.org/1999/xlink" x="0px" y="0px"
	 viewBox="0 0 345.87 272.14" style="enable-background:new 0 0 345.87 272.14;" xml:space="preserve">
<style type="text/css">
	.st0{fill:#FFFFFF;}
</style>
<g>
	<g>
		<path class="st0" d="M156.31,78.1c0,0,1.4-0.65,2.05-1.3c2.05-0.65,7.35,0,8.66,0.65c0.65,0.65,0.65,2.61,0.65,9.31
			c0,7.35,0.09,7.35,5.4,7.35c6.7,0.65,8.66,1.3,6.61,3.35c-0.65,0.65-2.61,1.3-6.61,1.3c-6.05,0.65-6.05,0.65-5.4,8
			c0.65,12.01,5.81,38.73,6.46,40.78c0.65,0.65,2.05,2.05,3.35,2.7c3.35,2.05,4,3.35,0.65,4.65c-4.65,2.05-12.66,0.65-16-2.7
			c-2.7-2.05-7.86-20.03-9.16-36.03c-0.65-14.05-0.56-14.05-2.61-14.05c-2.05,0-4.65-1.3-4.65-2.61c0.65-1.3,2.61-2.7,5.3-2.7
			c2.05,0,2.05,0,2.7-3.35C154.36,88.15,155.67,79.4,156.31,78.1z"/>
	</g>
	<g>
		<path class="st0" d="M199.28,97.64c0.47-2.61,0.47-2.98,2.61-3.44c1.77-0.84,7.07-0.84,9.21,0c2.14,0.47,2.61,1.76,2.14,4.37
			c-0.47,5.68,0,23.92,1.77,32.67c0.47,2.14,0.47,4.38,0.47,4.84c-0.47,2.14-3.54,2.98-6.61,1.67c-1.3-0.84-1.77-1.77-2.6-8.28
			c-0.84-4.37,0.37-12.93-2.7-2.7c-1.95,5.21-6.89,8.84-13.4,8.38c-10.89,0.75-12.38-11.72-11.82-18.71
			c1.21-16.29,3.91-18.52,4.75-19.36c3.07-1.77,6.14-0.38,6.6,3.07c0,0.84-1.21,8.65-1.67,13.49c-0.47,7.82-0.28,7.54,0.19,11.36
			c0.46,1.77,1.58,4.1,3.81,3.63c1.3-1.77,2.89-8.28,4.19-13.5C197.51,107.69,198.82,100.71,199.28,97.64z"/>
	</g>
	<g>
		<path class="st0" d="M38.16,116.89c3.55-3.68,6.13-3.37,8.29-3.74c4.45-0.75,7.58,1.29,8.24,3.77c0.34,1.27,0.49,2.25,1.58,1.4
			c9.41-7.31,11.25,1.71,12.48,2.41c1.48,0.83,3.57,15.2,5.99,16.41c1.5,0.75,2.03-0.15,3.3-2.67c1.27-2.52,6.39-16.7,8.75-18.24
			c5.69-3.7,12.86-1.08,14.98,0.89c3.09,2.87,5.68,9.49,6.84,19.81c1.71,15.21,6.39,55.52,6.95,60.28
			c1.66,14.17,1.36,17.28-2.63,19.37c-5.58,2.92-15.62,1.77-16.86-0.56c-1.74-3.28-1.36-13.13-1.87-17.33
			c-0.43-3.53-4.33-62.25-4.92-64.16c-0.4-1.32-1.25-0.49-1.78,0.73c-4.54,10.64-8.07,20.1-8.4,20.25
			c-1.39,0.61-8.38,4.46-11.69,1.16c-3.32-3.3-4.23-14.66-6.01-21.56c-1.59-6.19-1.47-6.22-2.62-3.22c-1.15,3-1.08,3.81-0.85,13.12
			c0.34,13.73-0.54,86.28-0.98,87.84c-1.81,6.52-15.36,8.91-18.64,8.01c-3.73-1.03-4.68-3.88-4.36-25.93
			c0.16-11.21,0.72-31.78,1.25-47.39c1.18-34.46,1.09-31.31,1.07-40.62C36.27,119.64,36.5,118.61,38.16,116.89z"/>
	</g>
	<g>
		<path class="st0" d="M120.35,167.16c0.95-14.06,3.37-14.99,4.96-16.03c2.38-1.56,8.02-1.38,9.51,0.34
			c3.15,3.63,4.45,12.43,3.19,35.26c-0.2,3.59-0.13,14.01,0.18,23.42c0.48,14.79,0.3,16.44-1,17.72
			c-7.19,7.05-14.71-0.42-16.45-5.57C118.7,216.21,118.58,193.36,120.35,167.16z M121.22,129.85c0.95-7.26,6.08-7.04,9.3-6.89
			c3.89,0.18,4.86-0.1,6.07,1.84c1.55,2.48,1.34,9.54-0.53,11.76c-2.35,2.78-10.43,2.24-13.97-0.53
			C121.02,135.18,120.86,132.54,121.22,129.85z"/>
	</g>
	<g>
		<path class="st0" d="M143.23,155.61c0.19-0.46,1.62-0.99,2.59-1.06c2.68-0.19,8.52,0.84,11,2.26c2.23,1.28,3.72,8.32,5.08,20.67
			c0.57,5.14,0.65,5.16,1.9,2.42c1.86-4.06,6.69-7.78,9.7-8.81c4.97-1.7,11.5,0.42,14.16,4.96c2.77,4.72,3.49,11.56,3.86,28.29
			c0.36,16.09,0.28,17.53-3.14,18.75c-3.64,1.3-12.36-0.36-14.29-3.4c-1.74-2.76,1.36-21.91,1.56-28.28
			c0.35-11.2,0.34-12.27-0.94-10.67c-2.01,2.51-11.57,18.5-12.36,20.38c-0.53,1.27-0.57,7.24-0.6,14.54
			c-0.05,13.19-6.32,14.43-12.03,14.11c-6.16-0.34-8.93,3.56-7.97-38.27C142.17,172.81,143,156.17,143.23,155.61z"/>
	</g>
	<g>
		<path class="st0" d="M195.76,179.34c0.71-12.48,3.1-13.13,4.69-13.97c2.31-1.22,7.99-0.76,9.5,0.83
			c3.24,3.41,4.66,11.29,3.78,31.56c-0.14,3.18,0.12,12.5,0.59,20.88c0.73,13.16,0.52,14.7-0.7,15.77
			c-7.15,6.27-14.73-1.05-16.53-5.74C194.92,223.05,194.44,202.48,195.76,179.34z M197.49,146.03c0.83-6.4,5.94-5.81,9.16-5.49
			c3.89,0.39,4.84,0.14,6.09,1.95c1.57,2.26-0.03,8.61-1.8,10.46c-2.3,2.4-10.35,1.47-13.94-1.3
			C195.88,150.78,197.19,148.39,197.49,146.03z"/>
	</g>
	<g>
		<path class="st0" d="M219.87,170.24c0.17-0.39,1.58-0.89,2.57-0.97c2.72-0.21,8.52,0.56,11,1.71c2.28,1.06,3.86,7.22,5.43,18.07
			c0.65,4.51,0.74,4.53,1.94,2.03c1.79-3.72,6.51-7.35,9.52-8.54c4.96-1.96,11.49-0.77,14.21,2.88c2.79,3.75,3.68,9.74,4.36,24.44
			c0.65,14.06,0.64,15.43-2.79,16.99c-3.66,1.67-12.35,1.14-14.32-1.36c-1.79-2.27,0.96-19.54,1.05-25.16
			c0.15-9.93,0.11-10.87-1.12-9.35c-2,2.46-11.23,17.32-11.97,19.01c-0.51,1.16-0.45,6.45-0.35,12.92
			c0.18,11.7-5.93,13.19-11.77,13.1c-6.24-0.1-8.86,3.35-8.62-33.85C219.11,185.52,219.66,170.73,219.87,170.24z"/>
	</g>
	<g>
		<path class="st0" d="M334.19,185.01c-1.24-0.96-5.84-0.74-13.11,7.77c-2.06,2.42-4.99,5.8-7.23,6.38c-1.35,0.35-1.92-0.4,0.1-4.75
			c1.62-3.5,2.06-4.76,2.11-7.66c0.09-4.98-1.78-9.69-4.89-12.94c-0.79-0.82,3.53-10.08,2.41-10.09c-5.52-0.04-8.04,6.69-9.1,6.31
			c-6.07-2.17-10.45-2.02-16.78,1.26c-1.15,0.6-0.67-8.22-1.84-7.52c-4.35,2.6-4.39,11.34-5.23,12.03c-1.84,1.5-3.63,3.24-5.35,5.22
			c-3.71,4.26-8.64,15.34-8.7,20.22c-0.13,10.69,8.34,16.11,15.15,17.71c6.8,1.59,11.02,1.55,17.31-0.01
			c7.67-1.9,14.77-6.28,18.91-12.76c2.49-3.9,2.94-9.02,5.66-12.56c3.47-4.53,7.74-3.44,9.89-4.79
			C334.9,187.95,335.67,186.16,334.19,185.01z M290.4,202.95c-3.86,0-5.09-8-5.09-11.86c0-3.86,3.13-10.22,6.99-10.22
			c3.86,0,7,6.35,7,10.22C299.29,194.95,294.26,202.95,290.4,202.95z"/>
	</g>
</g>
<path class="st0" d="M20.41,97.61c0-0.01,0,0.05-0.01,0.06c-0.01,0.01-0.03,0.02-0.04,0.1c-0.03,0.13-0.07,0.37-0.11,0.68
	c-0.07,0.63-0.15,1.57-0.16,2.73c-0.01,2.3,0.29,5.45,1.38,8.38c0.28,0.73,0.58,1.46,0.96,2.13c0.36,0.69,0.78,1.34,1.22,1.95
	c0.45,0.61,0.94,1.16,1.44,1.67c0.51,0.49,1.02,0.95,1.53,1.33c0.5,0.4,1.01,0.7,1.46,0.99c0.46,0.25,0.87,0.49,1.22,0.66
	c0.71,0.32,1.12,0.51,1.12,0.51s-0.45,0-1.25,0c-0.4-0.01-0.88-0.06-1.45-0.11c-0.55-0.09-1.2-0.16-1.89-0.34
	c-0.7-0.15-1.44-0.39-2.23-0.68c-0.78-0.3-1.59-0.67-2.41-1.13c-0.81-0.46-1.63-0.99-2.42-1.61c-0.8-0.6-1.55-1.29-2.27-2.01
	c-2.9-2.91-4.98-6.51-6.25-9.33c-0.64-1.41-1.09-2.64-1.38-3.54c-0.15-0.46-0.26-0.82-0.33-1.1c-0.07-0.3-0.11-0.47-0.11-0.47
	c-0.25-3.3,2.23-6.19,5.53-6.43S20.16,94.3,20.41,97.61z"/>
<path class="st0" d="M129.13,84.32c0.01-0.02-0.08,0.11-0.15,0.15c-0.07,0.05-0.17,0.11-0.34,0.31c-0.33,0.34-0.8,0.92-1.33,1.65
	c-0.24,0.37-0.55,0.77-0.8,1.22c-0.27,0.44-0.55,0.92-0.8,1.43c-0.28,0.51-0.48,1.04-0.73,1.6c-0.22,0.56-0.4,1.13-0.57,1.73
	c-0.1,0.58-0.32,1.21-0.34,1.8c-0.06,0.6-0.14,1.23-0.09,1.81c0.01,0.3,0.02,0.6,0.03,0.89c0.03,0.29,0.1,0.56,0.15,0.84
	c0.1,0.56,0.2,1.11,0.4,1.57c0.18,0.47,0.33,0.94,0.5,1.33c0.21,0.38,0.39,0.7,0.54,0.97c0.32,0.56,0.5,0.87,0.5,0.87
	s-0.31-0.19-0.86-0.51c-0.28-0.17-0.63-0.38-1.02-0.62c-0.37-0.27-0.76-0.62-1.21-1c-0.48-0.36-0.88-0.84-1.33-1.37
	c-0.22-0.26-0.47-0.53-0.69-0.83c-0.2-0.31-0.4-0.63-0.61-0.95c-0.45-0.65-0.77-1.37-1.12-2.13c-0.38-0.76-0.57-1.56-0.85-2.38
	c-0.21-0.81-0.4-1.65-0.54-2.48c-0.11-0.82-0.24-1.66-0.27-2.45c-0.06-0.8-0.07-1.57-0.06-2.31c-0.01-0.74,0.06-1.43,0.1-2.08
	c0.12-1.29,0.27-2.37,0.44-3.15c0.06-0.37,0.17-0.75,0.24-1c0.07-0.26,0.06-0.28,0.07-0.3c1.48-2.96,5.09-4.17,8.05-2.68
	C129.41,77.75,130.61,81.36,129.13,84.32z"/>
<path class="st0" d="M72.66,226.77c0,0,0.01,0.03,0.03,0.08c0.01,0.03,0.03,0.06,0.04,0.1c0.02,0.07,0.05,0.14,0.08,0.23
	c0.06,0.18,0.13,0.39,0.21,0.65c0.06,0.21,0.13,0.44,0.2,0.71c0.15,0.54,0.26,1.16,0.4,1.89c0.08,0.73,0.2,1.55,0.22,2.45
	c0.05,0.9,0,1.89-0.09,2.92c-0.02,0.52-0.15,1.05-0.23,1.59c-0.11,0.54-0.17,1.1-0.36,1.65c-0.17,0.55-0.34,1.11-0.51,1.68
	c-0.18,0.56-0.46,1.11-0.7,1.66c-0.45,1.13-1.15,2.16-1.8,3.18c-0.68,1.01-1.52,1.89-2.29,2.76c-0.86,0.78-1.72,1.52-2.58,2.17
	c-0.92,0.56-1.81,1.06-2.67,1.49c-0.87,0.39-1.74,0.63-2.53,0.86c-0.39,0.11-0.77,0.2-1.13,0.29c-0.36,0.08-0.72,0.09-1.05,0.13
	c-0.67,0.03-1.24,0.09-1.72,0.07c-0.95,0.01-1.5-0.07-1.5-0.07c-0.84-0.13-1.42-0.91-1.29-1.76c0.03-0.19,0.09-0.36,0.17-0.51
	l0.08-0.15c0,0,0.27-0.49,0.77-1.2c0.24-0.37,0.55-0.75,0.88-1.22c0.36-0.42,0.7-0.95,1.06-1.49c0.36-0.55,0.79-1.05,1.17-1.62
	c0.35-0.59,0.73-1.17,1.13-1.72c0.32-0.6,0.65-1.19,1.01-1.75c0.22-0.64,0.56-1.19,0.75-1.8c0.18-0.62,0.42-1.18,0.51-1.79
	c0.16-0.58,0.22-1.18,0.31-1.75c0.08-0.57,0.09-1.14,0.13-1.67c0-0.54,0.03-1.05,0-1.53c0.02-0.48-0.04-0.91-0.06-1.3
	c-0.03-0.37-0.04-0.73-0.08-0.97c-0.01-0.13-0.02-0.24-0.02-0.34c0-0.05,0-0.08,0.01-0.12c0-0.02,0.01-0.03,0.01-0.04
	c-0.01-0.04-0.01-0.07-0.02-0.1c-0.01-0.06-0.01-0.08-0.01-0.08l-0.01-0.07c-0.57-3.29,1.63-6.42,4.92-6.99
	C68.89,222.8,71.56,224.31,72.66,226.77z"/>
<path class="st0" d="M257.42,101.57c0,0,0.02,0.02,0.07,0.05c0.02,0.02,0.05,0.04,0.08,0.07c0.05,0.05,0.11,0.11,0.18,0.17
	c0.13,0.13,0.29,0.29,0.48,0.48c0.15,0.16,0.31,0.34,0.5,0.54c0.37,0.42,0.76,0.92,1.21,1.51c0.4,0.61,0.88,1.29,1.31,2.09
	c0.46,0.78,0.85,1.68,1.24,2.65c0.22,0.47,0.35,1.01,0.51,1.53c0.15,0.53,0.35,1.06,0.43,1.63c0.1,0.57,0.2,1.15,0.31,1.73
	c0.09,0.58,0.09,1.2,0.13,1.8c0.11,1.21-0.05,2.44-0.17,3.65c-0.15,1.21-0.5,2.37-0.79,3.5c-0.41,1.09-0.84,2.14-1.32,3.11
	c-0.56,0.91-1.14,1.77-1.71,2.54c-0.6,0.75-1.27,1.35-1.87,1.91c-0.3,0.28-0.6,0.53-0.88,0.77c-0.28,0.23-0.6,0.41-0.88,0.59
	c-0.59,0.33-1.06,0.63-1.5,0.84c-0.84,0.44-1.37,0.61-1.37,0.61c-0.81,0.27-1.68-0.17-1.95-0.98c-0.06-0.18-0.08-0.36-0.08-0.54
	l0.01-0.17c0,0,0.02-0.56,0.14-1.42c0.04-0.44,0.15-0.92,0.24-1.49c0.13-0.54,0.2-1.16,0.28-1.81c0.07-0.65,0.23-1.3,0.31-1.98
	c0.04-0.69,0.12-1.37,0.23-2.05c0.02-0.69,0.04-1.36,0.11-2.02c-0.09-0.67-0.04-1.32-0.15-1.95c-0.12-0.63-0.16-1.24-0.36-1.83
	c-0.12-0.59-0.34-1.15-0.52-1.7c-0.19-0.54-0.43-1.06-0.64-1.55c-0.25-0.48-0.45-0.95-0.69-1.36c-0.2-0.44-0.45-0.79-0.64-1.13
	c-0.2-0.32-0.37-0.63-0.51-0.83c-0.07-0.11-0.12-0.21-0.18-0.3c-0.02-0.04-0.03-0.08-0.05-0.11c0-0.02-0.01-0.03-0.01-0.04
	c-0.02-0.03-0.04-0.06-0.06-0.08c-0.03-0.04-0.05-0.07-0.05-0.07l-0.04-0.06c-2-2.67-1.45-6.46,1.22-8.46
	C252.26,99.74,255.32,99.87,257.42,101.57z"/>
<path class="st0" d="M56.21,16.64c0,0-0.02,0.01-0.06,0.03c-0.02,0.01-0.04,0.02-0.07,0.04c-0.05,0.03-0.1,0.06-0.16,0.1
	c-0.12,0.08-0.26,0.18-0.44,0.3c-0.13,0.1-0.29,0.21-0.46,0.34c-0.34,0.26-0.71,0.59-1.14,0.97c-0.39,0.41-0.86,0.85-1.3,1.4
	c-0.46,0.53-0.89,1.15-1.33,1.83c-0.23,0.33-0.41,0.71-0.61,1.09c-0.19,0.38-0.42,0.75-0.56,1.18c-0.16,0.42-0.32,0.84-0.48,1.27
	c-0.16,0.43-0.24,0.9-0.36,1.35c-0.26,0.9-0.32,1.86-0.4,2.8c-0.06,0.94,0.03,1.87,0.09,2.78c0.15,0.89,0.33,1.75,0.55,2.55
	c0.3,0.78,0.61,1.51,0.93,2.18c0.35,0.65,0.77,1.21,1.14,1.72c0.19,0.26,0.38,0.49,0.56,0.71c0.18,0.22,0.4,0.4,0.58,0.57
	c0.4,0.34,0.72,0.64,1.02,0.86c0.57,0.45,0.95,0.66,0.95,0.66c0.58,0.32,1.3,0.11,1.62-0.46c0.07-0.13,0.12-0.26,0.14-0.4l0.02-0.13
	c0,0,0.07-0.43,0.1-1.1c0.03-0.34,0.02-0.72,0.04-1.16c-0.02-0.43,0.02-0.91,0.05-1.41c0.04-0.5,0.01-1.02,0.05-1.55
	c0.07-0.53,0.11-1.06,0.13-1.59c0.09-0.52,0.17-1.04,0.21-1.55c0.17-0.49,0.22-0.99,0.4-1.46c0.18-0.46,0.3-0.92,0.54-1.34
	c0.17-0.43,0.42-0.83,0.64-1.21c0.22-0.39,0.48-0.74,0.71-1.08c0.26-0.33,0.48-0.66,0.73-0.93c0.21-0.3,0.46-0.54,0.65-0.77
	c0.2-0.21,0.37-0.42,0.51-0.56c0.07-0.08,0.13-0.14,0.18-0.2c0.02-0.03,0.04-0.05,0.05-0.08c0.01-0.01,0.01-0.02,0.02-0.03
	c0.02-0.02,0.04-0.04,0.06-0.05c0.03-0.03,0.05-0.04,0.05-0.04l0.04-0.04c1.91-1.74,2.04-4.7,0.3-6.61
	C60.4,16,58.05,15.66,56.21,16.64z"/>
<path class="st0" d="M336.54,208.56c0,0.02,0.01-0.01,0.01,0.16c0,0.13,0.01,0.31,0.01,0.56c0,0.42,0,0.98-0.04,1.67
	c-0.09,1.38-0.36,3.29-1.04,5.5c-0.36,1.1-0.77,2.28-1.36,3.48c-0.56,1.21-1.26,2.44-2.09,3.66c-0.82,1.22-1.81,2.39-2.88,3.51
	c-0.55,0.54-1.1,1.09-1.71,1.58c-0.59,0.51-1.2,1-1.85,1.43c-1.27,0.89-2.62,1.65-3.97,2.29c-0.69,0.29-1.36,0.58-2.04,0.84
	c-0.69,0.21-1.36,0.44-2.03,0.61c-0.68,0.13-1.33,0.28-1.98,0.39c-0.66,0.07-1.28,0.14-1.9,0.17c-0.62,0.04-1.21,0.02-1.79,0
	c-0.57-0.01-1.13-0.05-1.65-0.14c-1.05-0.13-2-0.33-2.83-0.59c-0.83-0.25-1.54-0.48-2.12-0.77c-0.58-0.26-1.02-0.48-1.32-0.65
	c-0.3-0.16-0.46-0.27-0.46-0.27c-0.06-0.04-0.08-0.13-0.04-0.19c0.01-0.01,0.02-0.02,0.02-0.03c0,0,0.15-0.13,0.42-0.34
	c0.27-0.22,0.66-0.52,1.15-0.86c0.48-0.34,1.05-0.76,1.71-1.23c0.65-0.43,1.35-0.95,2.09-1.46c0.74-0.51,1.5-1.08,2.28-1.63
	c0.38-0.31,0.77-0.56,1.16-0.86c0.37-0.31,0.76-0.59,1.14-0.88c0.75-0.6,1.49-1.2,2.19-1.83c0.67-0.67,1.34-1.3,1.91-2.02
	c2.36-2.74,3.78-5.93,4.7-8.51c0.45-1.28,0.78-2.38,0.99-3.12c0.1-0.34,0.19-0.61,0.24-0.79c0.01-0.04,0.03-0.07,0.04-0.1l0.02,0.01
	c0.01,0.03,0.02-0.08,0.02-0.06c0.13-3.59,3.14-6.39,6.73-6.26C333.87,201.96,336.67,204.98,336.54,208.56z"/>
<path class="st0" d="M208.65,77.1c0,0,0.01-0.01,0.04-0.02c0.01-0.01,0.03-0.01,0.05-0.02c0.05-0.01,0.1-0.03,0.17-0.04
	c0.13-0.03,0.28-0.06,0.46-0.1c0.13-0.03,0.29-0.06,0.46-0.09c0.69-0.1,1.62-0.21,2.74-0.11c0.56,0.04,1.17,0.14,1.8,0.28
	c0.64,0.15,1.3,0.36,1.97,0.64c0.67,0.29,1.34,0.61,1.98,1.05c0.66,0.39,1.24,0.92,1.8,1.43c0.55,0.53,1.02,1.13,1.47,1.7
	c0.39,0.6,0.75,1.21,1.03,1.81c0.23,0.62,0.41,1.22,0.54,1.79c0.11,0.58,0.12,1.13,0.12,1.63c0,0.5-0.06,0.97-0.15,1.37
	c-0.11,0.41-0.19,0.75-0.31,1.04c-0.1,0.29-0.2,0.51-0.28,0.67c-0.07,0.15-0.11,0.23-0.11,0.23c-0.38,0.78-1.3,1.11-2.09,0.78
	l-0.22-0.09c0,0-0.08-0.03-0.23-0.1c-0.16-0.06-0.37-0.16-0.61-0.27c-0.26-0.11-0.51-0.26-0.83-0.41c-0.26-0.17-0.62-0.32-0.95-0.47
	c-0.34-0.15-0.64-0.33-0.96-0.48c-0.34-0.13-0.64-0.27-0.92-0.41c-0.3-0.11-0.58-0.21-0.82-0.33c-0.29-0.04-0.51-0.16-0.76-0.19
	c-0.25-0.03-0.45-0.1-0.68-0.1c-0.21-0.04-0.42-0.04-0.62-0.06c-0.41-0.03-0.8-0.07-1.13-0.09c-0.17-0.02-0.33-0.04-0.47-0.06
	c-0.13-0.02-0.24-0.04-0.33-0.06c-0.04-0.01-0.08-0.02-0.11-0.04c0.02-0.02,0.03-0.03,0.04-0.04l0.02-0.02c-0.02,0-0.04,0-0.06,0
	c-0.03,0-0.05,0-0.05,0l-0.06,0c-3.1-0.1-5.54-2.69-5.44-5.8C205.25,79.84,206.67,77.92,208.65,77.1z"/>
<g>
	<path class="st0" d="M68.92,34.52c0-0.32,0.7-0.7,1.02-1.02c1.02-0.32,3.66-0.32,4.69,0.32c0.65,0.32,1.35,1.02,1.67,2.05
		c0.65,1.35,0.65,2.69,0.65,14.44c0,11.74,0.38,13.41,0.7,16.11c0.65,2.69,0.65,3.02,0.32,3.66c-2.69,2.37-6.68,0.7-7.7-0.32
		c-1.67-1.99-2.05-3.72-2.05-14.11C68.22,44.91,68.6,34.84,68.92,34.52z"/>
	<path class="st0" d="M87.23,49.49c1.35-1.35,4.79-3.5,6.41-4.04c1.89-0.54,2.69-0.54,4.04,0c1.35,0.27,1.08,1.08-0.54,1.35
		c-2.69,0.27-4.79,2.15-7.22,6.95c-4.26,7.97-3.23,11.53-2.69,10.99c5.17-4.69,5.33-8.83,5.87-10.72c1.35-3.77,1.35-3.99,2.42-4.79
		c1.08-1.08,3.23-1.08,4.31-0.27c1.35,0.81,0.65,3.72,0.65,8.03c0,3.5,0.16,8.83,0.43,11.53c0.27,2.15-1.08,2.64-2.96,2.64
		c-3.5,0.27-4.85-0.48-4.58-2.91c0-1.35,0-1.35-1.89,0.27c-2.15,1.89-3.18,2.37-6.14,2.1c-5.44-1.13-5.49-3.99-5.33-6.41
		C80.55,56.44,85.62,50.84,87.23,49.49z"/>
	<path class="st0" d="M120.73,53.21c-1.4-5.82-1.4-7.22,0-7.76c0.81-0.54,3.88-0.54,4.42-0.27c0.27,0.27,0.81,0.86,1.08,1.4
		c0.81,1.08,3.07,7.76,3.61,10.77c0.27,1.4,0.54,2.48,0.54,2.48c0.27,0,0.54-1.13,0.81-2.21c1.08-3.88,3.07-10.5,3.61-11.58
		c1.94-2.53,4.15-0.59,4.15,1.35c0,1.4-3.88,16.59-4.15,17.99c-0.81,4.42-0.81,4.69-2.48,5.49c-5.01,1.4-7.49,0-8.03-1.08
		C123.75,68.13,121,54.88,120.73,53.21z"/>
	<path class="st0" d="M142.33,50.94c0.16-4.74,1.13-5.01,1.89-5.39c0.97-0.75,3.18-0.81,3.77-0.22c1.45,1.08,1.56,3.77,1.4,11.63
		c-0.11,1.24-0.05,4.63,0.16,7.81c0.16,5.01,0.16,5.22-0.32,5.92c-4.47,2.37-5.82,0.05-6.46-1.72
		C141.79,66.94,141.47,59.78,142.33,50.94z M142.49,38.72c0.27-2.48,2.37-2.53,3.66-2.64c1.56-0.11,1.83-0.27,2.42,0.32
		c0.59,0.86,0.54,2.91-0.16,3.93c-1.24,1.08-4.09,1.45-5.55,0.38C142.33,40.5,142.33,39.63,142.49,38.72z"/>
	<path class="st0" d="M163.45,41.73c0-7.33-0.05-11.47,0.59-12.12c0.65-0.32,1.24-0.65,3.18-0.65c3.18,0,3.5,0.32,3.82,3.18
		c0.97,12.44,0.92,22.46,2.21,29.14c1.29,7.33,1.99,7.54,1.67,8.19c-1.29,1.62-4.79,1.94-7,0.65c-0.97-0.65-1.56-1.62-2.21-4.79
		c-0.32-2.21-0.32-2.26-1.29-0.65c-0.97,2.21-2.59,2.69-3.82,2.85c-6.36,1.89-7.97-4.09-8.29-5.39c-0.32-2.21,0.32-5.71,1.29-7.33
		c1.62-2.85,6.36-5.76,8.89-5.76C163.45,48.74,163.45,48.74,163.45,41.73z M163.18,55.47c0.32-1.29,0.27-3.5,0.27-4.15
		c0.32-0.97,0-0.97-1.29-0.32c-3.18,2.21-4.58,5.39-4.74,8.89c-0.11,2.8,1.56,4.79,1.89,4.79C159.94,65,162.85,59.29,163.18,55.47z"
		/>
	<path class="st0" d="M184.08,49.49c1.35-1.35,4.79-3.5,6.41-4.04c1.89-0.54,2.69-0.54,4.04,0c1.35,0.27,1.08,1.08-0.54,1.35
		c-2.69,0.27-4.79,2.15-7.22,6.95c-4.26,7.97-3.23,11.53-2.69,10.99c5.17-4.69,5.33-8.83,5.87-10.72c1.35-3.77,1.35-3.99,2.42-4.79
		c1.08-1.08,3.23-1.08,4.31-0.27c1.35,0.81,0.65,3.72,0.65,8.03c0,3.5,0.16,8.83,0.43,11.53c0.27,2.15-1.08,2.64-2.96,2.64
		c-3.5,0.27-4.85-0.48-4.58-2.91c0-1.35,0-1.35-1.89,0.27c-2.15,1.89-3.18,2.37-6.14,2.1c-5.44-1.13-5.49-3.99-5.33-6.41
		C177.4,56.44,182.46,50.84,184.08,49.49z"/>
	<path class="st0" d="M227.65,41.73c0-7.33-0.05-11.47,0.59-12.12c0.65-0.32,1.24-0.65,3.18-0.65c3.18,0,3.5,0.32,3.82,3.18
		c0.97,12.44,0.92,22.46,2.21,29.14c1.29,7.33,1.99,7.54,1.67,8.19c-1.29,1.62-4.79,1.94-7,0.65c-0.97-0.65-1.56-1.62-2.21-4.79
		c-0.32-2.21-0.32-2.26-1.29-0.65c-0.97,2.21-2.58,2.69-3.82,2.85c-6.36,1.89-7.97-4.09-8.29-5.39c-0.32-2.21,0.32-5.71,1.29-7.33
		c1.62-2.85,6.36-5.76,8.89-5.76C227.65,48.74,227.65,48.74,227.65,41.73z M227.38,55.47c0.32-1.29,0.27-3.5,0.27-4.15
		c0.32-0.97,0-0.97-1.29-0.32c-3.18,2.21-4.58,5.39-4.74,8.89c-0.11,2.8,1.56,4.79,1.88,4.79C224.15,65,227.06,59.29,227.38,55.47z"
		/>
	<path class="st0" d="M243.48,47.39c0.27-0.27,1.4-1.13,2.32-1.4c5.82-2.91,8.13-0.54,9.26,0.92c2.37,2.91,0.54,6.09-4.15,7.54
		c-1.46,0.59-2.16,0.48-2.16,2.85c0.27,2.91,0.92,5.06,2.05,6.79c0.92,1.45,1.83,1.4,3.39,1.24c1.4-0.75,2.96-2.05,2.96,0.27
		c0,2.1-2.96,3.99-5.87,3.99c-3.77,0-5.82-0.59-7.54-2.64C237.83,60.75,242.03,48.68,243.48,47.39z M252.05,49.54
		c0-0.92,0-1.83-0.27-2.1c-0.92-1.13-2.75-0.86-3.34,0.59c-0.27,0.59-0.54,3.72-0.27,4.63c0.27,0.27,1.02,0.32,1.62,0.05
		C251.51,51.81,252.05,51,252.05,49.54z"/>
</g>
<g>
	<path class="st0" d="M259.62,54.19c0.48-3.68,3.08-3.57,4.72-3.49c1.97,0.09,2.46-0.05,3.08,0.93c0.78,1.26,0.68,4.84-0.27,5.96
		c-1.19,1.41-5.29,1.14-7.08-0.27C259.52,56.9,259.44,55.56,259.62,54.19z"/>
</g>
</svg>
