<?xml version="1.0" encoding="utf-8"?>
<!-- Generator: Adobe Illustrator 16.0.0, SVG Export Plug-In . SVG Version: 6.00 Build 0)  -->
<!DOCTYPE svg PUBLIC "-//W3C//DTD SVG 1.1//EN" "http://www.w3.org/Graphics/SVG/1.1/DTD/svg11.dtd">
<svg version="1.1" id="Capa_1" xmlns="http://www.w3.org/2000/svg" xmlns:xlink="http://www.w3.org/1999/xlink" x="0px" y="0px"
	 width="328.138px" height="177.704px" viewBox="0 0 328.138 177.704" enable-background="new 0 0 328.138 177.704"
	 xml:space="preserve">
<g>
	<g>
		<path fill="#FFFFFF" d="M147.884,2.46c0,0,1.4-0.652,2.048-1.303c2.048-0.652,7.354,0,8.658,0.65
			c0.65,0.652,0.65,2.606,0.65,9.307c0,7.352,0.091,7.352,5.396,7.352c6.703,0.652,8.66,1.305,6.61,3.352
			c-0.652,0.65-2.607,1.303-6.61,1.303c-6.046,0.653-6.046,0.653-5.396,8.005c0.651,12.006,5.813,38.733,6.463,40.778
			c0.652,0.652,2.053,2.049,3.349,2.699c3.354,2.047,4.004,3.352,0.653,4.654c-4.652,2.051-12.656,0.649-16.005-2.697
			c-2.701-2.05-7.864-20.026-9.165-36.033c-0.653-14.055-0.56-14.055-2.606-14.055c-2.047,0-4.655-1.305-4.655-2.606
			c0.652-1.303,2.607-2.7,5.304-2.7c2.048,0,2.048,0,2.701-3.349C145.93,12.511,147.235,3.76,147.884,2.46z"/>
	</g>
	<g>
		<path fill="#FFFFFF" d="M190.849,22.005c0.467-2.608,0.467-2.979,2.608-3.444c1.768-0.837,7.074-0.837,9.215,0
			c2.141,0.466,2.606,1.765,2.141,4.373c-0.467,5.679,0,23.921,1.768,32.667c0.465,2.142,0.465,4.377,0.465,4.842
			c-0.465,2.141-3.535,2.977-6.609,1.674c-1.303-0.837-1.77-1.769-2.604-8.284c-0.84-4.372,0.371-12.935-2.701-2.699
			c-1.953,5.214-6.885,8.845-13.401,8.378c-10.888,0.745-12.377-11.725-11.821-18.705c1.211-16.288,3.912-18.522,4.748-19.358
			c3.072-1.771,6.143-0.375,6.605,3.07c0,0.84-1.209,8.651-1.672,13.491c-0.465,7.822-0.277,7.541,0.188,11.358
			c0.463,1.766,1.58,4.097,3.813,3.629c1.303-1.769,2.889-8.284,4.189-13.496C189.082,32.055,190.387,25.076,190.849,22.005z"/>
	</g>
	<g>
		<path fill="#FFFFFF" d="M29.726,41.25c3.55-3.683,6.132-3.374,8.29-3.739c4.455-0.751,7.578,1.291,8.242,3.774
			c0.34,1.27,0.485,2.248,1.582,1.397c9.413-7.314,11.247,1.715,12.484,2.41c1.483,0.83,3.572,15.195,5.995,16.408
			c1.5,0.752,2.028-0.148,3.301-2.672c1.27-2.524,6.387-16.698,8.752-18.238c5.687-3.701,12.857-1.075,14.98,0.891
			c3.094,2.865,5.678,9.486,6.842,19.812c1.712,15.207,6.391,55.519,6.946,60.276c1.659,14.173,1.36,17.283-2.634,19.37
			c-5.578,2.919-15.622,1.77-16.86-0.563c-1.742-3.283-1.357-13.129-1.871-17.325c-0.432-3.528-4.334-62.25-4.921-64.155
			c-0.404-1.315-1.254-0.49-1.776,0.733c-4.542,10.644-8.067,20.104-8.401,20.249c-1.393,0.606-8.376,4.459-11.693,1.16
			c-3.315-3.299-4.234-14.656-6.011-21.558c-1.591-6.187-1.473-6.218-2.624-3.216c-1.15,3.001-1.08,3.813-0.849,13.118
			c0.34,13.727-0.544,86.283-0.976,87.839c-1.805,6.52-15.358,8.915-18.641,8.012c-3.733-1.027-4.677-3.879-4.363-25.934
			c0.158-11.21,0.721-31.779,1.255-47.39c1.178-34.463,1.089-31.308,1.073-40.616C27.838,44.002,28.066,42.974,29.726,41.25z"/>
	</g>
	<g>
		<path fill="#FFFFFF" d="M111.917,91.527c0.945-14.058,3.372-14.99,4.96-16.031c2.384-1.564,8.015-1.379,9.511,0.345
			c3.153,3.633,4.454,12.426,3.19,35.264c-0.199,3.593-0.125,14.013,0.183,23.421c0.485,14.786,0.302,16.442-0.998,17.716
			c-7.189,7.053-14.715-0.419-16.446-5.57C110.269,140.57,110.154,117.719,111.917,91.527z M112.785,54.212
			c0.953-7.26,6.08-7.035,9.299-6.889c3.891,0.178,4.861-0.102,6.07,1.84c1.545,2.479,1.341,9.543-0.527,11.757
			c-2.353,2.782-10.426,2.241-13.965-0.529C112.586,59.548,112.431,56.899,112.785,54.212z"/>
	</g>
	<g>
		<path fill="#FFFFFF" d="M134.803,79.976c0.19-0.457,1.624-0.988,2.593-1.058c2.678-0.19,8.517,0.841,10.997,2.256
			c2.235,1.276,3.719,8.315,5.081,20.667c0.565,5.139,0.649,5.162,1.903,2.424c1.86-4.063,6.691-7.78,9.698-8.813
			c4.971-1.704,11.495,0.42,14.158,4.965c2.768,4.725,3.488,11.559,3.86,28.286c0.356,16.086,0.278,17.529-3.142,18.754
			c-3.639,1.303-12.36-0.359-14.285-3.398c-1.744-2.756,1.361-21.907,1.561-28.275c0.348-11.199,0.34-12.271-0.943-10.67
			c-2.01,2.506-11.57,18.504-12.361,20.378c-0.533,1.266-0.573,7.24-0.602,14.537c-0.053,13.193-6.32,14.427-12.034,14.11
			c-6.16-0.339-8.932,3.558-7.972-38.269C133.742,97.172,134.573,80.537,134.803,79.976z"/>
	</g>
	<g>
		<path fill="#FFFFFF" d="M187.33,103.701c0.715-12.483,3.104-13.134,4.691-13.972c2.307-1.219,7.986-0.763,9.5,0.831
			c3.239,3.413,4.656,11.289,3.777,31.562c-0.137,3.183,0.125,12.495,0.592,20.882c0.73,13.159,0.519,14.695-0.703,15.767
			c-7.152,6.271-14.732-1.055-16.533-5.742C186.494,147.408,186.007,126.848,187.33,103.701z M189.063,70.393
			c0.831-6.402,5.941-5.813,9.157-5.494c3.891,0.386,4.841,0.143,6.092,1.946c1.565,2.258-0.03,8.611-1.805,10.46
			c-2.304,2.398-10.349,1.466-13.942-1.305C187.451,75.14,188.758,72.752,189.063,70.393z"/>
	</g>
	<g>
		<path fill="#FFFFFF" d="M211.441,94.602c0.166-0.388,1.58-0.894,2.572-0.973c2.719-0.21,8.521,0.564,11.002,1.713
			c2.283,1.057,3.863,7.224,5.435,18.074c0.653,4.509,0.739,4.531,1.938,2.033c1.789-3.722,6.514-7.348,9.523-8.537
			c4.959-1.958,11.492-0.773,14.209,2.878c2.791,3.75,3.683,9.738,4.359,24.441c0.646,14.061,0.643,15.428-2.795,16.992
			c-3.66,1.667-12.346,1.139-14.318-1.363c-1.79-2.268,0.965-19.542,1.047-25.158c0.146-9.931,0.114-10.872-1.123-9.35
			c-1.998,2.457-11.229,17.318-11.973,19.006c-0.513,1.161-0.452,6.45-0.353,12.92c0.18,11.696-5.935,13.188-11.77,13.097
			c-6.245-0.101-8.864,3.353-8.623-33.854C210.681,109.888,211.229,95.096,211.441,94.602z"/>
	</g>
	<g>
		<path fill="#FFFFFF" d="M325.76,109.368c-1.238-0.961-5.843-0.736-13.111,7.773c-2.061,2.416-4.99,5.803-7.228,6.377
			c-1.353,0.353-1.923-0.398,0.099-4.752c1.623-3.499,2.062-4.765,2.111-7.66c0.09-4.984-1.776-9.688-4.887-12.943
			c-0.786-0.824,3.529-10.08,2.406-10.088c-5.52-0.037-8.039,6.687-9.099,6.308c-6.069-2.174-10.451-2.021-16.781,1.26
			c-1.151,0.599-0.668-8.222-1.843-7.519c-4.355,2.6-4.388,11.339-5.227,12.026c-1.838,1.501-3.629,3.24-5.354,5.218
			c-3.714,4.259-8.644,15.34-8.699,20.217c-0.125,10.688,8.344,16.11,15.148,17.707c6.803,1.593,11.016,1.552,17.313-0.008
			c7.666-1.898,14.772-6.28,18.912-12.756c2.494-3.901,2.943-9.017,5.658-12.558c3.469-4.528,7.738-3.444,9.893-4.786
			C326.473,112.313,327.242,110.519,325.76,109.368z M281.966,127.314c-3.862,0-5.094-8.002-5.094-11.864
			c0-3.863,3.132-10.217,6.994-10.217s6.995,6.354,6.995,10.217C290.861,119.313,285.828,127.314,281.966,127.314z"/>
	</g>
</g>
<path fill="#FFFFFF" d="M11.983,21.97c0-0.01-0.002,0.051-0.012,0.06c-0.01,0.011-0.027,0.02-0.04,0.104
	c-0.032,0.134-0.067,0.372-0.107,0.682c-0.075,0.626-0.151,1.571-0.156,2.727c-0.01,2.304,0.287,5.45,1.38,8.384
	c0.278,0.726,0.582,1.46,0.956,2.135c0.358,0.693,0.779,1.337,1.221,1.952c0.449,0.607,0.936,1.164,1.435,1.673
	c0.508,0.493,1.02,0.953,1.533,1.331c0.5,0.404,1.013,0.698,1.46,0.991c0.464,0.25,0.873,0.494,1.224,0.658
	C21.592,42.987,22,43.171,22,43.171s-0.453-0.002-1.246-0.005c-0.401-0.008-0.881-0.063-1.449-0.107
	c-0.553-0.089-1.204-0.157-1.89-0.337c-0.698-0.153-1.441-0.389-2.229-0.676c-0.779-0.304-1.594-0.675-2.41-1.132
	c-0.808-0.464-1.634-0.992-2.417-1.606c-0.802-0.6-1.546-1.289-2.274-2.009c-2.898-2.907-4.979-6.513-6.247-9.325
	c-0.638-1.413-1.089-2.641-1.385-3.539c-0.146-0.455-0.255-0.818-0.327-1.096c-0.072-0.305-0.11-0.467-0.11-0.467
	c-0.25-3.305,2.228-6.186,5.532-6.435S11.734,18.665,11.983,21.97z"/>
<path fill="#FFFFFF" d="M120.701,8.685c0.011-0.019-0.084,0.111-0.149,0.154c-0.068,0.048-0.169,0.105-0.343,0.309
	c-0.333,0.345-0.795,0.921-1.33,1.646c-0.239,0.37-0.549,0.774-0.801,1.219c-0.274,0.444-0.553,0.923-0.8,1.431
	c-0.285,0.511-0.484,1.041-0.729,1.604c-0.217,0.557-0.397,1.134-0.574,1.729c-0.103,0.575-0.318,1.209-0.341,1.798
	c-0.062,0.602-0.141,1.227-0.086,1.808c0.011,0.303,0.022,0.602,0.034,0.893c0.029,0.291,0.098,0.562,0.145,0.842
	c0.101,0.556,0.195,1.109,0.397,1.569c0.176,0.474,0.329,0.937,0.499,1.332c0.208,0.376,0.391,0.703,0.541,0.973
	c0.315,0.556,0.496,0.874,0.496,0.874s-0.313-0.186-0.862-0.512c-0.282-0.171-0.625-0.379-1.019-0.617
	c-0.367-0.274-0.756-0.619-1.207-0.997c-0.475-0.363-0.884-0.843-1.33-1.37c-0.22-0.264-0.47-0.531-0.685-0.828
	c-0.199-0.31-0.401-0.625-0.607-0.947c-0.449-0.649-0.772-1.372-1.115-2.132c-0.384-0.759-0.565-1.556-0.852-2.377
	c-0.21-0.813-0.404-1.651-0.54-2.479c-0.11-0.82-0.241-1.659-0.267-2.448c-0.062-0.803-0.07-1.574-0.057-2.309
	c-0.007-0.744,0.064-1.426,0.098-2.078c0.121-1.286,0.273-2.365,0.438-3.15c0.063-0.367,0.17-0.748,0.242-1.001
	c0.073-0.257,0.063-0.282,0.072-0.302c1.482-2.964,5.086-4.165,8.05-2.683S122.183,5.722,120.701,8.685z"/>
<path fill="#FFFFFF" d="M64.228,151.135c0,0,0.012,0.026,0.035,0.078c0.012,0.025,0.026,0.058,0.043,0.096
	c0.024,0.067,0.051,0.145,0.083,0.231c0.057,0.177,0.127,0.395,0.21,0.65c0.059,0.206,0.127,0.442,0.204,0.708
	c0.145,0.54,0.259,1.158,0.4,1.892c0.081,0.729,0.203,1.551,0.223,2.454c0.053,0.9,0.001,1.886-0.09,2.924
	c-0.021,0.518-0.146,1.053-0.234,1.595c-0.108,0.542-0.17,1.098-0.356,1.65c-0.167,0.552-0.337,1.113-0.509,1.681
	c-0.181,0.563-0.461,1.108-0.697,1.664c-0.452,1.125-1.146,2.155-1.801,3.18c-0.682,1.006-1.519,1.888-2.291,2.764
	c-0.858,0.782-1.72,1.524-2.58,2.173c-0.917,0.559-1.813,1.062-2.672,1.487c-0.872,0.393-1.743,0.629-2.529,0.855
	c-0.391,0.114-0.775,0.201-1.131,0.287c-0.36,0.08-0.722,0.09-1.049,0.128c-0.674,0.033-1.235,0.085-1.718,0.07
	c-0.947,0.009-1.498-0.074-1.498-0.074c-0.842-0.128-1.421-0.914-1.293-1.756c0.028-0.186,0.088-0.357,0.173-0.513l0.082-0.146
	c0,0,0.273-0.492,0.77-1.198c0.238-0.372,0.554-0.754,0.884-1.219c0.362-0.417,0.702-0.947,1.065-1.486
	c0.355-0.548,0.792-1.054,1.171-1.623c0.349-0.595,0.728-1.168,1.128-1.723c0.325-0.603,0.653-1.192,1.008-1.752
	c0.22-0.638,0.563-1.189,0.749-1.804c0.176-0.617,0.419-1.182,0.507-1.794c0.164-0.579,0.224-1.18,0.308-1.747
	c0.078-0.569,0.093-1.138,0.131-1.67c-0.002-0.542,0.032-1.049-0.001-1.529c0.021-0.479-0.042-0.912-0.058-1.301
	c-0.031-0.373-0.043-0.727-0.081-0.971c-0.009-0.128-0.017-0.243-0.023-0.343c0-0.051,0.004-0.084,0.008-0.118
	c0.004-0.017,0.007-0.031,0.01-0.044c-0.007-0.04-0.013-0.074-0.018-0.102c-0.01-0.056-0.015-0.084-0.015-0.084l-0.012-0.07
	c-0.572-3.288,1.63-6.416,4.918-6.987C60.458,147.165,63.126,148.671,64.228,151.135z"/>
<path fill="#FFFFFF" d="M248.992,25.932c0,0,0.023,0.018,0.066,0.054c0.021,0.018,0.049,0.04,0.082,0.065
	c0.051,0.049,0.111,0.105,0.179,0.17c0.131,0.131,0.292,0.293,0.481,0.484c0.146,0.156,0.314,0.336,0.502,0.538
	c0.375,0.416,0.756,0.916,1.215,1.506c0.401,0.613,0.883,1.29,1.31,2.087c0.456,0.778,0.854,1.681,1.244,2.646
	c0.216,0.472,0.347,1.006,0.515,1.528c0.148,0.532,0.346,1.056,0.43,1.633c0.101,0.568,0.203,1.146,0.307,1.729
	c0.094,0.583,0.092,1.196,0.133,1.799c0.105,1.208-0.046,2.441-0.166,3.65c-0.152,1.206-0.498,2.371-0.79,3.502
	c-0.411,1.087-0.843,2.139-1.315,3.105c-0.565,0.915-1.136,1.769-1.709,2.537c-0.6,0.745-1.27,1.351-1.867,1.909
	c-0.297,0.279-0.6,0.529-0.879,0.769c-0.284,0.233-0.604,0.406-0.877,0.589c-0.586,0.334-1.063,0.635-1.5,0.841
	c-0.839,0.437-1.368,0.612-1.369,0.612c-0.809,0.268-1.68-0.171-1.948-0.979c-0.059-0.178-0.083-0.358-0.077-0.535l0.006-0.167
	c0,0,0.021-0.563,0.144-1.417c0.044-0.439,0.152-0.923,0.236-1.487c0.134-0.536,0.196-1.162,0.276-1.808
	c0.068-0.648,0.229-1.297,0.309-1.977c0.041-0.689,0.119-1.372,0.225-2.047c0.017-0.686,0.043-1.359,0.105-2.019
	c-0.093-0.668-0.037-1.315-0.15-1.948c-0.122-0.629-0.16-1.242-0.36-1.829c-0.116-0.59-0.335-1.152-0.517-1.696
	c-0.189-0.543-0.433-1.057-0.64-1.549c-0.247-0.482-0.447-0.949-0.694-1.362c-0.198-0.437-0.451-0.794-0.641-1.134
	c-0.197-0.318-0.367-0.628-0.512-0.828c-0.066-0.111-0.125-0.21-0.176-0.296c-0.023-0.045-0.035-0.077-0.047-0.108
	c-0.004-0.017-0.008-0.031-0.012-0.044c-0.024-0.033-0.045-0.061-0.063-0.083c-0.033-0.045-0.051-0.068-0.051-0.068l-0.042-0.057
	c-1.999-2.672-1.453-6.459,1.22-8.457C243.834,24.1,246.895,24.234,248.992,25.932z"/>
<path fill="#FFFFFF" d="M328.113,132.928c0,0.022,0.008-0.012,0.012,0.164c0.002,0.126,0.007,0.314,0.013,0.561
	c0,0.419-0.003,0.982-0.044,1.674c-0.088,1.384-0.359,3.288-1.035,5.497c-0.355,1.099-0.77,2.283-1.355,3.484
	c-0.559,1.211-1.263,2.444-2.096,3.656c-0.814,1.221-1.805,2.394-2.877,3.506c-0.552,0.545-1.104,1.093-1.715,1.582
	c-0.592,0.508-1.201,0.995-1.849,1.43c-1.273,0.895-2.618,1.651-3.972,2.285c-0.688,0.291-1.361,0.584-2.035,0.838
	c-0.691,0.211-1.359,0.438-2.028,0.611c-0.68,0.135-1.335,0.283-1.983,0.386c-0.656,0.067-1.285,0.145-1.904,0.172
	c-0.615,0.045-1.215,0.019-1.792-0.003c-0.573-0.012-1.126-0.053-1.655-0.141c-1.053-0.134-2.004-0.334-2.832-0.587
	c-0.832-0.251-1.537-0.478-2.115-0.771c-0.577-0.257-1.021-0.479-1.322-0.652c-0.301-0.158-0.46-0.266-0.46-0.266
	c-0.062-0.043-0.079-0.127-0.036-0.189c0.006-0.009,0.016-0.02,0.023-0.026c0,0,0.146-0.134,0.416-0.341
	c0.269-0.223,0.662-0.516,1.15-0.864c0.476-0.342,1.052-0.758,1.713-1.234c0.652-0.426,1.351-0.95,2.092-1.46
	c0.744-0.506,1.501-1.079,2.279-1.627c0.376-0.307,0.773-0.564,1.16-0.855c0.373-0.313,0.762-0.589,1.143-0.885
	c0.752-0.598,1.488-1.204,2.191-1.826c0.669-0.668,1.341-1.303,1.911-2.016c2.359-2.744,3.783-5.935,4.704-8.509
	c0.447-1.282,0.776-2.385,0.988-3.117c0.104-0.341,0.186-0.608,0.24-0.791c0.014-0.037,0.026-0.07,0.037-0.099l0.021,0.007
	c0.012,0.028,0.021-0.083,0.021-0.061c0.129-3.588,3.141-6.392,6.729-6.263S328.242,129.34,328.113,132.928z"/>
<path fill="#FFFFFF" d="M200.217,1.464c0,0,0.014-0.006,0.042-0.018c0.015-0.006,0.032-0.013,0.053-0.021
	c0.048-0.013,0.103-0.026,0.165-0.043c0.127-0.027,0.281-0.062,0.463-0.101c0.135-0.026,0.289-0.057,0.461-0.09
	c0.688-0.103,1.618-0.214,2.741-0.108c0.56,0.036,1.169,0.137,1.804,0.278c0.635,0.149,1.301,0.357,1.969,0.636
	c0.668,0.288,1.341,0.614,1.977,1.052c0.656,0.39,1.237,0.916,1.805,1.426c0.553,0.526,1.02,1.125,1.467,1.697
	c0.393,0.604,0.748,1.211,1.034,1.808c0.228,0.618,0.413,1.22,0.542,1.794c0.107,0.575,0.117,1.127,0.118,1.631
	c0.003,0.504-0.058,0.968-0.146,1.367c-0.115,0.414-0.19,0.753-0.307,1.045c-0.102,0.287-0.197,0.51-0.277,0.665
	c-0.075,0.151-0.115,0.232-0.115,0.232c-0.381,0.777-1.3,1.114-2.088,0.782l-0.221-0.093c0,0-0.08-0.034-0.232-0.099
	c-0.158-0.061-0.367-0.155-0.612-0.271c-0.261-0.111-0.511-0.262-0.827-0.409c-0.262-0.174-0.615-0.315-0.949-0.466
	c-0.338-0.146-0.639-0.331-0.962-0.477c-0.337-0.127-0.641-0.266-0.919-0.412c-0.303-0.105-0.576-0.21-0.818-0.331
	c-0.29-0.045-0.508-0.158-0.758-0.19c-0.248-0.031-0.452-0.098-0.681-0.101c-0.206-0.039-0.424-0.039-0.618-0.063
	c-0.412-0.034-0.798-0.066-1.127-0.094c-0.172-0.021-0.328-0.039-0.468-0.057c-0.129-0.022-0.241-0.042-0.335-0.058
	c-0.039-0.01-0.076-0.024-0.108-0.035c0.018-0.017,0.032-0.03,0.045-0.042l0.015-0.021c-0.021-0.001-0.04-0.002-0.055-0.002
	c-0.031-0.001-0.047-0.002-0.047-0.002l-0.064-0.002c-3.102-0.1-5.535-2.694-5.436-5.796C196.818,4.2,198.242,2.283,200.217,1.464z"
	/>
</svg>
