<svg xmlns="http://www.w3.org/2000/svg" width="43" height="43" viewBox="0 0 43 43">
  <g id="Grupo_2851" data-name="Grupo 2851" transform="translate(-214 -1501)">
    <circle id="Elipse_11" data-name="Elipse 11" cx="20" cy="20" r="20" transform="translate(217 1504)" fill="#fff"/>
    <g id="Elipse_34" data-name="Elipse 34" transform="translate(214 1501)" fill="none" stroke="#070707" stroke-width="1">
      <circle cx="20" cy="20" r="20" stroke="none"/>
      <circle cx="20" cy="20" r="19.5" fill="none"/>
    </g>
    <g id="Grupo_2850" data-name="Grupo 2850" transform="translate(143.556 1412.846)">
      <g id="Capa_2" data-name="Capa 2" transform="translate(80.064 96.774)">
        <rect id="Rectángulo_1145" data-name="Rectángulo 1145" width="21.453" height="21.453" fill="none"/>
      </g>
      <g id="Capa_1" data-name="Capa 1" transform="translate(82.322 97.809)">
        <path id="Trazado_1554" data-name="Trazado 1554" d="M101.7,117.677l-10.552,2.862-5.774-15.281L95.923,102.4Z" transform="translate(-85.371 -101.039)" fill="none" stroke="#010002" stroke-linejoin="round" stroke-width="1"/>
        <path id="Trazado_1555" data-name="Trazado 1555" d="M101.249,114.66c.652-.119,1.06-.172,1.06-.172L96.536,99.207a20.956,20.956,0,0,0-5.83,1.453,20.957,20.957,0,0,0-5.335,2.766l10.552-2.862Z" transform="translate(-85.371 -99.207)" fill="none" stroke="#010002" stroke-linejoin="round" stroke-width="1"/>
        <g id="Grupo_2850-2" data-name="Grupo 2850" transform="translate(4.764 7.026)">
          <path id="Trazado_1556" data-name="Trazado 1556" d="M101.938,117.69l-.559-1.9a.093.093,0,0,0-.142-.052l-1.2.785a2.516,2.516,0,0,0-1.946.632l-1.432.071a.094.094,0,0,0-.074.042.093.093,0,0,0-.01.084l.665,1.865a.1.1,0,0,0,.022.035,2.522,2.522,0,0,0,.112.564c.386,1.186,1.483,1.581,3.01,1.085s2.182-1.462,1.8-2.648a2.491,2.491,0,0,0-.24-.52A.1.1,0,0,0,101.938,117.69Z" transform="translate(-96.569 -115.722)" fill="none" stroke="#010002" stroke-linejoin="round" stroke-width="1"/>
          <line id="Línea_172" data-name="Línea 172" x2="0.092" y2="0.284" transform="translate(1.979 2.953)" fill="none" stroke="#010002" stroke-linecap="round" stroke-linejoin="round" stroke-width="1"/>
          <line id="Línea_173" data-name="Línea 173" x2="0.092" y2="0.284" transform="translate(3.983 2.302)" fill="none" stroke="#010002" stroke-linecap="round" stroke-linejoin="round" stroke-width="1"/>
        </g>
      </g>
    </g>
  </g>
</svg>
