<?xml version="1.0" encoding="utf-8"?>
<!-- Generator: Adobe Illustrator 24.0.1, SVG Export Plug-In . SVG Version: 6.00 Build 0)  -->
<svg version="1.1" id="Capa_1" xmlns="http://www.w3.org/2000/svg" xmlns:xlink="http://www.w3.org/1999/xlink" x="0px" y="0px"
	 viewBox="0 0 300 58.1" style="enable-background:new 0 0 300 58.1;" xml:space="preserve">
<style type="text/css">
	.st0{fill:#211916;}
	.st1{fill-rule:evenodd;clip-rule:evenodd;fill:#FFFFFF;}
</style>
<g>
	<path class="st0" d="M234.4,24.7c1-0.7,2.1-1.4,3.3-2c6.3-3.2,14-4.7,22.8-4.7c8,0,15.1,1.2,20.8,4c5.8,2.8,9.8,7,9.8,12.8
		c0,6.2-4.1,11-10.4,14.2c-6.2,3.2-13.9,4.6-22.8,4.6c-7.3,0-13.8-1-19.2-3.2c-0.6,1.6-2.5,2.7-5.5,2.7h-11.1h-11.1
		c-1.2,0-2.3-0.2-3.1-0.5c-0.9,0.3-1.9,0.5-3.1,0.5h-11.1h-11.1h-0.2h-0.2H171h-10.9h-0.2H149h-11.1c-1.2,0-2.3-0.2-3.1-0.5
		c-0.9,0.3-1.9,0.5-3.1,0.5h-11.1h-11.1l-0.2,0l-0.2,0H97.8H87h-0.3H75.9H64.8c-1.2,0-2.3-0.2-3.1-0.6c-0.8,0.4-1.9,0.6-3.1,0.6
		H47.5H36.4c-1.2,0-2.3-0.2-3.1-0.6c-0.8,0.4-1.9,0.6-3.1,0.6H19.1H8c-4.5,0-6.7-2.9-4.7-6.5c0.7-1.3,1.2-2.6,1.5-4
		c0.3-1.6,0.4-3.5,0.4-5.8V21.5c0-2.3-0.2-4.3-0.5-5.9C4.4,14.4,4,13,3.3,11.7C1.3,8.2,3.4,5.2,8,5.2h9.9h9.9c1.7,0,3.3,0.8,4.3,2
		l1.6-1.2c0.1-0.1,1.6-0.8,1.7-0.9c1.9-0.6,3.8-0.8,5.8-0.8c5.6,0,10.7,1.2,14.6,4.1c0.5,0.4,0.9,0.8,1.4,1.2L62,6.1
		c0.1-0.1,1.7-0.8,1.7-0.9c1.9-0.6,3.8-0.8,5.8-0.8c5.6,0,10.7,1.2,14.6,4.2c0.4,0.3,0.8,0.6,1.2,1C86.1,8.9,87,8.3,88,7.9
		c3-1.5,6.4-2.1,10-2.1c3.6,0,7,0.6,10,2.1c2.9,1.5,5.6,4,5.6,7.6c0,1.2-0.3,2.2-0.7,3.1h6.5h9.9c1.6,0,3.1,0.7,4.1,1.8l2.4-1.3
		c0.1,0,1.6-0.6,1.6-0.6c1.7-0.3,3.4-0.5,5.3-0.5c4.7,0,9.1,0.6,12.6,2c0.4-0.4,0.9-0.7,1.4-0.9c-0.6-1.1-1-2.3-1-3.7
		c0-3.7,2.6-6.2,5.6-7.6c3-1.5,6.4-2.1,10-2.1c3.6,0,7,0.6,10,2.1c2.9,1.5,5.6,4,5.6,7.6c0,1.2-0.3,2.2-0.7,3.1h6.5h9.9
		c1.6,0,3.1,0.7,4.1,1.8l2.4-1.3c0.1,0,1.6-0.6,1.6-0.6c1.7-0.3,3.5-0.5,5.3-0.5c5.3,0,10.1,0.7,13.8,2.6
		C231.7,21.7,233.3,23.1,234.4,24.7z"/>
	<path class="st1" d="M97.9,10.3c2.9,0,5.3,0.5,7.3,1.5c2,1,3,2.2,3,3.7c0,1.5-1,2.7-3,3.7c-2,1-4.4,1.5-7.3,1.5
		c-2.9,0-5.4-0.5-7.4-1.5c-2-1-3-2.3-3-3.7c0-1.5,1-2.7,3-3.7C92.6,10.8,95,10.3,97.9,10.3z M89.1,40.9v-10c0-1.7-0.2-3.2-0.6-4.4
		c-0.3-1.2-1-2.3-1.8-3.3H98h11.4c-1.1,1-1.8,2.4-2.2,4c-0.4,1.6-0.6,3.9-0.6,6.8v6.9c0,1.7,0.2,3.2,0.5,4.4c0.4,1.2,1,2.3,1.9,3.3
		H97.8H86.7c0.9-1.1,1.5-2.2,1.9-3.3C88.9,44.1,89.1,42.6,89.1,40.9z"/>
	<path class="st1" d="M111.8,40.9v-10c0-1.7-0.2-3.2-0.6-4.4c-0.3-1.2-1-2.3-1.9-3.3h9.9h9.9V28l9.3-5.1c1.2-0.2,2.6-0.4,4.2-0.4
		c4.8,0,8.6,0.7,11.2,2c2.6,1.3,3.9,3.2,3.9,5.6v10.7c0,1.7,0.2,3.2,0.5,4.3c0.4,1.2,1,2.3,1.9,3.3H149h-11.1
		c0.9-1.1,1.5-2.2,1.9-3.3c0.4-1.2,0.6-2.6,0.6-4.4v-7.7c0-1.2-0.5-2.1-1.5-2.8c-1-0.7-2.4-1-4.2-1c-2,0-3.8,0.3-5.4,0.8v10.7
		c0,1.7,0.2,3.2,0.5,4.4c0.4,1.2,1,2.3,1.9,3.3h-11.1h-11.1c0.9-1.1,1.5-2.2,1.9-3.3C111.6,44.1,111.7,42.6,111.8,40.9z"/>
	<path class="st1" d="M171.2,10.3c2.9,0,5.3,0.5,7.3,1.5c2,1,3,2.2,3,3.7c0,1.5-1,2.7-3,3.7c-2,1-4.4,1.5-7.3,1.5
		c-2.9,0-5.4-0.5-7.4-1.5c-2-1-3-2.3-3-3.7c0-1.5,1-2.7,3-3.7C165.8,10.8,168.3,10.3,171.2,10.3z M162.3,40.9v-10
		c0-1.7-0.2-3.2-0.6-4.4c-0.3-1.2-1-2.3-1.9-3.3h11.4h11.4c-1.1,1-1.8,2.4-2.2,4c-0.4,1.6-0.6,3.9-0.6,6.8v6.9
		c0,1.7,0.2,3.2,0.5,4.3c0.4,1.2,1,2.3,1.9,3.3H171h-11.1c0.9-1.1,1.5-2.2,1.9-3.3C162.1,44.1,162.3,42.6,162.3,40.9z"/>
	<path class="st1" d="M185,40.9v-10c0-1.7-0.2-3.2-0.6-4.4c-0.3-1.2-1-2.3-1.9-3.3h9.9h9.9V28l9.3-5.1c1.2-0.2,2.6-0.4,4.2-0.4
		c4.9,0,8.6,0.7,11.2,2c2.6,1.3,3.9,3.2,3.9,5.6v10.7c0,1.7,0.2,3.2,0.5,4.3c0.4,1.2,1,2.3,1.9,3.3h-11.1h-11.1
		c0.9-1.1,1.5-2.2,1.9-3.3c0.4-1.2,0.6-2.6,0.6-4.3v-7.7c0-1.2-0.5-2.1-1.5-2.8c-1-0.7-2.4-1-4.2-1c-2,0-3.8,0.3-5.4,0.8v10.7
		c0,1.7,0.2,3.2,0.5,4.3c0.4,1.2,1,2.3,1.9,3.3h-11.1h-11.1c0.9-1.1,1.5-2.2,1.9-3.3C184.8,44.1,185,42.6,185,40.9z"/>
	<path class="st1" d="M262.8,44c1.6-0.7,2.9-1.7,3.8-3c1-1.3,1.5-2.5,1.5-3.7c0-2.3-1.3-4.3-3.9-6.1c-2.6-1.8-6-2.9-10.2-3.4
		c-1.2,0.6-2.2,1.5-3,2.8c-0.7,1.3-1.1,2.6-1.1,4c0,2.3,1.2,4.4,3.6,6.2C256,42.5,259.1,43.6,262.8,44z M258,49.1
		c-7.4,0-13.5-1.1-18.3-3.4c-4.8-2.3-7.1-5.2-7.1-8.8c0-4.2,2.6-7.6,7.8-10.3c5.2-2.7,11.9-4,20.1-4c7.5,0,13.6,1.1,18.3,3.4
		c4.8,2.3,7.1,5.2,7.1,8.8c0,4.2-2.6,7.6-7.8,10.3C273,47.8,266.2,49.1,258,49.1z"/>
	<path class="st1" d="M10.4,36.8V21.5c0-2.7-0.2-4.9-0.6-6.6c-0.3-1.8-1-3.5-1.8-5.1h9.9h9.9v6.7l9.3-7C38.2,9.2,39.6,9,41.2,9
		c4.8,0,8.6,1,11.2,3c1.7,1.3,2.8,2.9,3.3,4.9l9.8-7.4C66.6,9.2,68,9,69.6,9c4.8,0,8.5,1,11.1,3c2.6,2,3.9,4.8,3.9,8.6v16.3
		c0,2.7,0.2,4.9,0.5,6.6c0.4,1.8,1,3.5,1.9,5.1H75.9H64.8c0.9-1.6,1.5-3.3,1.9-5.1c0.4-1.8,0.6-4,0.6-6.6V25c0-1.8-0.5-3.2-1.5-4.2
		c-0.9-1-2.3-1.5-4.2-1.5c-2,0-3.8,0.4-5.3,1.2v16.3c0,2.7,0.2,4.9,0.5,6.6c0.4,1.8,1,3.5,1.9,5.1H47.5H36.4
		c0.9-1.6,1.5-3.3,1.9-5.1c0.4-1.8,0.5-4,0.5-6.6V25c0-1.8-0.5-3.2-1.5-4.2c-1-1-2.4-1.5-4.2-1.5c-2,0-3.8,0.4-5.3,1.2v16.3
		c0,2.7,0.2,4.9,0.5,6.6c0.4,1.8,1,3.5,1.9,5.1H19.1H8c0.9-1.6,1.5-3.3,1.9-5.1C10.2,41.7,10.4,39.5,10.4,36.8z"/>
	<g>
		<g>
			<path class="st0" d="M297.5,19.8c0,2.3-2.3,4.3-5,4.3c-2.9,0-5-1.9-5-4.3c0-2.4,2.2-4.3,5-4.3C295.3,15.5,297.5,17.4,297.5,19.8z
				 M288.5,19.8c0,1.9,1.8,3.5,4,3.5c2.2,0,4-1.5,4-3.4c0-1.9-1.8-3.5-4-3.5C290.3,16.3,288.5,17.9,288.5,19.8z M293.4,22.2
				l-1.6-2.2h0v2.2h-0.9v-4.9h1.6c1.3,0,1.9,0.5,1.9,1.2c0,0.8-0.6,1.3-1.5,1.4c0.1,0.1,0.3,0.4,0.6,0.7l1.2,1.5H293.4z M292.4,18
				h-0.6v1.5h0.4c0.9,0,1.2-0.5,1.2-0.9C293.4,18.2,293.1,18,292.4,18z"/>
		</g>
	</g>
</g>
</svg>
