<?xml version="1.0" encoding="utf-8"?>
<!-- Generator: Adobe Illustrator 16.0.0, SVG Export Plug-In . SVG Version: 6.00 Build 0)  -->
<!DOCTYPE svg PUBLIC "-//W3C//DTD SVG 1.1//EN" "http://www.w3.org/Graphics/SVG/1.1/DTD/svg11.dtd">
<svg version="1.1" id="Capa_1" xmlns="http://www.w3.org/2000/svg" xmlns:xlink="http://www.w3.org/1999/xlink" x="0px" y="0px"
	 width="133.634px" height="210.308px" viewBox="0 0 133.634 210.308" enable-background="new 0 0 133.634 210.308"
	 xml:space="preserve">
<g>
	<path fill-rule="evenodd" clip-rule="evenodd" fill="#18B6B8" d="M17.692,200.546c2.404-1.354,4.575-2.753,6.892-3.843
		c3.615-1.702,7.321-3.213,11.006-4.757c0.553-0.233,1.215-0.208,2.128-0.348c-0.107,1.46-0.113,2.724-0.308,3.957
		c-0.362,2.274-0.192,4.447,0.583,6.635c0.533,1.5,0.904,3.092,1.081,4.674c0.209,1.847-1.017,3.132-2.878,3.06
		c-1.259-0.049-2.564-0.303-3.75-0.733c-3.625-1.313-7.196-2.733-11.033-3.398C18.869,205.35,17.544,203.709,17.692,200.546z"/>
	<g>
		<defs>
			<rect id="SVGID_1_" x="0.367" y="0.381" width="133.267" height="209.545"/>
		</defs>
		<clipPath id="SVGID_2_">
			<use xlink:href="#SVGID_1_"  overflow="visible"/>
		</clipPath>
		<path clip-path="url(#SVGID_2_)" fill-rule="evenodd" clip-rule="evenodd" fill="#F8A613" d="M31.128,72.922
			c0.223,5.313,0.32,10.596,0.706,15.854c0.341,4.603,1.012,9.18,1.528,13.771c0.167,1.478,0.365,2.956,0.416,4.438
			c0.015,0.398-0.377,1.05-0.722,1.167c-0.549,0.184-1.227,0.078-1.827-0.032c-0.282-0.052-0.589-0.355-0.749-0.628
			c-1.991-3.359-5.563-5.125-8.038-7.995c-0.322-0.372-0.703-0.709-1.098-1.003c-4.747-3.57-9.5-7.128-14.259-10.675
			c-0.097-0.072-0.305,0.017-0.657,0.044c0.699,9.287,1.382,18.577,2.109,27.862c0.081,1.001,0.4,2.055-0.643,2.671
			c-1.169,0.685-2.299,0.181-3.21-0.58c-2.534-2.125-5.039-4.283-7.494-6.499c-2.087-1.884-4.293-3.697-6.085-5.842
			c-3.86-4.624-8.784-8.04-13.138-12.095c-1.277-1.185-2.571-1.763-4.449-1.581c-2.083,0.199-4.229-0.216-6.339-0.425
			c-0.219-0.023-0.396-0.463-0.622-0.749c0.81-1.257,2.16-1.405,3.419-1.391c4.071,0.046,7.814-1.13,11.53-2.637
			c2.295-0.933,4.678-1.735,7.096-2.229c3.115-0.64,6.044-1.716,8.956-2.913c8.741-3.592,17.494-7.134,26.223-10.75
			c1.674-0.691,3.257-1.606,4.883-2.411c0.735-0.365,1.46-0.985,2.219-1.027c2.987-0.173,5.269-1.902,7.684-3.302
			c4.155-2.408,8.298-4.844,12.338-7.437c3.477-2.231,6.799-4.705,10.205-7.05c2.315-1.599,4.699-3.101,6.971-4.758
			c3.744-2.728,7.606-5.338,11.091-8.372c6.863-5.975,13.473-12.198,19.731-18.859c6.253-6.657,11.834-13.818,17.586-20.859
			c1.559-1.904,2.648-4.189,3.958-6.295c0.469-0.752,1.099-1.261,2.038-0.988c0.894,0.265,1.746,1.516,1.431,2.348
			c-0.576,1.529-1.228,3.062-2.077,4.454c-1.369,2.251-2.921,4.388-4.479,6.697c2.039,5.002,3.979,9.913,6.065,14.759
			c0.438,1.023,1.35,1.876,2.154,2.702c3.928,4.019,6.009,9.068,7.931,14.2c0.157,0.42,0.003,0.951-0.002,1.365
			c-1.104,1.138-2.407,1.319-3.741,1.012c-2.093-0.488-4.203-0.967-6.213-1.695c-5.135-1.867-10.231-3.832-15.311-5.839
			c-1.219-0.483-2.278-1.35-3.477-1.908c-0.854-0.399-1.812-0.578-3.187-0.997c0.071,0.965-0.033,1.594,0.18,2.093
			c0.718,1.67,1.407,3.378,2.361,4.915c2.533,4.076,5.214,8.058,7.792,12.107c0.62,0.97,1.142,2.018,1.58,3.083
			c0.554,1.357,0.979,2.774,1.567,4.468c-1.05,0.226-1.868,0.666-2.521,0.49c-1.587-0.424-3.179-0.982-4.619-1.763
			c-3.049-1.657-6.064-3.276-9.409-4.371c-2.476-0.812-4.664-2.472-7.014-3.69c-2.488-1.29-5.009-2.524-7.542-3.728
			c-0.377-0.182-0.896-0.063-1.473-0.089c1.594,8.036,3.151,15.902,4.73,23.765c0.259,1.295,0.659,2.557,0.939,3.846
			c0.245,1.125,0.508,2.265,0.589,3.409c0.143,1.956-1.008,2.755-2.798,1.993c-4.729-2.011-9.242-4.42-13.511-7.291
			c-4.247-2.85-8.458-5.774-13.478-7.272c-0.92,0.766-0.47,1.775-0.332,2.661c0.906,5.902,1.006,11.853,1.167,17.807
			c0.058,2.138,0.554,4.261,0.605,6.4c0.04,1.624-0.216,3.277-0.519,4.885c-0.183,0.975-1.566,1.434-2.431,0.88
			c-1.814-1.157-3.615-2.334-5.354-3.595c-4.404-3.201-8.782-6.433-13.148-9.685c-1.194-0.888-2.356-1.83-3.43-2.859
			C34.277,73.721,32.879,73.017,31.128,72.922z M30.268,101.449c-0.85-7.608-1.94-14.922-2.177-22.329
			c-0.072-2.221-0.105-4.613-1.609-6.536c-4.613,1.194-16.987,6.33-20.02,8.303c0.09,2.47,2.066,3.729,3.607,5.086
			c3.205,2.822,6.674,5.345,9.989,8.049c1.91,1.555,3.75,3.205,5.582,4.854C26.843,99.961,27.849,101.333,30.268,101.449z
			 M101.586,21.872c7.567,3.106,14.702,6.04,21.842,8.962c1.069,0.437,2.134,0.932,3.249,1.195c0.692,0.164,1.476-0.056,2.295-0.109
			c-0.374-3.418-1.877-6.031-3.819-8.256c-2.563-2.94-4.222-6.284-5.584-9.853c-0.764-2.009-1.58-4.002-2.451-5.965
			c-0.298-0.671-0.337-1.674-1.705-1.728C110.954,11.201,106.407,16.379,101.586,21.872z M60.573,54.384
			c1.011,0.842,1.438,1.416,2.005,1.639c4.683,1.838,8.511,5.052,12.668,7.741c2.767,1.792,5.651,3.412,8.532,5.017
			c0.57,0.318,1.372,0.211,2.316,0.33c-1.232-4.717-2.227-9.05-3.512-13.299c-1.323-4.355-1.037-9.101-3.21-13.784
			C73.725,47.264,66.447,49.242,60.573,54.384z"/>
	</g>
</g>
</svg>
