<?xml version="1.0" encoding="utf-8"?>
<!-- Generator: Adobe Illustrator 16.0.0, SVG Export Plug-In . SVG Version: 6.00 Build 0)  -->
<!DOCTYPE svg PUBLIC "-//W3C//DTD SVG 1.1//EN" "http://www.w3.org/Graphics/SVG/1.1/DTD/svg11.dtd">
<svg version="1.1" id="Capa_1" xmlns="http://www.w3.org/2000/svg" xmlns:xlink="http://www.w3.org/1999/xlink" x="0px" y="0px"
	 width="140.012px" height="209.014px" viewBox="0 0 140.012 209.014" enable-background="new 0 0 140.012 209.014"
	 xml:space="preserve">
<g>
	<defs>
		<rect id="SVGID_1_" x="0.035" width="139.977" height="209.014"/>
	</defs>
	<clipPath id="SVGID_2_">
		<use xlink:href="#SVGID_1_"  overflow="visible"/>
	</clipPath>
	<g clip-path="url(#SVGID_2_)">
		<path fill-rule="evenodd" clip-rule="evenodd" fill="#F8A613" d="M10.107,168.067c0.309,0.463,0.697,0.801,0.766,1.19
			c0.49,2.79,1.634,5.281,3.391,7.478c0.851,1.063,1.128,2.211,1.07,3.532c-0.146,3.468,0.277,6.899,0.781,10.325
			c0.166,1.134,0.156,2.298,0.168,3.446c0.039,4.729,0.114,9.456,0.064,14.183c-0.068,6.126,0.688,12.187,1.274,18.27
			c0.63,6.537,1.217,13.084,1.587,19.644c0.631,11.295,1.932,22.498,3.955,33.625c0.682,3.754,1.027,7.522,0.993,11.346
			c-0.023,2.534-0.856,4.169-3.196,5.56c-2.736,1.632-5.508,1.289-8.319,1.288c-1.241,0-1.981-1.059-2.473-2.16
			c-0.754-1.698-1.228-3.457-1.308-5.337c-0.18-4.144-0.388-8.289-0.646-12.428c-0.104-1.608-0.327-3.212-0.583-4.803
			c-1.315-8.201-2.046-16.453-2.31-24.76c-0.15-4.721-0.512-9.438-0.726-14.159c-0.266-5.983-0.614-11.972-0.686-17.96
			c-0.119-9.913-0.097-19.828-0.025-29.739c0.02-2.521,0.406-5.042,0.715-7.554c0.093-0.777,0.32-1.629,0.762-2.254
			c1.089-1.538,1.714-3.233,2.222-5.018C7.992,170.346,8.603,169.001,10.107,168.067z"/>
		<path fill-rule="evenodd" clip-rule="evenodd" fill="#F8383B" d="M6.838,132.832c0.248,0.173,0.381,0.211,0.408,0.287
			c2.085,5.752,4.737,11.247,7.453,16.713c0.51,1.029,0.984,2.105,1.275,3.211c1.019,3.874-0.035,7.291-2.583,10.273
			c-0.923,1.082-2.18,1.66-3.654,1.721c-1.86,0.077-3.717,0.061-5.392-0.872c-2.597-1.446-4.175-3.604-4.286-6.647
			c-0.108-2.895,0.114-5.771,1.027-8.54c0.944-2.843,2.008-5.646,2.968-8.483c0.697-2.067,1.29-4.171,1.98-6.241
			C6.199,133.75,6.558,133.313,6.838,132.832z M8.093,150.401c-0.436,0.301-0.817,0.421-0.946,0.673
			c-1.243,2.409-1.523,5.025-1.547,7.684c-0.002,0.224,0.073,0.457,0.147,0.672c0.435,1.286,2.12,2.249,3.628,2.084
			c1.062-0.119,1.844-1.039,1.821-2.563C11.153,155.79,10.196,152.935,8.093,150.401z"/>
	</g>
	<g clip-path="url(#SVGID_2_)">
		<path fill-rule="evenodd" clip-rule="evenodd" fill="#F8383B" d="M92.957,50.553c1.81,5.73,2.697,11.03,3.244,16.398
			c0.456,4.488,0.87,8.982,1.415,13.46c0.266,2.181,0.074,4.265-0.778,6.26c-0.918,2.152-2.561,3.477-4.97,3.294
			c-1.598-0.121-3.271-0.376-4.728-1.006c-3.295-1.421-5.889-3.797-7.802-6.838c-0.521-0.826-0.983-1.808-1.08-2.758
			c-0.467-4.705-0.079-9.283,2.635-13.372c0.901-1.356,1.821-2.704,2.812-3.998c2.513-3.285,5.065-6.542,7.619-9.796
			C91.693,51.731,92.162,51.346,92.957,50.553z M88.604,69.963c-0.648,1.254-1.107,2.085-1.51,2.941
			c-0.478,1.016-0.744,2.18-1.398,3.055c-1.753,2.336-1.55,4.974-1.337,7.581c0.147,1.815,1.806,3.134,3.602,3.232
			c1.311,0.072,2.292-0.474,2.487-1.756c0.279-1.846,0.416-3.73,0.402-5.595C90.827,76.282,90.008,73.304,88.604,69.963z"/>
		<path fill-rule="evenodd" clip-rule="evenodd" fill="#68B0D3" d="M84.385,95.371c1.327,0.123,2.545,0.235,3.739,0.346
			c0.226,0.25,0.492,0.412,0.539,0.625c0.713,3.031,1.254,6.095,3.043,8.789c0.589,0.887,0.741,2.125,0.897,3.231
			c0.866,6.109,0.99,12.236,0.165,18.364c-0.063,0.473-0.251,0.93-0.408,1.492c-2.071-0.287-3.623-1.316-4.877-2.739
			c-3.246-3.671-6.109-7.621-8.315-12.016c-1.625-3.237-1.011-6.607-0.513-9.948c0.081-0.554,0.519-1.264,0.995-1.514
			c2.064-1.092,2.849-3.08,3.784-4.986C83.698,96.474,84.034,95.968,84.385,95.371z"/>
		<path fill-rule="evenodd" clip-rule="evenodd" fill="#68B0D3" d="M83.953,216.262c-0.332,0.117-0.469,0.222-0.565,0.194
			c-3.628-1.046-7.108-2.363-9.686-5.328c-0.408-0.475-0.811-0.96-1.247-1.405c-2.967-3.033-4.558-6.462-3.474-10.834
			c0.326-1.317,0.193-2.742,0.289-4.118c0.019-0.24,0.133-0.474,0.231-0.81c0.323,0.03,0.825-0.076,0.985,0.11
			c2.998,3.52,7.071,5.544,10.906,7.89c1.168,0.715,2.352,1.403,3.595,2.144C85.168,208.28,84.51,212.314,83.953,216.262z"/>
		<path fill-rule="evenodd" clip-rule="evenodd" fill="#68B0D3" d="M87.463,184.117c-2.417,0.296-4.083-0.594-5.661-1.626
			c-2.117-1.386-3.971-3.084-5.474-5.136c-0.741-1.011-1.45-2.051-2.174-3.08c-2.401-3.419-2.416-3.419-1.829-7.638
			c0.203-1.494,0.493-2.97,0.756-4.456c0.017-0.092,0.146-0.167,0.395-0.438c1.369,0.604,2.016,2.053,3.094,3.005
			c1.223,1.076,2.457,2.157,3.792,3.084c1.236,0.854,2.588,1.553,3.933,2.232c1.332,0.677,2.723,1.238,4.36,1.973
			C89.473,176.021,88.585,179.998,87.463,184.117z"/>
		<path fill-rule="evenodd" clip-rule="evenodd" fill="#F89C97" d="M82.297,235.417c-0.58-0.224-1.171-0.365-1.665-0.663
			c-4.929-2.998-8.603-7.246-11.756-11.986c-0.327-0.489-0.538-1.154-0.542-1.745c-0.039-2.979,0.005-5.96,0.024-9.364
			c2.856,1.863,4.249,4.755,7.105,5.899c2.66,1.067,5.242,2.334,7.82,3.496C83.726,224.575,83.306,230.837,82.297,235.417z"/>
		<path fill-rule="evenodd" clip-rule="evenodd" fill="#F89C97" d="M71.764,176.936c3.552,5.42,7.807,9.904,14.679,11.121
			c0.066,0.734,0.246,1.461,0.177,2.163c-0.303,3.098-0.676,6.186-1.015,9.189c-0.36,0.088-0.511,0.179-0.6,0.139
			c-5.279-2.457-10.083-5.585-13.988-9.968c-0.599-0.67-1.14-1.354-1.038-2.324c0.345-3.344,0.694-6.687,1.045-10.025
			C71.273,177.132,71.519,177.032,71.764,176.936z"/>
		<path fill-rule="evenodd" clip-rule="evenodd" fill="#F89C97" d="M77.542,116.475c1.921,2.817,3.442,4.942,4.847,7.144
			c2.073,3.243,4.622,5.901,8.285,7.343c0.56,0.22,1.033,0.654,1.632,1.045c-0.318,3.139-0.34,6.232-1.075,9.278
			c-2.354-0.763-4.63-2.045-6.237-3.491c-3.492-3.151-5.938-7.091-8.306-11.084c-0.245-0.415-0.479-0.954-0.436-1.409
			C76.522,122.587,76.529,119.826,77.542,116.475z"/>
		<path fill-rule="evenodd" clip-rule="evenodd" fill="#F89C97" d="M74.736,146.334c4.184,5.671,8.518,9.734,14.614,11.808
			c0.337,3.327,0.005,6.633-0.576,9.89c-0.416,0.061-0.694,0.194-0.888,0.118c-5.513-2.211-9.855-5.927-13.423-10.589
			c-0.412-0.538-0.619-1.399-0.571-2.089C74.067,152.743,74.38,150.024,74.736,146.334z"/>
		<path fill-rule="evenodd" clip-rule="evenodd" fill="#68B0D3" d="M68.5,229.066c4.365,4.747,8.313,8.75,13.809,10.989
			c-0.1,1.99-0.201,3.85-0.284,5.713c-0.053,1.178-0.757,1.86-1.795,2.124c-2.76,0.704-5.681,0.694-8.008-0.801
			c-1.757-1.129-3.637-2.886-3.789-5.281C68.188,237.85,68.184,233.868,68.5,229.066z"/>
		<path fill-rule="evenodd" clip-rule="evenodd" fill="#68B0D3" d="M90.869,145.494c0.022,2.881-0.624,5.771-0.813,9.103
			c-1.093-0.429-1.817-0.585-2.398-0.962c-3.048-1.981-6.088-3.976-8.217-7.034c-0.285-0.408-0.65-0.761-0.946-1.166
			c-1.104-1.503-2.195-3.016-3.288-4.525c0.013-2.854-0.085-5.72,0.807-8.604C84.326,143.257,86.055,142.094,90.869,145.494z"/>
	</g>
	<path clip-path="url(#SVGID_2_)" fill-rule="evenodd" clip-rule="evenodd" fill="#F8A613" d="M110.631,0
		c0.072,5.112,2.174,9.967,1.141,15.381c-0.865-0.107-1.755,0.026-2.341-0.334c-2.871-1.759-5.685-3.609-8.458-5.516
		c-0.726-0.5-1.235-1.324-1.842-1.993C105.465,2.149,107.104,1.066,110.631,0z"/>
	<path clip-path="url(#SVGID_2_)" fill-rule="evenodd" clip-rule="evenodd" fill="#F85B68" d="M130.592,108.934
		c-0.101,1.649-0.599,3.267-2.357,4.232c-1.737,0.96-3.379,0.726-4.951-0.362c-0.79-0.542-1.576-1.095-2.306-1.712
		c-1.748-1.478-2.366-3.907-1.496-6.068c0.818-2.041,2.506-2.737,4.598-2.787C128.182,102.136,130.67,104.597,130.592,108.934z"/>
	<path clip-path="url(#SVGID_2_)" fill-rule="evenodd" clip-rule="evenodd" fill="#F85B68" d="M46.366,99.365
		c-0.008-0.721-0.006-1.218-0.017-1.713c-0.037-2.188,1.076-3.647,3.061-4.307c1.888-0.623,3.862-0.997,5.803-1.46
		c0.282-0.067,0.611-0.078,0.89-0.002c1.539,0.42,3.089,0.817,4.594,1.345c0.963,0.338,1.06,0.9,0.648,2.637
		c-1.676-0.467-3.427-1.026-5.14-0.464c-1.69,0.556-3.289,1.382-4.946,2.098c-0.112,1.194,0.367,1.815,1.305,2.177
		c1.018,0.395,2.07,0.728,3.026,1.237c0.747,0.398,1.018,1.357,0.798,2.089c-0.214,0.722-0.707,1.235-1.421,1.408
		c-0.47,0.113-0.996,0.068-1.481-0.005c-0.791-0.117-1.591-0.244-2.346-0.492c-1.731-0.57-3.336-0.385-4.989,0.682
		c-1.065,3.312,1.347,5.903,2.276,8.779c-0.964,0.737-1.633,0.046-2.346-0.158c-2.095-0.601-3.274-2.027-4.014-4.063
		c-0.826-2.267-1.058-4.451-0.116-6.698c0.403-0.958,1.069-1.687,2.024-2.112C44.697,100.02,45.439,99.74,46.366,99.365z"/>
</g>
</svg>
