<?xml version="1.0" encoding="utf-8"?>
<!-- Generator: Adobe Illustrator 16.0.0, SVG Export Plug-In . SVG Version: 6.00 Build 0)  -->
<!DOCTYPE svg PUBLIC "-//W3C//DTD SVG 1.1//EN" "http://www.w3.org/Graphics/SVG/1.1/DTD/svg11.dtd">
<svg version="1.1" id="Capa_1" xmlns="http://www.w3.org/2000/svg" xmlns:xlink="http://www.w3.org/1999/xlink" x="0px" y="0px"
	 width="175.434px" height="169.557px" viewBox="0 0 175.434 169.557" enable-background="new 0 0 175.434 169.557"
	 xml:space="preserve">
<g>
	<defs>
		<rect id="SVGID_1_" width="175.434" height="169.557"/>
	</defs>
	<clipPath id="SVGID_2_">
		<use xlink:href="#SVGID_1_"  overflow="visible"/>
	</clipPath>
	<g clip-path="url(#SVGID_2_)">
		<path fill-rule="evenodd" clip-rule="evenodd" fill="#F85B68" d="M39.059,76.673c0.787-0.468,1.386-0.77,1.924-1.158
			c2.915-2.104,3.336-5.473,0.856-8.098c-1.2-1.268-2.724-2.228-4.25-3.444c-1.042-4.248-1.242-8.748-1.271-13.244
			c-0.009-1.15,0.42-2.485,1.088-3.417c1.439-2.014,1.905-4.153,1.81-6.556c-0.038-0.924,0.159-1.904,0.462-2.783
			c0.426-1.228,2.292-1.397,3.003-0.299c0.512,0.797,1.136,1.653,1.265,2.545c0.317,2.195,1.591,3.763,3.085,5.149
			c2.53,2.347,3.56,5.222,4.193,8.585c1.657,8.856,3.706,17.636,5.604,26.446c0.691,3.204,1.399,6.402,2.07,9.611
			c0.078,0.361-0.031,0.76-0.052,1.125c-1.213,0.23-2.268-1.225-3.44-0.126c-1.312,1.229-1.712,2.787-1.439,4.479
			c0.174,1.076,0.597,2.139,1.801,2.538c1.383,0.459,2.375-0.252,3.196-1.23c0.375-0.447,0.599-1.025,1.068-1.862
			c0.787,3.32,1.531,6.229,2.159,9.16c1.883,8.813,3.658,17.646,5.598,26.446c1.235,5.593,2.739,11.13,4.015,16.717
			c0.822,3.594,1.447,7.227,2.161,10.843c0.105,0.536,0.27,1.075,0.267,1.613c-0.042,5.772,1.755,11.285,2.393,16.967
			c0.643,5.698,1.553,11.365,2.288,17.053c0.192,1.48,0.332,2.998,0.23,4.479c-0.159,2.334-1.159,3.449-3.509,3.832
			c-3.097,0.508-6.22,0.9-9.347,1.177c-2.475,0.22-3.797-0.734-4.558-3.174c-0.526-1.687-0.848-3.444-1.219-5.176
			c-1.545-7.208-3.073-14.417-4.609-21.626c-0.281-1.316-0.566-2.634-0.837-3.902c0.505-0.393,0.807-0.659,1.135-0.879
			c2.466-1.625,2.734-2.316,2.143-5.019c-0.252-1.169-0.84-2.034-1.924-2.46c-1.005-0.398-2.071-0.65-3.413-1.058
			c-0.236-1.115-0.555-2.419-0.787-3.735c-3.193-18.155-6.41-36.307-9.545-54.475c-1.162-6.727-2.162-13.481-3.188-20.229
			C39.239,79.891,39.193,78.265,39.059,76.673z M69.039,167.251c-3.362,0.435-4.687,2.001-4.35,5.154
			c0.309,2.879,2.619,4.944,5.192,4.635c2.865-0.342,5.05-2.442,4.646-4.694C73.832,168.469,72.135,166.614,69.039,167.251z
			 M67.752,139.814c-0.212-1.128-0.725-2.646-2.042-3.779c-1.122-0.964-2.378-1.299-3.779-0.79
			c-1.527,0.557-2.416,1.616-2.598,3.303c-0.219,2.04,0.617,3.704,1.679,5.305c0.214,0.316,0.583,0.607,0.942,0.737
			c1.55,0.569,2.877,0.071,4.167-0.858C67.325,142.866,68.059,141.854,67.752,139.814z M54.886,128.646
			c0.202-0.087,0.902-0.234,1.411-0.626c0.826-0.636,0.989-1.59,0.72-2.582c-0.354-1.322-1.316-2.062-2.576-2.308
			c-0.91-0.177-1.462,0.548-1.938,1.232c-0.157,0.223-0.303,0.452-0.436,0.687c-0.49,0.867-0.77,1.764-0.129,2.671
			C52.542,128.58,53.401,128.888,54.886,128.646z M66.426,193.474c0.116,0.329,0.268,0.986,0.565,1.574
			c0.604,1.178,1.916,1.597,3.063,1.051c1.234-0.586,1.718-1.703,1.25-2.967c-0.185-0.498-0.411-0.993-0.693-1.444
			c-0.629-1.019-1.602-1.366-2.755-1.037C66.773,190.958,66.236,191.872,66.426,193.474z M48.229,58.101
			c-0.293-1.416-1.301-2.085-2.641-1.752c-1.945,0.48-3.042,1.643-2.742,2.907c0.336,1.42,1.99,2.334,3.488,1.921
			C47.766,60.783,48.525,59.547,48.229,58.101z"/>
		<path fill-rule="evenodd" clip-rule="evenodd" fill="#F8383B" d="M34.311,0c1.603,2.959,3.07,5.391,4.271,7.948
			c1.932,4.097,4.334,7.858,7.208,11.353c2.486,3.02,2.733,6.435,1.268,9.976c-0.781,1.885-2.235,2.979-4.276,3.419
			c-3.363,0.723-6.501,0.452-9.348-1.631c-1.608-1.173-2.788-2.633-2.953-4.688c-0.175-2.166-0.542-4.362-0.342-6.498
			c0.454-4.882,1.138-9.744,1.87-14.592C32.26,3.58,32.534,1.777,34.311,0z M36.866,16.937c-1.435,3.082-1.547,6.15-0.998,9.263
			c0.285,1.608,1.31,2.309,2.906,2.237c0.404-0.018,0.812-0.083,1.205-0.176c2.01-0.475,2.917-2.241,1.913-4.031
			c-1.324-2.361-2.809-4.629-4.235-6.93C37.598,17.207,37.421,17.185,36.866,16.937z"/>
	</g>
	<path clip-path="url(#SVGID_2_)" fill-rule="evenodd" clip-rule="evenodd" fill="#F8A613" d="M87.304,83.658
		c-1.402,3.71-4.392,5.81-6.69,8.431c-0.698,0.798-0.938,0.738-3.798,1.151c-2.199-5.931-4.598-11.847-6.342-17.945
		c0.652-0.3,0.999-0.604,1.189-0.526C77.228,77.004,82.047,80.506,87.304,83.658z"/>
	<path clip-path="url(#SVGID_2_)" fill-rule="evenodd" clip-rule="evenodd" fill="#F8CF13" d="M36.914,144.701
		c-0.802,0.29-1.15,0.556-1.375,0.478c-4.703-1.686-9.391-3.41-14.327-5.213c0.477-0.766,0.744-1.334,1.134-1.795
		c2.651-3.136,4.676-6.599,5.685-10.616c0.319-1.277,0.773-2.483,2.576-2.844C33.115,131.168,34.235,138.055,36.914,144.701z"/>
	<g clip-path="url(#SVGID_2_)">
		<path fill-rule="evenodd" clip-rule="evenodd" fill="#F85B68" d="M156.119,238.911c0.422-5.263,0.816-10.199,1.227-15.301
			c4.229-0.928,8.162-0.232,12.08,0.411c2.055,0.341,2.621,0.756,5.814,3.398c0.354,3.721,0.058,7.53-0.865,11.491
			C168.396,238.911,162.493,238.911,156.119,238.911z"/>
		<path fill-rule="evenodd" clip-rule="evenodd" fill="#F8383B" d="M172.091,121.543c0.317,0.766,0.794,1.364,0.755,1.923
			c-0.376,5.186,0.857,10.099,2.175,15.048c0.479,1.805,0.36,3.875,0.064,5.751c-0.364,2.288-1.765,4.112-4.49,3.925
			c-1.237-0.081-2.493,0.045-3.728-0.05c-2.957-0.234-4.771-2.132-4.938-5.061c-0.137-2.384,0.24-4.589,1.488-6.735
			c2.637-4.526,5.059-9.177,7.596-13.765C171.193,122.253,171.568,122.037,172.091,121.543z M170.779,140.953
			c-0.247-1.151-0.5-2.63-0.902-4.063c-0.199-0.698-1.33-0.816-1.698-0.232c-1.557,2.452-2.008,5.118-1.188,7.896
			c0.138,0.466,1.035,0.972,1.584,0.973c0.55,0.001,1.407-0.491,1.586-0.973C170.535,143.55,170.558,142.412,170.779,140.953z"/>
		<path fill-rule="evenodd" clip-rule="evenodd" fill="#F85B68" d="M156.311,252.662c4.469-1.202,12.795-0.742,16.867,0.853
			c0.551,3.368,0.402,4.983-0.92,9.477c-5.143,0.242-10.363,0.06-15.508,0.132C155.724,260.509,155.604,257.486,156.311,252.662z"/>
		<path fill-rule="evenodd" clip-rule="evenodd" fill="#F85B68" d="M168.047,151.614c3.193,0.759,4.352,2.665,4.486,5.523
			c0.064,1.346,0.691,2.659,0.961,4.008c0.371,1.875,1.545,3.592,1.111,5.938c-2.377,0.464-4.828,0.066-7.252,0.101
			c-2.481,0.036-4.963,0.008-7.619,0.008c-0.088-3.144,0.416-6.104,1.219-9.005c0.756-2.71,2.872-4.322,5.119-5.743
			C166.647,152.076,167.343,151.903,168.047,151.614z"/>
		<path fill-rule="evenodd" clip-rule="evenodd" fill="#F89C97" d="M175.012,211.594c0.736,3.951,0.151,7.925,0.422,11.771
			c-0.494,0.214-0.828,0.471-0.951,0.395c-3.673-2.302-7.837-2.516-11.967-2.822c-1.371-0.101-2.752-0.016-4.254-0.016
			c-0.873-2.78,0.006-5.282,0.13-7.803c1.485-0.913,2.944-1.208,4.476-1.276c3.589-0.158,7.18-0.326,10.767-0.469
			C174.024,211.36,174.422,211.495,175.012,211.594z"/>
		<path fill-rule="evenodd" clip-rule="evenodd" fill="#F89C97" d="M156.098,242.148c6.205-1.004,12.063-0.488,18.018-0.123
			c0.666,3.078,0.274,5.728-0.387,8.296c-0.416,0.14-0.719,0.358-0.916,0.292c-3.35-1.16-6.818-0.884-10.263-0.865
			c-2.046,0.008-4.089,0.001-6.366,0.001C155.722,247.325,155.889,245.042,156.098,242.148z"/>
		<path fill-rule="evenodd" clip-rule="evenodd" fill="#F89C97" d="M159.384,178.761c-0.532-3.151-0.551-5.851,0.149-8.772
			c4.135-0.795,8.307-0.207,12.428-0.417c0.906-0.046,1.834,0.345,2.877,0.562c0.646,2.757,0.273,5.361,0.373,8.141
			c-0.949,0.186-1.723,0.46-2.496,0.469C168.42,178.783,164.124,178.761,159.384,178.761z"/>
		<path fill-rule="evenodd" clip-rule="evenodd" fill="#F85B68" d="M158.548,210.101c-0.602-2.9-0.482-5.599-0.083-8.257
			c2.91-0.662,11.77-0.798,16.36-0.258c0.981,2.175,0.487,4.456,0.319,6.789C169.678,210.163,164.096,209.177,158.548,210.101z"/>
		<path fill-rule="evenodd" clip-rule="evenodd" fill="#F89C97" d="M175.16,191.393c0,2.488,0,4.801,0,7.072
			c-2.937,0.716-10.154,0.861-16.369,0.353c-1.085-2.174-0.475-4.474-0.383-6.688C162.916,190.38,169.951,190.04,175.16,191.393z"/>
		<path fill-rule="evenodd" clip-rule="evenodd" fill="#F85B68" d="M155.568,284.125c0-2.601,0-4.636,0-6.708
			c5.482-1.5,10.877-0.637,16.156-0.84c0.99,2.948,1.024,4.28,0.242,8.03c-2.719,0.657-5.393-0.595-8.127-0.502
			C161.227,284.194,158.61,284.125,155.568,284.125z"/>
		<path fill-rule="evenodd" clip-rule="evenodd" fill="#F89C97" d="M172.375,273.165c-5.587,0.354-10.662,0.675-15.958,1.01
			c-0.456-2.519-0.223-5.207-0.076-8.122c0.94-0.098,1.726-0.248,2.519-0.249c3.729-0.013,7.457-0.028,11.184,0.05
			c1.971,0.044,2.409,0.525,2.46,2.517C172.539,269.863,172.43,271.359,172.375,273.165z"/>
		<path fill-rule="evenodd" clip-rule="evenodd" fill="#F85B68" d="M159.224,181.126c3.267-0.532,12.103-0.534,15.647,0
			c0.748,2.318,0.387,4.749,0.284,7.463c-5.456,0.069-10.839-0.914-16.202,1.134C158.1,186.575,158.698,183.83,159.224,181.126z"/>
		<path fill-rule="evenodd" clip-rule="evenodd" fill="#F89C97" d="M155.621,287.641c4.623-0.916,11.697-0.576,16.054,0.726
			c-0.077,4.349-1.858,6.39-5.981,6.763c-1.377,0.126-2.766,0.158-4.149,0.146c-4.131-0.039-6.066-1.981-6.124-6.119
			C155.41,288.634,155.559,288.108,155.621,287.641z"/>
	</g>
</g>
</svg>
