<?xml version="1.0" encoding="utf-8"?>
<!-- Generator: Adobe Illustrator 16.0.0, SVG Export Plug-In . SVG Version: 6.00 Build 0)  -->
<!DOCTYPE svg PUBLIC "-//W3C//DTD SVG 1.1//EN" "http://www.w3.org/Graphics/SVG/1.1/DTD/svg11.dtd">
<svg version="1.1" id="Capa_1" xmlns="http://www.w3.org/2000/svg" xmlns:xlink="http://www.w3.org/1999/xlink" x="0px" y="0px"
	 width="133.881px" height="231.75px" viewBox="0 0 133.881 231.75" enable-background="new 0 0 133.881 231.75"
	 xml:space="preserve">
<g>
	<defs>
		<rect id="SVGID_1_" width="134.128" height="231.75"/>
	</defs>
	<clipPath id="SVGID_2_">
		<use xlink:href="#SVGID_1_"  overflow="visible"/>
	</clipPath>
	<path clip-path="url(#SVGID_2_)" fill-rule="evenodd" clip-rule="evenodd" fill="#F8A613" d="M115.52,223.175
		c-1.256,3.319-3.931,5.2-5.988,7.545c-0.625,0.713-0.839,0.659-3.399,1.03c-1.969-5.308-4.116-10.603-5.677-16.063
		c0.583-0.269,0.894-0.541,1.064-0.471C106.5,217.22,110.814,220.353,115.52,223.175z"/>
	<path clip-path="url(#SVGID_2_)" fill-rule="evenodd" clip-rule="evenodd" fill="#F85B68" d="M99.529,51.001
		c-2.689,3.972-5.495,7.863-8.023,11.922c-2.35,3.775-4.375,7.752-6.612,11.598c-0.741,1.275-1.587,2.521-2.573,3.61
		c-2.065,2.286-5.095,1.487-6.007-1.512c-0.162-0.529-0.265-1.081-0.351-1.628c-1.612-10.252-3.217-20.502-4.822-30.741
		c-1.809-1.045-2.795,0.22-3.766,1.317c-5.035,5.679-10.043,11.383-15.059,17.08c-0.488,0.555-0.901,1.191-1.446,1.679
		c-1.128,1.011-2.998,1.226-4.139,0.502c-1.075-0.684-1.166-1.787-1.173-2.938c-0.062-8.33-0.618-16.661,0.168-24.986
		c0.045-0.48-0.228-0.99-0.456-1.893c-0.82,0.326-1.581,0.436-2.074,0.859c-2.532,2.158-5.078,4.316-7.457,6.638
		c-2.11,2.06-3.764,4.547-6.546,5.938c-1.089,0.542-1.759,1.876-2.735,2.713c-1.114,0.95-2.253,1.991-3.567,2.563
		c-3.508,1.53-4.998,0.522-4.647-3.204c0.797-8.503,1.756-16.989,2.648-25.484c0.07-0.683,0.125-1.368,0.231-2.535
		c-2.486,0.554-3.769,2.182-5.249,3.411c-2.696,2.24-5.358,4.527-7.94,6.899c-1.067,0.982-1.825,2.299-2.846,3.338
		c-0.624,0.633-1.427,1.174-2.251,1.503c-1.212,0.49-2.731-0.603-2.812-1.901c-0.033-0.55-0.049-1.122,0.068-1.653
		c0.847-3.8,1.729-7.59,2.603-11.381c0.124-0.543,0.337-1.073,0.402-1.622C3.914,14.272,5.813,7.682,7.611,0.835
		c-2-2.42-3.989-4.828-6.495-7.858c1.431,0.326,2.304,0.304,2.87,0.706c0.891,0.633,1.605,1.527,2.346,2.358
		c9.48,10.636,20.519,19.367,32.937,26.262c7.127,3.96,14.526,7.452,21.917,10.913c3.339,1.562,6.954,2.542,10.448,3.767
		c0.52,0.184,1.138,0.149,1.603,0.409c6.452,3.636,13.733,4.404,20.759,6.042c1.438,0.332,2.941,0.375,4.407,0.604
		c2.188,0.34,4.364,0.767,6.556,1.083c2.742,0.392,5.537,1.178,8.232,0.937c2.999-0.271,5.915-0.073,8.872,0.084
		c2.575,0.137,5.142,0.116,7.73,0.04c4.565-0.138,9.158,0.674,13.786,1.095c-0.264,2.015-1.753,2.623-3.51,2.746
		c-2.586,0.181-5.179,0.237-7.929,0.352c-3.405,3.762-5.807,8.208-7.685,12.763c-1.361,3.298-3.447,6.11-4.897,9.302
		c-0.762,1.674-1.857,3.195-2.781,4.797c-1.262,2.19-3.377,2.646-4.917,0.837c-2.284-2.684-4.352-5.505-5.466-8.966
		c-1.868-5.811-3.92-11.563-5.93-17.327C100.367,51.497,99.938,51.328,99.529,51.001z M80.601,74.922
		c3.049-5.348,5.402-9.95,8.206-14.26c2.773-4.255,5.755-8.36,8.04-13.414c-3.982-0.982-7.566-1.814-11.119-2.754
		c-3.708-0.982-7.389-2.065-11.084-3.104c-0.838,3.667-0.793,3.916,0.009,7.679c1.077,5.057,2.072,10.131,3.114,15.194
		C78.433,67.489,78.948,70.757,80.601,74.922z M26.538,17.682c-2.814,8.19-3.855,15.469-4.382,30.157
		c-0.017,0.445,0.369,0.909,0.706,1.677c1.216-1.187,2.095-2.417,3.283-3.137c3.233-1.964,5.686-4.667,8.01-7.569
		c0.796-0.996,1.898-1.757,2.898-2.578c2.145-1.766,4.35-3.458,6.453-5.269c0.739-0.637,1.254-1.535,1.887-2.335
		C38.994,24.913,32.951,21.404,26.538,17.682z"/>
</g>
</svg>
