<?xml version="1.0" encoding="utf-8"?>
<!-- Generator: Adobe Illustrator 16.0.0, SVG Export Plug-In . SVG Version: 6.00 Build 0)  -->
<!DOCTYPE svg PUBLIC "-//W3C//DTD SVG 1.1//EN" "http://www.w3.org/Graphics/SVG/1.1/DTD/svg11.dtd">
<svg version="1.1" id="Capa_1" xmlns="http://www.w3.org/2000/svg" xmlns:xlink="http://www.w3.org/1999/xlink" x="0px" y="0px"
	 width="271.102px" height="211.07px" viewBox="0 0 271.102 211.07" enable-background="new 0 0 271.102 211.07"
	 xml:space="preserve">
<g>
	<g>
		<defs>
			<rect id="SVGID_1_" x="0" y="0" width="271.102" height="211.07"/>
		</defs>
		<clipPath id="SVGID_2_">
			<use xlink:href="#SVGID_1_"  overflow="visible"/>
		</clipPath>
		<g clip-path="url(#SVGID_2_)">
			<g>
				<g>
					<path fill="#F9B732" d="M220.675,257.207c-0.108-0.791,0.119-1.601-0.292-2.387c-0.896-1.713-1.171-3.637-1.675-5.479
						c-0.413-1.512-0.264-3.154-1.105-4.571c-0.229-0.388-0.54-0.879-0.476-1.264c0.234-1.373-0.672-2.355-1.041-3.513
						c-0.479-1.497-1.753-2.575-2.066-4.224c-0.322-1.678-1.5-3.096-1.813-4.844c-0.065-0.359-0.43-0.961-0.876-1.207
						c-1.593-0.887-2.366-2.52-3.089-3.957c-0.894-1.783-2.39-3.071-3.275-4.837c-0.489-0.975-1.113-2.066-2.232-2.616
						c-0.083-0.041-0.186-0.146-0.189-0.229c-0.061-1.349-1.379-1.917-1.862-3.008c-0.131-0.292-0.474-0.513-0.869-0.513
						c-0.356,0-0.628-0.051-0.452-0.543c0.164-0.457-0.304-0.59-0.544-0.78c-0.24-0.188-0.479-0.311-0.644-0.626
						c-0.872-1.7-2.461-2.833-3.557-4.374c-0.288-0.401-0.912-0.604-1.118-1.226c-0.464-1.396-1.385-2.521-2.567-3.325
						c-0.616-0.419-0.952-0.904-1.021-1.525c-0.078-0.688-0.302-1.161-0.91-1.5c-0.17-0.098-0.27-0.392-0.397-0.574
						c-1.056-1.492-1.754-3.198-2.997-4.595c-1.128-1.268-2.269-2.537-3.142-4.053c-0.936-1.623-1.542-3.42-2.697-4.936
						c-0.328-0.431-0.778-0.919-0.856-1.506c-0.234-1.748-1.347-3.16-1.749-4.873c-0.433-1.841-1.54-3.556-1.735-5.438
						c-0.291-2.785-1.322-5.449-1.169-8.306c0.111-2.045-0.427-4.068-0.764-6.063c-0.479-2.832-0.429-5.605-0.095-8.41
						c0.056-0.469-0.203-0.993-0.459-0.891c-0.92,0.377-1.529-0.371-2.304-0.452c-1.697-0.175-3.214-0.986-4.829-1.43
						c-0.862-0.236-1.438-0.945-2.313-1.056c-1.239-0.156-2.462-0.35-3.581-0.979c-0.713-0.398-1.008-0.938-0.851-1.739
						c0.194-0.985,0.921-1.239,1.76-1.146c1.953,0.226,3.857,0.738,5.818,0.948c2.027,0.217,3.839,1.165,5.717,1.868
						c0.673,0.252,0.953,0.224,0.922-0.593c-0.042-1.096,0.231-2.253-0.036-3.277c-0.364-1.392,0.264-2.62,0.267-3.938
						c0-0.767-0.219-1.028-0.836-1.097c-0.738-0.082-1.457-0.113-2.194-0.375c-0.375-0.133-0.901-0.476-1.366-0.271
						c-1.149,0.506-2.229,0.095-3.326-0.157c-0.303-0.07-0.64-0.284-0.898-0.21c-1.065,0.304-2.038-0.228-3.056-0.299
						c-0.795-0.056-1.064-0.854-1.023-1.622c0.033-0.642,0.961-1.604,1.482-1.521c0.76,0.118,1.496-0.118,2.303,0.1
						c0.634,0.17,1.246,0.481,1.923,0.552c1.966,0.202,3.925,0.475,5.894,0.649c0.192,0.019,0.664,0.219,0.816-0.364
						c0.283-1.093,0.24-2.198,0.297-3.297c0.066-1.295,0.009-2.596,0.004-3.895c-0.001-0.518,0.346-1.371,0.3-1.413
						c-0.799-0.752-0.39-1.726-0.317-2.47c0.161-1.697,0.158-3.344-0.253-4.994c-0.077-0.303-0.133-0.622-0.121-0.93
						c0.082-1.917-0.63-3.726-0.711-5.638c-0.072-1.708-0.614-3.408-0.876-5.086c-0.274-1.765-1.166-3.518-0.683-5.393
						c0.033-0.125,0.013-0.294-0.048-0.41c-0.843-1.577-0.849-3.39-1.409-5.045c-0.083-0.247-0.03-0.552,0.003-0.823
						c0.227-1.873,0.635-3.71,1.074-5.546c0.258-1.084,0.225-2.209,0.774-3.258c0.509-0.969,0.201-2.222,0.862-3.171
						c0.433-0.621,0.085-1.409,0.427-1.968c0.534-0.875,0.886-1.849,1.15-2.774c0.374-1.312,0.986-2.6,0.935-4.019
						c-0.004-0.143,0.101-0.216,0.185-0.323c0.792-1.025,1.353-2.251,1.542-3.458c0.222-1.42,0.678-2.792,1.168-4.049
						c0.706-1.808,1.553-3.559,1.922-5.478c0.085-0.448,0.522-0.521,0.609-1.004c0.315-1.757-0.216-3.38-0.536-5.047
						c-0.205-1.064-0.966-1.486-1.85-1.832c-1.364-0.536-2.703-0.416-4.005,0.18c-1.318,0.604-2.681,1.107-3.975,1.778
						c-0.3,0.154-0.187,0.668-0.861,0.586c-1.893-0.232-3.176,1.298-4.724,2.063c-0.899,0.443-1.602,1.27-2.484,1.76
						c-1.554,0.862-2.712,2.227-4.201,3.16c-0.877,0.551-1.599,1.216-2.102,2.163c-0.442,0.831-1.457,1.021-2.183,1.545
						c-0.869,0.628-1.703,1.38-2.677,1.773c-1.69,0.687-2.815,1.97-3.938,3.271c-0.868,1.011-2.426,1.011-3.12-0.104
						c-0.437-0.701-1.412-0.758-1.894-0.103c-0.486,0.666-1.156,0.463-1.719,0.264c-0.521-0.187-0.982-0.863-0.722-1.271
						c0.839-1.308-0.014-1.664-0.939-2.101c-0.193-0.091-0.268-0.412-0.456-0.536c-1.085-0.704-1.991-1.643-3.169-2.25
						c-0.484-0.25-1.107-0.872-1.469-0.925c-1.094-0.164-2.02-0.367-2.589-1.405c-0.014-0.027-0.212,0.082-0.29,0.048
						c-1.082-0.46-2.395-0.245-3.324-1.164c-0.204-0.202-0.462-0.312-0.828-0.312c-1.363,0.001-2.28-1.392-3.719-1.271
						c-0.098,0.009-0.205-0.265-0.328-0.384c-0.719-0.691-1.698-1.074-2.569-1.201c-1.731-0.253-3.272-1.144-5.053-1.238
						c-1.05-0.057-2.026-0.714-3.162-0.699c-0.733,0.009-1.449-0.336-2.164-0.504c-0.626-0.148-1.124-0.58-1.803-0.595
						c-1.167-0.024-2.264-0.503-3.438-0.612c-1.42-0.133-2.738-0.629-4.268-0.573c-1.552,0.056-3.2-0.116-4.8-0.196
						c-0.788-0.039-0.809-0.377-0.751-0.875c0.19-1.657,0.233-3.316,0.226-4.983c-0.006-1.272-0.002-2.567,0.08-3.813
						c0.111-1.651,0.661-3.299,0.471-4.98c-0.111-0.986,0.042-1.958-0.086-2.949c-0.226-1.752-0.375-3.537-0.316-5.3
						c0.087-2.536,0.446-5.069-1.258-7.284c-0.51-0.664-1.067-1.407-1.927-1.349c-1.589,0.11-2.984,0.895-4.099,1.977
						c-0.761,0.74-1.684,1.204-2.471,1.878c-1.221,1.046-2.545,1.972-3.748,3.037c-0.377,0.333-0.708,0.776-0.941,1.313
						c-0.539,1.239-1.225,2.614-2.293,3.277c-1.027,0.637-1.273,1.979-2.523,2.296c-0.268,0.068-0.471,0.594-0.601,0.947
						c-0.332,0.902-0.856,1.623-1.515,2.335c-0.271,0.295-0.865,0.4-0.836,0.76c0.055,0.714-0.41,1.017-0.774,1.477
						c-0.941,1.189-2.033,2.249-2.633,3.729c-0.692,1.712-1.519,3.401-3.017,4.631c-0.215,0.177-0.29,0.546-0.388,0.84
						c-0.149,0.453-0.267,0.896-0.521,1.328c-0.76,1.293-1.562,2.563-2.337,3.837c-0.581,0.953-1.331,1.836-1.747,2.888
						c-0.432,1.091-1.655,1.663-1.832,2.926c-0.042,0.298-0.49,0.339-0.791,0.425c-0.933,0.266-1.609,0.809-2.25,1.577
						c-0.778,0.933-1.321,2.054-2.668,2.593c-1.019,0.409-1.766,1.537-2.946,1.891c-0.234,0.069-0.215,0.349-0.34,0.49
						c-0.314,0.36-0.573,0.766-0.907,1.12c-0.85,0.903-1.704,1.84-2.337,2.897c-0.742,1.234-1.799,2.229-2.927,2.864
						c-1.22,0.688-1.764,1.635-2.189,2.766c-0.112,0.3-0.312,0.583-0.365,0.783c-0.27,0.981-1.289,1.311-1.662,2.162
						c-0.728,1.66-2.259,2.838-2.838,4.576c-0.452,1.356-1.751,2.254-1.968,3.694c-0.167,1.129-0.999,1.865-1.555,2.724
						c-0.618,0.953-0.938,2.008-1.427,2.993c-0.603,1.206-0.985,2.528-1.396,3.821c-0.515,1.627-1.637,3.043-1.668,4.838
						c-0.001,0.083-0.101,0.192-0.182,0.246c-0.682,0.442-0.782,1.296-0.972,1.897c-0.639,2.025-0.517,4.239-1.256,6.259
						c-0.367,1-0.349,2.046-0.475,3.054c-0.178,1.42-0.905,2.777-0.76,4.164c0.141,1.352,0.103,2.668,0.017,4
						c-0.058,0.905-0.116,1.802,0.129,2.688c0.42,1.524-0.071,3.073,0.179,4.641c0.191,1.201-0.024,2.442,0.735,3.545
						c0.175,0.251,0.136,0.669,0.145,1.013c0.048,1.752,0.935,3.29,1.256,4.973c0.015,0.075,0.155,0.123,0.229,0.19
						c0.636,0.568,1.059,1.412,1.172,2.111c0.295,1.816,0.994,3.479,1.506,5.214c0.321,1.093,1.095,1.976,1.423,2.942
						c0.413,1.216,1.106,2.317,1.363,3.651c0.333,1.734,1.176,3.388,1.542,5.164c0.159,0.779-0.091,1.612,0.344,2.349
						c0.3,0.511,0.321,1.06,0.221,1.632c-0.085,0.486-0.102,0.98,0.032,1.463c0.572,2.033,0.764,4.131,1.071,6.206
						c0.529,3.576,0.315,7.212,0.81,10.802c1.05,7.628,1.503,15.326,1.013,22.987c-0.389,6.059-0.059,12.097-0.276,18.141
						c-0.063,1.719-0.126,3.46-0.138,5.188c-0.021,3.354-0.198,6.707-0.254,10.064c-0.066,4.169,0.169,8.339-0.098,12.512
						c-0.201,3.146-0.598,6.299-0.392,9.447c0.164,2.498,0.799,4.995,0.592,7.485c-0.134,1.626-0.018,3.232,0.013,4.823
						c0.04,2.027-0.006,4.121,0.655,6.102c0.175,0.521-0.179,1.051,0.136,1.576c0.434,0.723,0.399,1.55,0.289,2.346
						c-0.068,0.5,0.03,0.917,0.167,1.396c0.224,0.789,0.67,1.522,0.666,2.385c-0.006,1.493-0.47,3.01,0.202,4.473
						c0.037,0.08,0.001,0.206-0.026,0.304c-0.326,1.158,0.421,2.16,0.738,3.125c0.256,0.784,0.681,1.72,0.877,2.498
						c0.346,1.362,0.755,2.644,1.308,3.941c0.605,1.415,2.106,1.927,2.653,3.323c0.128-0.285,0.106-0.489,0.107-0.692
						c0.005-1.699-0.342-3.408,0.062-5.095c0.123-0.516,0.313-1.114,1.101-0.99c0.694,0.108,1.184,0.33,1.229,1.183
						c0.125,2.273,0.333,4.547,0.486,6.819c0.041,0.602-0.015,1.326,0.795,1.309c0.663-0.018,1.162,0.491,1.805,0.383
						c0.312-0.054,0.179-0.271,0.199-0.475c0.114-1.114-0.096-2.226,0.037-3.352c0.096-0.81,0.167-1.66-0.006-2.494
						c-0.166-0.794,0.409-1.638,1.106-1.688c0.668-0.048,1.129,0.649,1.27,1.492c0.258,1.554,0.152,3.082-0.029,4.623
						c-0.087,0.753,0.268,0.771,0.879,0.527c1.449-0.576,1.832-1.938,2.166-3.173c0.205-0.767,0.72-1.247,1.076-1.816
						c0.669-1.081,1.433-2.153,1.689-3.36c0.423-1.991,0.725-4.024,0.823-6.074c0.023-0.477,0.344-0.986,0.24-1.409
						c-0.287-1.173,0.068-2.109,0.646-3.099c0.249-0.426,0.709-1.157,0.374-1.522c-0.494-0.538-0.174-0.865,0.003-1.251
						c0.431-0.943,0.737-2.112,0.491-2.924c-0.428-1.416,0.929-2.748-0.052-4.064c-0.048-0.063,0.036-0.288,0.12-0.382
						c0.481-0.549,0.388-1.291,0.437-1.885c0.163-1.936,0.375-3.87,0.229-5.837c-0.053-0.722-0.046-1.515-0.017-2.272
						c0.057-1.419,0.392-2.767,0.77-4.104c0.354-1.253,0.542-2.533,0.777-3.804c0.203-1.101,0.687-2.104,0.647-3.313
						c-0.029-0.908-0.229-1.881,0.052-2.819c0.704-2.352,1.796-4.608,1.739-7.15c-0.006-0.233,0.061-0.518,0.197-0.697
						c0.563-0.741,0.795-1.568,0.842-2.485c0.02-0.372,0.173-0.83,0.666-0.807c0.52,0.025,0.383,0.512,0.396,0.822
						c0.1,2.364,0.176,4.729,0.261,7.097c0.026,0.719-0.083,1.455-0.08,2.137c0.004,1.019-0.414,2.003-0.111,3.059
						c0.368,1.276-0.091,2.609,0.108,3.947c0.199,1.326-0.555,2.653-0.375,4.042c0.104,0.797,0.25,1.728,0.037,2.386
						c-0.734,2.265-0.078,4.632-0.711,6.875c-0.028,0.097-0.029,0.207-0.017,0.308c0.202,1.614,0.197,3.236,0.213,4.86
						c0.011,0.849-0.006,1.734,0.229,2.534c0.496,1.69,0.749,3.462,0.67,5.147c-0.072,1.578,0.261,3.054,0.541,4.509
						c0.468,2.436,1.208,4.816,1.568,7.285c0.104,0.717-0.067,1.401,0.036,2.133c0.178,1.232,0.95,2.196,1.204,3.346
						c0.285,1.294,1.338,2.125,1.806,3.313c0.142,0.363,0.658,0.889,1.316,0.912c0.089-1.066,0.246-2.089,0.054-3.167
						c-0.194-1.097-0.391-2.246,0.071-3.361c0.209-0.505,0.396-1.063,1.062-0.928c0.637,0.128,1.151,0.684,1.071,1.263
						c-0.335,2.426,0.425,4.896-0.439,7.266c0.632,0.191,1.168-0.025,1.79,0.288c0.911,0.456,1.587-0.311,1.384-1.378
						c-0.235-1.234-0.089-2.45,0.134-3.665c0.104-0.567,0.365-1.041,1.02-0.941c0.646,0.097,1.079,0.554,1.055,1.219
						c-0.025,0.665,0.395,1.347-0.124,2.024c-0.153,0.199-0.001,0.683,0.248,0.921c0.08,0.078,0.44,0.068,0.523-0.18
						c0.266-0.789,0.768-1.404,1.323-2.01c0.881-0.955,1.124-2.278,1.826-3.331c0.833-1.251,1.65-2.444,1.966-3.988
						c0.252-1.229,0.649-2.465,1.072-3.645c0.7-1.949,1.714-3.788,2.64-5.652c1.674-3.374,2.313-7.039,3.042-10.678
						c0.356-1.768,0.939-3.482,1.154-5.425c1.592,0.986,1.967,2.771,3.394,3.728c1.104,0.737,1.948,1.893,3.027,2.731
						c0.237,0.186,0.716-0.018,0.758,0.522c0.053,0.655,0.482,1.017,1.072,1.268c0.412,0.176,0.806,0.436,1.143,0.73
						c0.233,0.208,0.505,0.466-0.019,0.809c-0.81,0.526-1.63,0.989-2.542,1.321c-0.979,0.358-1.957,0.792-2.645,1.61
						c-1.326,1.577-2.598,3.2-3.895,4.802c-0.418,0.518-0.566,1.146-0.741,1.764c0.638,0.149,1.225,0.013,1.857-0.15
						c1.372-0.349,2.755,0.075,4.122,0.229c0.486,0.056,0.922,0.589,0.734,1.216c-0.206,0.683-0.727,0.988-1.445,0.956
						c-2.077-0.099-3.771,0.962-5.465,1.914c-0.841,0.472-0.801,1.683-0.106,3.009c0.436,0.826,0.912,0.113,1.373,0.04
						c0.237-0.038,0.48-0.053,0.716-0.104c1.886-0.412,3.804-0.235,5.705-0.335c0.618-0.032,1.046,0.035,1.185,0.688
						c0.153,0.739-0.286,1.119-0.911,1.3c-1.608,0.464-3.23,0.882-4.837,1.352c-0.354,0.103-0.912,0.146-0.947,0.526
						c-0.035,0.371,0.16,0.828,0.538,1.118c0.974,0.751,2.075,1.352,2.769,2.438c0.148,0.23,0.479,0.398,0.832,0.165
						c0.165-0.108,0.379-0.154,0.596-0.023c1.024,0.614,2.199,0.854,3.292,1.295c1.882,0.76,3.896,0.665,5.83,0.841
						c1.862,0.168,3.774,0.245,5.68,0.213c1.815-0.03,3.664,0.146,5.499,0.127c1.237-0.016,2.403,0.553,3.645,0.382
						c2.604-0.36,5.228,0.042,7.833-0.247c0.125-0.016,0.264,0.108,0.397,0.122c1.599,0.146,3.178,0.438,4.81,0.097
						c1.001-0.21,2.017-0.561,3.128-0.091c0.961,0.405,2.062,0.175,3.104,0.08c0.199-0.021,0.346-0.163,0.589-0.115
						c1.646,0.332,3.262,0.34,4.84-0.397c0.419-0.196,0.968-0.262,1.43-0.197c2.705,0.368,5.39-0.041,8.074-0.18
						c2.402-0.123,4.794-0.173,7.193-0.008c0.411,0.028,0.775,0.276,1.221,0.192c1.82-0.342,3.656-0.603,5.461-1
						c1.745-0.386,3.438-0.876,5.281-0.707c0.799,0.073,1.817,0.082,2.482-0.518c0.877-0.787,1.992-0.682,2.979-1.005
						c3.317-1.083,6.813-1.634,9.942-3.271c1.108-0.581,1.996-1.675,3.382-1.589c1.445,0.089,2.748-0.488,3.8-1.212
						c1.379-0.947,3.272-1.158,4.177-2.803c0.075-0.138,0.258-0.243,0.414-0.306c1.264-0.5,2.219-1.472,3.357-2.162
						c0.563-0.344,1.172-0.658,1.417-1.311c0.479-1.281,1.515-2.259,1.912-3.576c0.063-0.214,0.232-0.326,0.422-0.441
						c1.429-0.861,2.342-2.134,2.781-3.72c0.44-1.586,1.148-3.052,2.039-4.404c0.982-1.493,1.688-3.126,1.324-4.826
						c-0.216-1.01,0.092-1.695,0.3-2.541c0.571-2.311,0.612-4.695,0.851-7.055c0.058-0.573-0.32-1.096-0.286-1.554
						C221.233,261.239,220.952,259.218,220.675,257.207z M39.833,223.096c0.267-0.578,0.859-0.712,1.479-0.505
						c1.081,0.362,1.454,1.1,1.152,2.188c0.069,0.768,0.008,1.502-0.367,2.205c-0.267,0.5-0.589,0.885-1.181,0.804
						c-0.552-0.074-0.926-0.436-1.118-0.975C39.357,225.569,39.275,224.307,39.833,223.096z M42.661,237.708
						c-0.185,0.775-0.171,1.656-1.129,1.85c-0.639,0.129-1.508-0.921-1.624-1.795c-0.036-0.277-0.043-0.557-0.064-0.834
						c0.085-1.481,0.482-2.939,0.366-4.44c-0.052-0.672-0.064-1.312,0.148-1.988c0.144-0.453,0.401-0.696,0.748-0.729
						c0.396-0.039,0.834,0.125,0.981,0.589c0.167,0.526,0.479,1.098,0.396,1.597C42.17,233.891,43.12,235.767,42.661,237.708z
						 M41.433,217c-0.604-0.155-0.935-0.694-0.912-1.306c0.029-0.789,0.77-1.439,1.549-1.358c0.479,0.124,0.921,0.39,0.865,1.102
						C42.87,216.281,42.08,217.165,41.433,217z M41.644,211.067c-0.503-0.028-1.629-1.136-1.576-1.547
						c0.048-0.356,1.598-1.53,2.012-1.524c0.833,0.013,1.446,0.706,1.408,1.593C43.446,210.534,42.706,211.128,41.644,211.067z
						 M42.818,204.334c-0.534-0.001-1.453-1.129-1.439-1.769c0.013-0.628,0.87-1.535,1.438-1.521c0.81,0.021,1.66,0.929,1.669,1.783
						C44.495,203.584,43.664,204.334,42.818,204.334z M155.412,79.437c0.491-0.735,0.576-1.681,0.979-2.507
						c1.101-2.254,2.408-4.327,4.431-5.856c0.476-0.359,1.081-0.568,1.653-0.771c0.624-0.221,1.116,0.028,1.346,0.646
						c0.208,0.563-0.013,0.896-0.621,1.079c-0.749,0.227-1.08,0.99-1.426,1.564c-1.006,1.672-1.854,3.441-2.743,5.183
						c-0.114,0.228-0.35,0.556-0.089,0.765c0.328,0.262,0.561-0.137,0.795-0.295c1.327-0.896,2.746-1.315,4.325-0.853
						c0.367,0.109,0.885,0.174,0.836,0.769c-0.038,0.48-0.243,0.891-0.707,1.082c-1.477,0.604-2.548,1.835-3.949,2.542
						c-1,0.506-1.627,1.488-2.668,1.938c-0.347,0.15-0.666,0.229-1,0.145c-0.761-0.191-2.024-1.954-2.004-2.704
						C154.693,81.178,154.849,80.278,155.412,79.437z M138.359,74.679c0.708,0.058,1.143,0.557,1.171,1.258
						c0.042,1.054-0.819,1.944-1.866,1.925c-0.606-0.134-1.334-0.341-1.414-1.167C136.157,75.722,137.354,74.599,138.359,74.679z
						 M135.263,105.709c1.529,0.289,3.432,0.84,5.169,1.888c1.292,0.778,2.71,1.424,3.519,2.775c1.1,1.841,2.167,3.836,1.341,5.99
						c-0.641,1.677-1.378,3.489-3.328,4.266c-0.307,0.123-0.49,0.33-0.92,0.241c-0.801-0.167-1.158,0.765-1.926,0.981
						c-0.803,0.229-1.497,0.792-2.443,0.757c-0.417-0.014-0.91-0.104-1.362,0.325c-0.344,0.327-1.207,0.266-0.9-0.512
						c0.464-1.173-0.261-2.314,0.139-3.417c0.422-1.154-0.132-2.357,0.238-3.51c0.068-0.213,0.034-0.511-0.063-0.718
						c-0.719-1.537-0.142-3.172-0.389-4.726c-0.178-1.114,0.119-2.241-0.208-3.317C133.81,105.678,133.771,105.69,135.263,105.709z
						 M116.043,112.2c0.35-0.564,0.768-1.099,0.903-1.758c0.152-0.739,0.955-1.007,1.348-1.281c1.486-1.036,2.829-2.304,4.825-2.682
						c1.239-0.233,2.597-0.19,3.807-0.803c0.724-0.367,1.313,0.248,1.043,1.029c-0.663,1.938-0.571,3.976-0.854,5.963
						c-0.065,0.457,0.315,0.797,0.311,1.366c-0.009,1.093-0.405,2.154-0.316,3.159c0.155,1.775,0.085,3.663,1.131,5.264
						c0.24,0.366,0.543,0.833,0.277,1.13c-0.199,0.222-0.804,0.222-1.175,0.124c-1.102-0.294-2.229-0.038-3.322-0.251
						c-0.586-0.114-0.947-0.651-1.709-0.617c-1.859,0.083-3.586-0.721-4.854-1.956c-1.43-1.395-2.818-3.021-2.339-5.239
						C114.894,114.291,115.411,113.222,116.043,112.2z M84.815,113.799c0.298,1.044,1.011,1.88,1.263,2.955
						c0.168,0.709,0.868,0.701,1.476,0.446c1.462-0.612,2.901-1.285,4.384-1.85c0.676-0.257,1.359-0.684,2.171-0.338
						c0.338,0.146,0.658,0.216,0.669,0.666c0.011,0.394-0.156,0.696-0.481,0.872c-1.467,0.791-2.906,1.651-4.438,2.299
						c-0.664,0.282-1.148,0.745-1.744,1.077c-0.393,0.219-0.354,0.567-0.143,0.905c0.916,1.471,1.372,3.161,2.307,4.641
						c0.418,0.664,0.821,1.444,1.064,2.245c0.259,0.848-0.229,1.571-1.092,1.61c-1.112,0.049-2.309-1.029-2.749-2.59
						c-0.433-1.537-1.364-2.789-2.171-4.12c-0.426-0.701-1.113-0.301-1.342-0.102c-0.787,0.683-1.833,0.862-2.601,1.638
						c-0.732,0.736-1.907,0.933-2.974,1.08c-0.449,0.063-0.81-0.203-0.963-0.654c-0.25-0.742-0.282-1.521,0.383-2.016
						c0.796-0.591,1.729-0.993,2.56-1.542c1.009-0.665,2.266-0.877,3.148-1.775c0.226-0.229,0.458-0.406,0.172-0.665
						c-0.632-0.571-0.459-1.393-0.719-2.072c-0.417-1.089-1.024-2.099-1.319-3.242c-0.157-0.62-0.126-1.202,0.397-1.601
						c0.419-0.321,1.173-0.318,1.326,0.039C83.747,112.52,84.583,112.99,84.815,113.799z M75.952,48.716
						c0.621-0.374,0.941,0.124,1.146,0.538c0.641,1.313,1.669,2.36,2.494,3.839c0.717-2.267,1.23-4.35,1.38-6.524
						c0.037-0.55,0.298-1.087,0.47-1.625c0.271-0.851,0.456-1.681,0.307-2.61c-0.085-0.531,0.366-1.162,0.941-1.232
						c0.686-0.083,1.325,0.447,1.27,1.104c-0.108,1.295,0.212,2.583-0.116,3.883c-0.505,2.003-0.778,4.071-1.365,6.047
						c-0.36,1.213-0.926,2.366-1.148,3.635c-0.118,0.678-0.315,1.342-0.509,2.003c-0.275,0.941-1.236,1.327-1.982,0.701
						c-0.453-0.382-0.998-0.172-1.437-0.494c-0.545-0.398-0.938-0.82-0.808-1.541c0.343-1.883-0.266-3.661-0.585-5.472
						c-0.052-0.297-0.309-0.464-0.426-0.706C75.294,49.664,75.324,49.094,75.952,48.716z M66.893,103.156
						c0.479-0.752,0.557-1.535,0.587-2.221c0.08-1.792,0.422-3.545,0.601-5.317c0.149-1.482,0.464-2.965,0.521-4.452
						c0.032-0.923-0.316-1.849-0.227-2.812c0.117-1.227,0.162-2.46,0.228-3.69c0.036-0.665,0.215-0.647,0.633-0.197
						c1.785,1.929,3.354,3.953,4.33,6.466c0.486,1.258,1.246,2.424,1.593,3.77c0.302,1.17,0.389,2.308-0.127,3.438
						c-0.042,0.09-0.098,0.229-0.06,0.293c0.758,1.305-0.125,2.505-0.311,3.719c-0.246,1.627-2.321,3.592-4.471,3.565
						c-0.505-0.302-1.097,0.149-1.765,0.045C67.044,105.549,66.123,104.357,66.893,103.156z M52.922,87.493
						c0.063-0.164,0.217-0.35,0.18-0.483c-0.543-2.013,1.085-3.181,1.889-4.618c0.652-1.169,2.243-1.056,3.349-1.661
						c1.503-0.822,3.087-0.144,4.634-0.18c0.533-0.012,0.719,0.782,1.544,0.63c-1.223,1.105-1.781,2.222-1.735,3.564
						c0.034,0.938-0.332,1.782-0.628,2.597c-0.502,1.377-0.646,2.786-0.668,4.197c-0.023,1.323-0.227,2.628-0.364,3.926
						c-0.087,0.818,0.147,1.561,0.098,2.345c-0.081,1.291-0.206,2.594-0.091,3.873c0.045,0.498,0.381,1.048,0.53,1.602
						c0.07,0.26,0.36,0.559,0.074,0.741c-0.247,0.157-0.567-0.055-0.854-0.216c-1.216-0.684-2.15-1.698-3.209-2.569
						c-0.896-0.737-1.245-1.719-1.754-2.629c-1.003-1.799-2.7-3.217-3.059-5.362C52.535,91.333,52.19,89.401,52.922,87.493z
						 M185.22,298.411c-0.273,0.043-0.539,0.163-0.738,0.088c-0.427-0.06-0.778-0.064-1.104-0.163
						c-0.436-0.129-0.723-0.484-0.719-0.925c0.005-0.388,0.139-0.724,0.623-0.928c0.589-0.252,1.173-0.502,1.79-0.385
						c0.569,0.109,1.271,0.353,1.286,1.026C186.372,297.758,185.959,298.292,185.22,298.411z M189.006,296.967
						c-0.765,0.038-1.237-0.265-1.196-0.793c0.052-0.669,0.718-0.904,1.296-0.945c0.536-0.037,0.922,0.289,0.897,0.905
						C189.972,296.917,189.37,296.922,189.006,296.967z M203.17,289.794c-0.329,0.983-1.845,2.086-2.922,2.106
						c-0.563,0.122-1.048-0.247-1.59-0.351c-0.482-0.095-0.489-0.588-0.436-0.941c0.194-1.317,2.329-2.801,3.717-2.626
						C202.966,288.115,203.479,288.87,203.17,289.794z M208.073,286.663c-1.249,0.039-3.09-1.522-3.039-2.576
						c0.038-0.754,1.657-1.91,2.685-1.917c1.45,0.096,2.263,0.841,2.268,2.315C209.99,285.574,209.064,286.631,208.073,286.663z
						 M211.542,279.97c-0.911,0.058-1.744-0.905-1.729-1.998c0.012-0.795,1.006-1.557,2.087-1.598
						c0.967-0.021,1.083,0.725,1.138,1.427C213.106,278.704,212.214,279.928,211.542,279.97z M213.469,271.5
						c-1.204-0.043-1.677-0.636-1.658-2.083c0.016-1.258,0.753-1.893,2.161-1.857c0.522,0.015,1.32,1.081,1.298,1.737
						C215.234,270.29,214.225,271.524,213.469,271.5z"/>
					<path fill="#F9B732" d="M246.405,225.329c-0.056-1.433-0.231-2.866-0.459-4.282c-0.219-1.348-0.246-2.706-0.677-4.056
						c-0.316-0.987-0.823-1.971-0.93-3.08c-0.029-0.312,0.415-1.063-0.264-1.25c-0.676-0.188-0.696-0.759-0.623-1.167
						c0.261-1.448-0.097-2.772-0.581-4.1c-0.08-0.218-0.25-0.408-0.182-0.689c0.297-1.222-0.166-2.372-0.479-3.499
						c-0.365-1.313-0.338-2.622-0.315-3.938c0.013-0.769-0.337-1.178-1.111-0.935c-0.552,0.172-1.097,0.17-1.654,0.185
						c-0.54,0.017-1.058-0.142-1.62,0.106c-1.157,0.512-2.451,0.318-3.636,0.254c-1.146-0.065-2.314-0.308-3.483-0.411
						c-1.034-0.093-2.091-0.038-3.021-0.696c-0.34-0.24-0.839-0.28-1.26,0.042c-0.428,0.329,0,0.637,0.037,0.926
						c0.119,0.927,0.96,1.588,1.04,2.544c0.111,1.349,0.87,2.494,1.115,3.821c0.249,1.346,0.625,2.709,1.296,3.944
						c0.549,1.011,0.426,2.154,0.602,3.236c0.229,1.407,1.29,2.475,1.358,4.013c0.035,0.786,0.087,1.832,0.685,2.655
						c0.184,0.255,0.467,0.627,0.506,1.131c0.14,1.84,0.525,3.661,0.689,5.5c0.109,1.211,0.313,2.442,0.055,3.666
						c-0.173,0.825-0.432,1.62-0.069,2.484c0.12,0.289,0.009,0.766-0.158,1.065c-0.234,0.421-0.209,0.793-0.2,1.25
						c0.016,0.72-0.092,1.453-0.309,2.174c-0.349,1.165-0.698,2.359-0.802,3.562c-0.112,1.321-0.766,2.479-1.622,3.137
						c-1.754,1.352-3.102,3.156-4.973,4.322c-0.639,0.398-0.851,1.344-1.673,1.354c-1.188,0.021-1.219,0.807-1.29,1.541
						c0.042,0.372,0.064,0.652,0.106,0.929c0.356,2.344,1.216,4.567,1.466,6.95c0.156,1.485,0.477,2.966,0.589,4.471
						c0.019,0.24-0.02,0.704,0.363,0.59c0.793-0.239,1.698-0.178,2.381-0.702c1.104-0.852,2.16-1.754,3.419-2.391
						c0.368-0.185,0.784-0.217,1.129-0.511c0.956-0.816,1.693-1.872,2.833-2.507c0.467-0.258,0.891-0.725,1.159-1.193
						c0.926-1.627,2.218-2.979,3.283-4.501c1.35-1.925,2.537-3.925,3.349-6.145c0.6-1.644,1.383-3.228,1.895-4.896
						c0.452-1.479,1.341-2.799,1.542-4.356c0.083-0.638,0.13-1.278,0.189-1.919c0.09-0.956,0.407-1.882,0.158-2.883
						c-0.105-0.432-0.048-0.948,0.001-1.44C246.411,228.209,246.461,226.763,246.405,225.329z"/>
					<path fill="#F9B732" d="M269.852,118.054c-0.52-0.905-1.235-1.656-1.732-2.575c-0.811-1.5-2.312-2.386-3.838-2.78
						c-2.022-0.522-4.129-0.962-6.069-0.611c-1.321-0.199-2.249,0.511-3.303,0.646c-1.721,0.222-2.916,1.455-4.327,2.28
						c-1.431,0.837-2.857,1.68-4.356,2.41c-1.161,0.564-1.8,1.814-2.514,2.854c-0.485,0.706-1.298,0.786-1.812,1.394
						c-1.049,1.241-2.253,2.336-3.281,3.618c-0.635,0.79-1.506,1.44-2.049,2.336c-0.529,0.868-1.405,1.401-1.841,2.419
						c-0.566,1.316-1.365,2.554-1.934,3.893c-0.188,0.449-0.399,0.91-0.797,1.191c-0.392,0.279-0.233,0.576-0.081,0.815
						c0.197,0.309,0.756,0.43,0.438,0.971c0.674,0.29,1.061,0.96,1.62,1.329c0.906,0.598,1.788,1.255,2.662,1.88
						c1.26,0.9,2.337,2.009,3.896,2.486c0.872,0.268,1.55,1.014,2.431,1.358c1.163,0.455,2.417,0.803,3.423,1.502
						c0.883,0.612,1.813,0.995,2.775,1.387c0.583,0.236,0.929,0.041,1.284-0.472c0.734-1.063,1.192-2.309,2.12-3.236
						c0.795-0.797,1.502-1.839,2.471-2.271c1.186-0.525,2.207-1.16,3.205-1.96c0.572-0.46,1.082-1.077,1.774-1.332
						c1.3-0.48,2.297-1.423,3.463-2.104c0.857-0.5,1.388-1.311,1.986-2.099c1-1.316,2.449-2.298,2.871-4.033
						c0.021-0.08,0.134-0.171,0.221-0.193c0.924-0.249,1.274-1.027,1.415-1.807c0.196-1.104,0.958-1.974,1.092-3.093
						c0.197-1.688-0.439-3.225-0.851-4.791C270.097,119.02,270.136,118.549,269.852,118.054z M254.625,136.293
						c-1.619-0.123-1.667-0.707-1.829-2.486c-0.047-0.517,1.064-1.377,1.709-1.38c0.745-0.003,1.671,1.215,1.661,2.185
						C256.159,135.38,255.302,136.316,254.625,136.293z M260.454,131.696c-1.17,0.003-1.871-0.895-1.821-2.337
						c0.03-0.871,1.067-1.686,2.145-1.682c1.033,0.002,1.838,0.928,1.817,2.092C262.577,130.829,261.616,131.694,260.454,131.696z
						 M264.953,126.254c-1.771-0.001-2.483-0.527-2.495-1.835c-0.011-1.356,1.059-2.849,2.052-2.859
						c0.845-0.009,2.499,1.742,2.501,2.648C267.014,124.838,265.589,126.255,264.953,126.254z"/>
					<path fill="#F9B732" d="M246.474,152.84c-1.537-0.524-2.774-1.707-4.205-2.3c-2.824-1.169-4.965-3.228-7.45-4.818
						c-1.169-0.751-1.937-1.803-2.854-2.73c-0.644-0.653-1.538-0.965-2.061-1.79c-0.338-0.53-1.112-0.213-1.391,0.438
						c-0.176,0.409-0.35,0.877-0.668,1.153c-0.525,0.461-0.686,0.946-0.767,1.643c-0.087,0.765-0.021,1.683-0.326,2.266
						c-0.772,1.485-0.605,3.198-1.386,4.646c-0.202,0.376-0.224,0.874,0.175,1.142c0.6,0.396,0.996,1.015,1.569,1.407
						c1.343,0.917,2.768,1.718,4.096,2.657c1.064,0.756,2.235,1.335,3.264,2.163c1.114,0.898,2.777,0.82,3.823,1.932
						c0.021,0.022,0.069,0.035,0.1,0.028c1.219-0.246,2.134,0.772,3.271,0.791c0.582,0.01,0.751,0.809,1.401,0.594
						c0.383,0.127,0.542-0.087,0.635-0.438c0.25-0.94,0.493-1.885,0.78-2.816c0.42-1.362,0.365-2.894,1.534-4.002
						c0.353-0.335,0.485-0.91,0.7-1.385C246.83,153.164,246.889,152.981,246.474,152.84z"/>
					<path fill="#F9B732" d="M242.609,168.428c0.041-0.467-0.278-0.511-0.471-0.694c-0.581-0.561-1.318-0.059-1.982-0.413
						c-0.763-0.405-1.706-0.481-2.54-0.814c-0.872-0.349-1.762-0.548-2.728-0.646c-1.134-0.115-2.256-0.605-3.268-1.255
						c-0.455-0.292-0.933-0.412-1.188-1.037c-0.223-0.54-1.049-0.294-1.59-0.708c-1.229-0.938-2.774-1.413-3.953-2.493
						c-0.244-0.225-0.548-0.756-0.925-0.549c-0.366,0.2-0.427,0.726-0.466,1.182c-0.185,2.085-0.366,4.16-0.734,6.233
						c-0.188,1.052-0.442,2.268-0.231,3.441c0.141,0.781,0.207,1.003,0.702,1.393c1.202,0.946,2.592,1.574,3.906,2.325
						c0.594,0.341,1.42,0.35,1.917,0.77c1.102,0.934,2.518,0.7,3.741,1.188c0.999,0.399,2.199,0.406,3.262,0.828
						c0.308,0.122,0.689,0.074,0.988,0.131c1.138,0.213,2.31-0.476,3.421,0.18c0.142,0.083,0.641,0.131,0.667-0.247
						c0.042-0.603,0.388-1.115,0.368-1.737c-0.063-2.007,0.059-3.996,0.814-5.895C242.487,169.198,242.299,168.699,242.609,168.428z
						"/>
					<path fill="#F9B732" d="M223.944,189.831c1.387,0.57,2.884,0.834,4.202,1.634c0.774,0.47,1.779,0.42,2.663,0.573
						c0.938,0.161,1.896,0.4,2.826,0.558c1.104,0.188,2.204-0.257,3.237,0.174c0.639,0.268,1.258,0.064,1.884,0.037
						c0.137-0.008,0.137-0.264,0.437-0.037c0.841,0.634,2.17-0.039,2.064-1.07c-0.071-0.705,0.09-1.486-0.157-2.091
						c-0.739-1.794-0.043-3.646-0.406-5.417c0.298-0.799-0.189-0.819-0.734-0.774c-1.407,0.111-2.818-0.087-4.211-0.151
						c-1.798-0.086-3.553-0.829-5.378-1.063c-1.287-0.166-2.374-1.172-3.78-0.92c-0.153,0.026-0.381-0.161-0.527-0.298
						c-0.739-0.698-1.788-0.843-2.577-1.476c-0.461-0.37-0.769,0.084-0.708,0.484c0.116,0.771,0.099,1.582,0.259,2.309
						c0.324,1.46,0.377,2.939,0.415,4.392c0.023,0.9,0.291,1.802,0.119,2.712C223.517,189.67,223.747,189.75,223.944,189.831z"/>
				</g>
				<path fill="#F9B732" d="M3.604,92.948c0.661,0.326,1.297,0.703,2.003,0.971c0.629,0.238,1.374,0.172,1.843,0.472
					c0.734,0.468,1.535,0.609,2.292,0.739c1.356,0.232,2.733,0.825,4.051,0.675c1.415-0.164,2.466,1.299,3.877,0.588
					c0.128-0.063,0.242,0.113,0.264,0.258c0.059,0.396,0.398,0.421,0.676,0.561c1.375,0.688,2.856,1.11,4.284,1.65
					c2.518,0.952,2.927,0.305,4.121-1.354c0.453-0.628-0.194-2.639-0.897-2.625c-1.07,0.023-0.197-0.521-0.398-0.846
					c-0.29,0.188-0.43,0.524-0.92,0.17c-0.395-0.286-0.953-0.797-1.498-0.579c-0.492,0.197-0.697,0.032-0.926-0.282
					c-0.175-0.241-0.312-0.344-0.67-0.288c-0.898,0.141-1.771-0.329-2.559-0.573c-0.946-0.294-1.938-0.561-2.863-0.624
					c-0.895-0.06-1.411-0.817-2.462-0.729c-1.073,0.088-2.446-0.164-3.45-1.144c-0.924-0.899-2.342-0.943-3.434-1.538
					c-0.914-0.498-1.829-0.434-2.614-0.217c-0.74,0.205-1.577,0.612-1.702,1.796C2.503,91.131,2.671,92.485,3.604,92.948z"/>
				<path fill="#F9B732" d="M20.616,105.528c-1.009-0.161-2.212-0.31-3.302,0.096c-0.206,0.077-0.373-0.022-0.515-0.238
					c-0.118-0.179-0.289-0.381-0.593-0.337c-2.205,0.323-4.281-0.112-6.254-1.105c-0.106-0.055-0.145-0.251-0.321-0.172
					c-0.914,0.416-1.965-0.572-2.584-0.124c-0.924,0.671-1.718,0-2.216-0.167c-1.088-0.364-2.079-0.124-3.102-0.157
					c-1.012-0.035-1.774,0.857-1.729,1.938c0.08,1.845,1.318,2.863,3.096,2.643c1.388-0.171,2.817-0.124,4.09,0.461
					c0.698,0.321,1.251,0.648,2.031,0.33c0.097-0.038,0.938-0.985,0.875,0.24c0.099-0.014,0.201-0.016,0.295-0.044
					c0.643-0.196,1.189,0.333,1.837,0.219c0.98-0.173,1.877,0.408,2.887,0.358c0.575-0.03,1.121,0.89,1.844,0.196
					c0.012-0.012,0.144,0.054,0.163,0.104c0.35,0.898,0.865,0.369,1.336,0.153c0.146-0.067,0.262-0.303,0.442-0.176
					c0.887,0.626,1.827,0.714,2.894,0.558c0.619-0.091,1.15,0.27,1.798-0.432c0.909-0.98,1.177-2.224,0.39-3.309
					C23.095,105.351,21.708,105.701,20.616,105.528z"/>
			</g>
			<path fill="#FFFFFF" d="M156.575,84.866c0.335,0.084,0.654,0.006,1-0.145c1.041-0.45,1.668-1.433,2.668-1.938
				c1.401-0.707,2.473-1.938,3.949-2.542c0.464-0.191,0.669-0.602,0.707-1.082c0.048-0.595-0.469-0.659-0.836-0.769
				c-1.579-0.463-2.998-0.043-4.325,0.853c-0.234,0.158-0.467,0.558-0.795,0.295c-0.261-0.209-0.025-0.538,0.089-0.765
				c0.889-1.74,1.737-3.51,2.743-5.183c0.346-0.574,0.677-1.338,1.426-1.564c0.608-0.184,0.829-0.517,0.621-1.079
				c-0.229-0.617-0.722-0.867-1.346-0.646c-0.572,0.203-1.178,0.411-1.653,0.771c-2.022,1.529-3.331,3.603-4.431,5.856
				c-0.403,0.826-0.488,1.771-0.979,2.507c-0.563,0.841-0.719,1.741-0.841,2.726C154.55,82.913,155.814,84.675,156.575,84.866z"/>
			<path fill="#FFFFFF" d="M76.009,50.965c0.32,1.811,0.929,3.589,0.585,5.472c-0.131,0.721,0.262,1.142,0.808,1.541
				c0.438,0.322,0.982,0.112,1.437,0.494c0.746,0.626,1.707,0.24,1.982-0.701c0.193-0.662,0.391-1.326,0.509-2.003
				c0.223-1.269,0.788-2.422,1.148-3.635c0.587-1.977,0.86-4.044,1.365-6.047c0.328-1.299,0.008-2.588,0.116-3.883
				c0.056-0.656-0.583-1.188-1.27-1.104c-0.576,0.07-1.027,0.701-0.941,1.232c0.148,0.931-0.036,1.76-0.307,2.61
				c-0.172,0.539-0.434,1.075-0.47,1.625c-0.149,2.175-0.663,4.258-1.38,6.524c-0.825-1.479-1.854-2.526-2.494-3.839
				c-0.203-0.414-0.523-0.911-1.146-0.538c-0.628,0.378-0.658,0.948-0.369,1.543C75.7,50.501,75.957,50.668,76.009,50.965z"/>
			<path fill="#FFFFFF" d="M42.483,231.954c0.081-0.499-0.229-1.069-0.396-1.597c-0.146-0.464-0.586-0.628-0.981-0.589
				c-0.347,0.033-0.604,0.276-0.748,0.729c-0.213,0.678-0.2,1.316-0.148,1.987c0.116,1.501-0.282,2.959-0.366,4.441
				c0.021,0.277,0.028,0.557,0.064,0.834c0.116,0.874,0.985,1.924,1.624,1.795c0.958-0.192,0.944-1.073,1.129-1.85
				C43.12,235.767,42.17,233.891,42.483,231.954z"/>
			<path fill="#FFFFFF" d="M207.72,282.169c-1.028,0.007-2.647,1.163-2.686,1.917c-0.052,1.054,1.79,2.615,3.039,2.576
				c0.991-0.031,1.917-1.089,1.914-2.178C209.982,283.01,209.169,282.265,207.72,282.169z"/>
			<path fill="#FFFFFF" d="M201.939,287.984c-1.388-0.175-3.522,1.309-3.717,2.626c-0.054,0.354-0.047,0.848,0.436,0.941
				c0.542,0.104,1.027,0.473,1.59,0.351c1.077-0.021,2.593-1.122,2.922-2.106C203.479,288.87,202.966,288.115,201.939,287.984z"/>
			<path fill="#FFFFFF" d="M40.917,227.789c0.592,0.081,0.915-0.304,1.181-0.804c0.375-0.703,0.438-1.438,0.367-2.204
				c0.302-1.091-0.072-1.827-1.152-2.189c-0.62-0.207-1.213-0.073-1.479,0.505c-0.558,1.211-0.477,2.473-0.034,3.719
				C39.991,227.354,40.365,227.714,40.917,227.789z"/>
			<path fill="#FFFFFF" d="M213.971,267.559c-1.408-0.034-2.146,0.601-2.161,1.857c-0.019,1.446,0.455,2.04,1.658,2.083
				c0.757,0.023,1.767-1.21,1.801-2.203C215.292,268.64,214.494,267.573,213.971,267.559z"/>
			<path fill="#FFFFFF" d="M211.9,276.375c-1.081,0.041-2.075,0.803-2.087,1.598c-0.017,1.093,0.817,2.056,1.729,1.998
				c0.672-0.042,1.565-1.267,1.496-2.169C212.983,277.099,212.867,276.353,211.9,276.375z"/>
			<path fill="#FFFFFF" d="M137.665,77.862c1.046,0.02,1.908-0.872,1.866-1.925c-0.028-0.701-0.462-1.2-1.171-1.258
				c-1.005-0.081-2.203,1.043-2.109,2.016C136.331,77.521,137.058,77.729,137.665,77.862z"/>
			<path fill="#FFFFFF" d="M42.08,207.995c-0.415-0.006-1.964,1.168-2.012,1.524c-0.053,0.411,1.073,1.519,1.576,1.547
				c1.062,0.063,1.802-0.532,1.844-1.479C43.526,208.701,42.913,208.007,42.08,207.995z"/>
			<path fill="#FFFFFF" d="M42.817,201.044c-0.568-0.014-1.426,0.895-1.438,1.521c-0.014,0.64,0.905,1.768,1.439,1.769
				c0.846,0,1.677-0.75,1.668-1.507C44.477,201.973,43.627,201.066,42.817,201.044z"/>
			<path fill="#FFFFFF" d="M185.072,296.099c-0.617-0.117-1.201,0.133-1.79,0.385c-0.483,0.204-0.618,0.54-0.623,0.928
				c-0.004,0.439,0.283,0.796,0.719,0.925c0.326,0.099,0.678,0.104,1.104,0.163c0.199,0.075,0.465-0.045,0.738-0.088
				c0.739-0.119,1.151-0.652,1.138-1.285C186.342,296.451,185.641,296.208,185.072,296.099z"/>
			<path fill="#FFFFFF" d="M42.07,214.335c-0.779-0.081-1.52,0.568-1.549,1.358c-0.022,0.61,0.308,1.149,0.912,1.306
				c0.646,0.165,1.437-0.721,1.502-1.563C42.991,214.725,42.549,214.459,42.07,214.335z"/>
			<path fill="#FFFFFF" d="M189.104,295.229c-0.578,0.041-1.244,0.276-1.296,0.945c-0.041,0.528,0.433,0.831,1.196,0.793
				c0.364-0.045,0.967-0.051,0.997-0.833C190.026,295.518,189.641,295.192,189.104,295.229z"/>
			<path fill="#FFFFFF" d="M68.252,180.367c-0.008,0.005-0.015,0.007-0.021,0.01c0.001,0.006,0.003,0.01,0.005,0.015l0.021-0.023
				l-0.021,0.023C68.243,180.383,68.245,180.375,68.252,180.367z"/>
			<path fill="#FFFFFF" d="M67.847,180.04c-0.051,0.011-0.124,0.179-0.1,0.233c0.11,0.242,0.298,0.182,0.482,0.104
				C68.165,180.192,68.105,179.991,67.847,180.04z"/>
			<path fill="#FFFFFF" d="M264.51,121.56c-0.994,0.011-2.063,1.502-2.052,2.859c0.011,1.308,0.725,1.834,2.495,1.835
				c0.636,0.001,2.062-1.416,2.059-2.046C267.009,123.301,265.354,121.551,264.51,121.56z"/>
			<path fill="#FFFFFF" d="M260.776,127.676c-1.077-0.003-2.113,0.811-2.145,1.682c-0.049,1.442,0.651,2.34,1.821,2.337
				c1.162-0.002,2.123-0.866,2.14-1.927C262.615,128.604,261.81,127.679,260.776,127.676z"/>
			<path fill="#FFFFFF" d="M254.505,132.427c-0.645,0.003-1.756,0.863-1.709,1.38c0.161,1.779,0.21,2.363,1.829,2.486
				c0.677,0.021,1.534-0.913,1.542-1.683C256.176,133.642,255.25,132.424,254.505,132.427z"/>
			<g>
				<path fill="#EBB029" d="M6.864,179.402c-3.091,0-3.095,4.804,0,4.804C9.954,184.205,9.959,179.402,6.864,179.402z"/>
				<path fill="#EBB029" d="M195.307,18.633l-0.702-0.702c-0.891-0.89-2.519-0.955-3.397,0c-0.879,0.958-0.948,2.446,0,3.396
					l0.704,0.701c0.888,0.891,2.52,0.956,3.396,0C196.187,21.071,196.255,19.583,195.307,18.633z"/>
				<path fill="#EBB029" d="M75.407-0.028c-1.544,0-1.548,2.401,0,2.401C76.951,2.373,76.955-0.028,75.407-0.028z"/>
				<path fill="#EBB029" d="M114.343,28.869c-1.546,0-1.547,2.4,0,2.4C115.888,31.27,115.891,28.869,114.343,28.869z"/>
				<path fill="#EBB029" d="M211.427,54.631c-1.545,0-1.547,2.401,0,2.401C212.972,57.033,212.975,54.631,211.427,54.631z"/>
				<path fill="#EBB029" d="M36.792,53.431c-1.546,0-1.548,2.401,0,2.401C38.336,55.833,38.339,53.431,36.792,53.431z"/>
				<path fill="#EBB029" d="M1.95,139.883H1.248c-0.628,0-1.229,0.551-1.2,1.2c0.028,0.649,0.527,1.201,1.2,1.201H1.95
					c0.628,0,1.23-0.553,1.2-1.201C3.121,140.432,2.623,139.883,1.95,139.883z"/>
				<path fill="#EBB029" d="M192.098,130.145c-0.65,0.029-1.201,0.527-1.201,1.201v0.702c0,0.628,0.552,1.229,1.201,1.201
					c0.649-0.029,1.2-0.528,1.2-1.201v-0.702C193.298,130.717,192.746,130.115,192.098,130.145z"/>
				<path fill="#EBB029" d="M225.929,92.066h-1.405c-0.627,0-1.229,0.554-1.201,1.201c0.029,0.651,0.528,1.2,1.201,1.2h1.405
					c0.627,0,1.229-0.551,1.199-1.2C227.1,92.617,226.602,92.066,225.929,92.066z"/>
				<path fill="#EBB029" d="M196.343,84.869h-0.701c-1.675,0-3.278,1.473-3.202,3.2c0.079,1.735,1.407,3.201,3.202,3.201h0.701
					c1.677,0,3.279-1.473,3.201-3.201C199.468,86.336,198.139,84.869,196.343,84.869z"/>
			</g>
			<path fill="#EF833A" d="M45.869,93.47c-1.166-0.375-2.334,0.112-3.468-0.146c-0.645-0.147-1.152-0.001-1.607,0.369
				c-0.836,0.683-1.724,1.335-2.411,2.152c-0.375,0.446-1.244,0.693-0.954,1.674c0,0.033,0.045,0.193-0.009,0.31
				c-0.47,1.035-1.021,2.057-0.229,3.187c0.027,0.041-0.08,0.18-0.128,0.271c-0.224,0.416-0.067,0.755,0.25,1.021
				c0.392,0.328,0.582,0.754,0.772,1.216c0.53,1.284,1.409,2.116,2.861,2.389c1.229,0.231,2.413,0.028,3.615,0.035
				c0.989,0.003,1.827-0.253,2.598-0.677c0.716-0.394,1.198-1.008,1.632-1.866c0.905-1.78,1.127-3.469,0.848-5.378
				C49.359,96.113,47.702,94.059,45.869,93.47z"/>
			<path fill="#EF833A" d="M152.795,124.413c-0.526-0.37-1.027-0.769-1.548-1.154c-1.002-0.748-2.132-1.085-3.424-1.038
				c-1.14,0.042-2.075,0.722-3.178,0.807c-0.89,0.068-2.344,1.16-2.546,1.987c-0.205,0.831-0.578,1.604-0.45,2.542
				c0.099,0.722-0.372,1.528-0.261,2.243c0.315,2.024,1.455,3.631,3.074,4.835c0.481,0.357,1.075,0.799,1.662,0.692
				c0.661-0.08,1.178-0.169,1.699-0.199c3.039-0.178,5.316-2.335,6.026-5.119c0.278-1.099,0.208-2.229,0.165-3.341
				C153.981,125.758,153.481,124.894,152.795,124.413z"/>
			<path fill="#38C270" d="M206.724,188.705c-0.71-0.146-1.482-0.323-2.263-0.459c-3.11-0.539-5.239-2.305-6.519-5.154
				c-0.332-0.732-0.58-1.516-1.012-2.182c-3.242-5.012-2.323-10.138-0.493-15.299c0.107-0.301,0.25-0.594,0.407-0.874
				c0.669-1.209,1.909-1.753,2.761-1.213c1.018,0.646,0.852,1.62,0.656,2.576c-0.097,0.472-0.271,0.927-0.397,1.393
				c-1.475,5.516,0.884,10.073,3.712,14.468c0.891,1.388,2.648,1.25,3.586-0.145c0.625-0.934,1.083-1.991,1.792-2.849
				c0.341-0.414,1.088-0.664,1.658-0.675c0.934-0.021,1.395,0.728,1.514,1.568c0.112,0.787,0.092,1.597,0.084,2.396
				c-0.011,1.126-0.136,2.255-0.081,3.375c0.141,2.837,0.898,3.731,3.618,4.231c1.1,0.201,2.233,0.229,3.354,0.315
				c1.03,0.078,1.939,0.412,2.162,1.521c0.23,1.134-0.606,1.776-1.447,2.253c-0.686,0.384-1.48,0.813-2.223,0.808
				c-1.923-0.008-3.897-0.011-5.739-0.473c-1.144-0.286-2.232-1.266-3.065-2.184C207.949,191.181,207.451,189.944,206.724,188.705z"
				/>
		</g>
	</g>
</g>
</svg>
